<svg version="1.2" xmlns="http://www.w3.org/2000/svg" viewBox="0 0 655 414" width="655" height="414">
	<title>freelancer-img-svg</title>
	<style>
		.s0 { fill: #e6e6e6 } 
		.s1 { fill: #f2f2f2 } 
		.s2 { fill: #cccccc } 
		.s3 { fill: #3f3d56 } 
		.s4 { fill: #2f2e41 } 
		.s5 { fill: #ffb8b8 } 
		.s6 { fill: #6c63ff } 
		.s7 { fill: #ffffff } 
		.s8 { fill: #ff6584 } 
	</style>
	<path id="Layer" class="s0" d="m223.1 153.4q0.5-5.6 1.5-11.2q1-5 2.3-9.9q1.3-4.9 3.1-9.7q1.7-4.8 3.8-9.4q2.1-4.6 4.6-9q0.2-0.3 0.5-0.3q0.2-0.1 0.5 0q0.3 0.2 0.3 0.5q0.1 0.3 0 0.5q-2.8 4.9-5 10q-2.1 4.6-3.7 9.3q-1.7 4.7-3 9.5q-1.2 4.9-2.1 9.8q-0.9 4.9-1.3 9.9c-0.1 1-1.6 1-1.5 0z"/>
	<circle id="Layer" class="s0" cx="243.3" cy="97.9" r="9.4"/>
	<path id="Layer" class="s0" d="m224.6 153.7q0.3-3.7 1-7.3q0.6-3.3 1.4-6.4q0.9-3.2 2-6.3q1.1-3.1 2.5-6.1q1.4-3 3-5.9q0.1-0.1 0.3-0.2q0.2 0 0.4 0.1q0.1 0.1 0.2 0.3q0 0.2-0.1 0.3q-1.7 3.2-3.2 6.5q-1.3 2.9-2.4 6q-1.1 3.1-1.9 6.2q-0.8 3.1-1.4 6.3q-0.6 3.2-0.9 6.5c0 0.6-1 0.6-0.9 0z"/>
	<circle id="Layer" class="s0" cx="237.7" cy="117.7" r="6.1"/>
	<path id="Layer" class="s0" d="m223.5 153.7q-1.9-3.1-3.6-6.4q-1.6-2.9-2.8-5.9q-1.3-3.1-2.3-6.2q-1-3.1-1.8-6.3q-0.8-3.3-1.3-6.5q0-0.2 0.1-0.4q0.2-0.1 0.4-0.1q0.2-0.1 0.3 0.1q0.2 0.1 0.2 0.3q0.5 3.5 1.4 7.1q0.8 3.1 1.8 6.2q1.1 3.1 2.3 6q1.3 3 2.8 5.9q1.6 2.9 3.3 5.6c0.3 0.5-0.4 1.1-0.8 0.6z"/>
	<circle id="Layer" class="s0" cx="211.7" cy="117.2" r="6.1"/>
	<path id="Layer" class="s1" d="m205.6 158.5v-12q0-0.9 0.3-1.7q0.3-0.8 1-1.5q0.6-0.6 1.4-1q0.9-0.3 1.8-0.3h28q0.9 0 1.7 0.3q0.8 0.4 1.4 1q0.7 0.7 1 1.5q0.4 0.8 0.4 1.7v12q0 0.9-0.4 1.7q-0.3 0.8-1 1.5q-0.6 0.6-1.4 1q-0.8 0.3-1.7 0.3h-28q-0.9 0-1.8-0.3q-0.8-0.4-1.4-1q-0.7-0.7-1-1.5q-0.3-0.8-0.3-1.7z"/>
	<path id="Layer" class="s1" d="m237.1 82h-12q-0.9 0-1.8-0.3q-0.8-0.4-1.4-1q-0.7-0.7-1-1.5q-0.3-0.8-0.3-1.7v-49q0-0.9 0.3-1.7q0.3-0.8 1-1.5q0.6-0.6 1.4-1q0.9-0.3 1.8-0.3h12q0.9 0 1.7 0.3q0.8 0.4 1.4 1q0.7 0.7 1 1.5q0.4 0.8 0.4 1.7v49q0 0.9-0.4 1.7q-0.3 0.8-1 1.5q-0.6 0.6-1.4 1q-0.8 0.3-1.7 0.3z"/>
	<path id="Layer" class="s2" d="m221.1 33.5h20v4h-20z"/>
	<path id="Layer" class="s2" d="m221.1 64.5h20v4h-20z"/>
	<path id="Layer" class="s1" d="m267.1 82h-12q-0.9 0-1.8-0.3q-0.8-0.4-1.4-1q-0.7-0.7-1-1.5q-0.3-0.8-0.3-1.7v-49q0-0.9 0.3-1.7q0.3-0.8 1-1.5q0.6-0.6 1.4-1q0.9-0.3 1.8-0.3h12q0.9 0 1.7 0.3q0.8 0.4 1.4 1q0.7 0.7 1 1.5q0.4 0.8 0.4 1.7v49q0 0.9-0.4 1.7q-0.3 0.8-1 1.5q-0.6 0.6-1.4 1q-0.8 0.3-1.7 0.3z"/>
	<path id="Layer" class="s2" d="m251.1 33.5h20v4h-20z"/>
	<path id="Layer" class="s2" d="m251.1 64.5h20v4h-20z"/>
	<path id="Layer" class="s1" d="m297.1 82h-12q-0.9 0-1.8-0.3q-0.8-0.4-1.4-1q-0.7-0.7-1-1.5q-0.3-0.8-0.3-1.7v-49q0-0.9 0.3-1.7q0.3-0.8 1-1.5q0.6-0.6 1.4-1q0.9-0.3 1.8-0.3h12q0.9 0 1.7 0.3q0.8 0.4 1.4 1q0.7 0.7 1 1.5q0.4 0.8 0.4 1.7v49q0 0.9-0.4 1.7q-0.3 0.8-1 1.5q-0.6 0.6-1.4 1q-0.8 0.3-1.7 0.3z"/>
	<path id="Layer" class="s2" d="m281.1 33.5h20v4h-20z"/>
	<path id="Layer" class="s2" d="m281.1 64.5h20v4h-20z"/>
	<path id="Layer" class="s1" d="m313.1 163h-12q-0.9 0-1.8-0.3q-0.8-0.4-1.4-1q-0.7-0.7-1-1.5q-0.3-0.8-0.3-1.7v-49q0-0.9 0.3-1.7q0.3-0.8 1-1.5q0.6-0.6 1.4-1q0.9-0.3 1.8-0.3h12q0.9 0 1.7 0.3q0.8 0.4 1.4 1q0.7 0.7 1 1.5q0.4 0.8 0.4 1.7v49q0 0.9-0.4 1.7q-0.3 0.8-1 1.5q-0.6 0.6-1.4 1q-0.8 0.3-1.7 0.3z"/>
	<path id="Layer" class="s2" d="m297.1 114.5h20v4h-20z"/>
	<path id="Layer" class="s2" d="m297.1 145.5h20v4h-20z"/>
	<path id="Layer" class="s1" d="m343.1 163h-12q-0.9 0-1.8-0.3q-0.8-0.4-1.4-1q-0.7-0.7-1-1.5q-0.3-0.8-0.3-1.7v-49q0-0.9 0.3-1.7q0.3-0.8 1-1.5q0.6-0.6 1.4-1q0.9-0.3 1.8-0.3h12q0.9 0 1.7 0.3q0.8 0.4 1.4 1q0.7 0.7 1 1.5q0.4 0.8 0.4 1.7v49q0 0.9-0.4 1.7q-0.3 0.8-1 1.5q-0.6 0.6-1.4 1q-0.8 0.3-1.7 0.3z"/>
	<path id="Layer" class="s2" d="m327.1 114.5h20v4h-20z"/>
	<path id="Layer" class="s2" d="m327.1 145.5h20v4h-20z"/>
	<path id="Layer" class="s1" d="m373.1 163h-12q-0.9 0-1.8-0.3q-0.8-0.4-1.4-1q-0.7-0.7-1-1.5q-0.3-0.8-0.3-1.7v-49q0-0.9 0.3-1.7q0.3-0.8 1-1.5q0.6-0.6 1.4-1q0.9-0.3 1.8-0.3h12q0.9 0 1.7 0.3q0.8 0.4 1.4 1q0.7 0.7 1 1.5q0.4 0.8 0.4 1.7v49q0 0.9-0.4 1.7q-0.3 0.8-1 1.5q-0.6 0.6-1.4 1q-0.8 0.3-1.7 0.3z"/>
	<path id="Layer" class="s2" d="m357.1 114.5h20v4h-20z"/>
	<path id="Layer" class="s2" d="m357.1 145.5h20v4h-20z"/>
	<path id="Layer" class="s1" d="m234.1 244h-12q-0.9 0-1.8-0.3q-0.8-0.4-1.4-1q-0.7-0.7-1-1.5q-0.3-0.8-0.3-1.7v-49q0-0.9 0.3-1.7q0.3-0.8 1-1.5q0.6-0.6 1.4-1q0.9-0.3 1.8-0.3h12q0.9 0 1.7 0.3q0.8 0.4 1.4 1q0.7 0.7 1 1.5q0.4 0.8 0.4 1.7v49q0 0.9-0.4 1.7q-0.3 0.8-1 1.5q-0.6 0.6-1.4 1q-0.8 0.3-1.7 0.3z"/>
	<path id="Layer" class="s2" d="m218.1 195.5h20v4h-20z"/>
	<path id="Layer" class="s2" d="m218.1 226.5h20v4h-20z"/>
	<path id="Layer" class="s1" d="m264.1 244h-12q-0.9 0-1.8-0.3q-0.8-0.4-1.4-1q-0.7-0.7-1-1.5q-0.3-0.8-0.3-1.7v-49q0-0.9 0.3-1.7q0.3-0.8 1-1.5q0.6-0.6 1.4-1q0.9-0.3 1.8-0.3h12q0.9 0 1.7 0.3q0.8 0.4 1.4 1q0.7 0.7 1 1.5q0.4 0.8 0.4 1.7v49q0 0.9-0.4 1.7q-0.3 0.8-1 1.5q-0.6 0.6-1.4 1q-0.8 0.3-1.7 0.3z"/>
	<path id="Layer" class="s2" d="m248.1 195.5h20v4h-20z"/>
	<path id="Layer" class="s2" d="m248.1 226.5h20v4h-20z"/>
	<path id="Layer" class="s1" d="m294.1 244h-12q-0.9 0-1.8-0.3q-0.8-0.4-1.4-1q-0.7-0.7-1-1.5q-0.3-0.8-0.3-1.7v-49q0-0.9 0.3-1.7q0.3-0.8 1-1.5q0.6-0.6 1.4-1q0.9-0.3 1.8-0.3h12q0.9 0 1.7 0.3q0.8 0.4 1.4 1q0.7 0.7 1 1.5q0.4 0.8 0.4 1.7v49q0 0.9-0.4 1.7q-0.3 0.8-1 1.5q-0.6 0.6-1.4 1q-0.8 0.3-1.7 0.3z"/>
	<path id="Layer" class="s2" d="m278.1 195.5h20v4h-20z"/>
	<path id="Layer" class="s2" d="m278.1 226.5h20v4h-20z"/>
	<path id="Layer" class="s1" d="m327.1 82h-12q-0.9 0-1.8-0.3q-0.8-0.4-1.4-1q-0.7-0.7-1-1.5q-0.3-0.8-0.3-1.7v-49q0-0.9 0.3-1.7q0.3-0.8 1-1.5q0.6-0.6 1.4-1q0.9-0.3 1.8-0.3h12q0.9 0 1.7 0.3q0.8 0.4 1.4 1q0.7 0.7 1 1.5q0.4 0.8 0.4 1.7v49q0 0.9-0.4 1.7q-0.3 0.8-1 1.5q-0.6 0.6-1.4 1q-0.8 0.3-1.7 0.3z"/>
	<path id="Layer" class="s2" d="m311.1 33.5h20v4h-20z"/>
	<path id="Layer" class="s2" d="m311.1 64.5h20v4h-20z"/>
	<path id="Layer" class="s1" d="m357.1 82h-12q-0.9 0-1.8-0.3q-0.8-0.4-1.4-1q-0.7-0.7-1-1.5q-0.3-0.8-0.3-1.7v-49q0-0.9 0.3-1.7q0.3-0.8 1-1.5q0.6-0.6 1.4-1q0.9-0.3 1.8-0.3h12q0.9 0 1.7 0.3q0.8 0.4 1.4 1q0.7 0.7 1 1.5q0.4 0.8 0.4 1.7v49q0 0.9-0.4 1.7q-0.3 0.8-1 1.5q-0.6 0.6-1.4 1q-0.8 0.3-1.7 0.3z"/>
	<path id="Layer" class="s2" d="m341.1 33.5h20v4h-20z"/>
	<path id="Layer" class="s2" d="m341.1 64.5h20v4h-20z"/>
	<path id="Layer" class="s1" d="m387.1 82h-12q-0.9 0-1.8-0.3q-0.8-0.4-1.4-1q-0.7-0.7-1-1.5q-0.3-0.8-0.3-1.7v-49q0-0.9 0.3-1.7q0.3-0.8 1-1.5q0.6-0.6 1.4-1q0.9-0.3 1.8-0.3h12q0.9 0 1.7 0.3q0.8 0.4 1.4 1q0.7 0.7 1 1.5q0.4 0.8 0.4 1.7v49q0 0.9-0.4 1.7q-0.3 0.8-1 1.5q-0.6 0.6-1.4 1q-0.8 0.3-1.7 0.3z"/>
	<path id="Layer" class="s2" d="m371.1 33.5h20v4h-20z"/>
	<path id="Layer" class="s2" d="m371.1 64.5h20v4h-20z"/>
	<path id="Layer" class="s1" d="m417.1 82h-12q-0.9 0-1.8-0.3q-0.8-0.4-1.4-1q-0.7-0.7-1-1.5q-0.3-0.8-0.3-1.7v-49q0-0.9 0.3-1.7q0.3-0.8 1-1.5q0.6-0.6 1.4-1q0.9-0.3 1.8-0.3h12q0.9 0 1.7 0.3q0.8 0.4 1.4 1q0.7 0.7 1 1.5q0.4 0.8 0.4 1.7v49q0 0.9-0.4 1.7q-0.3 0.8-1 1.5q-0.6 0.6-1.4 1q-0.8 0.3-1.7 0.3z"/>
	<path id="Layer" class="s2" d="m401.1 33.5h20v4h-20z"/>
	<path id="Layer" class="s2" d="m401.1 64.5h20v4h-20z"/>
	<path id="Layer" class="s2" d="m462 83.5h-285q-0.4 0-0.7-0.3q-0.3-0.3-0.3-0.7q0-0.4 0.3-0.7q0.3-0.3 0.7-0.3h285q0.4 0 0.7 0.3q0.3 0.3 0.3 0.7q0 0.4-0.3 0.7q-0.3 0.3-0.7 0.3z"/>
	<path id="Layer" class="s2" d="m462 164.5h-285q-0.4 0-0.7-0.3q-0.3-0.3-0.3-0.7q0-0.4 0.3-0.7q0.3-0.3 0.7-0.3h285q0.4 0 0.7 0.3q0.3 0.3 0.3 0.7q0 0.4-0.3 0.7q-0.3 0.3-0.7 0.3z"/>
	<path id="Layer" class="s2" d="m594 245.5h-285q-0.4 0-0.7-0.3q-0.3-0.3-0.3-0.7q0-0.4 0.3-0.7q0.3-0.3 0.7-0.3h285q0.4 0 0.7 0.3q0.3 0.3 0.3 0.7q0 0.4-0.3 0.7q-0.3 0.3-0.7 0.3z"/>
	<path id="Layer" class="s0" d="m388.1 234.4q0.5-5.6 1.5-11.2q1-5 2.3-9.9q1.3-4.9 3.1-9.7q1.7-4.8 3.8-9.4q2.1-4.6 4.6-9q0.2-0.3 0.5-0.3q0.2-0.1 0.5 0q0.3 0.2 0.3 0.5q0.1 0.3 0 0.5q-2.8 4.9-5 10q-2.1 4.6-3.7 9.3q-1.7 4.7-3 9.5q-1.2 4.9-2.1 9.8q-0.9 4.9-1.3 9.9c-0.1 1-1.6 1-1.5 0z"/>
	<circle id="Layer" class="s0" cx="408.3" cy="178.9" r="9.4"/>
	<path id="Layer" class="s0" d="m389.6 234.7q0.3-3.7 1-7.3q0.6-3.3 1.4-6.4q0.9-3.2 2-6.3q1.1-3.1 2.5-6.1q1.4-3 3-5.9q0.1-0.1 0.3-0.2q0.2 0 0.4 0.1q0.1 0.1 0.2 0.3q0 0.2-0.1 0.3q-1.7 3.2-3.2 6.5q-1.3 2.9-2.4 6q-1.1 3.1-1.9 6.2q-0.8 3.1-1.4 6.3q-0.6 3.2-0.9 6.5c0 0.6-1 0.6-0.9 0z"/>
	<circle id="Layer" class="s0" cx="402.7" cy="198.7" r="6.1"/>
	<path id="Layer" class="s0" d="m388.5 234.7q-1.9-3.1-3.6-6.4q-1.6-2.9-2.8-5.9q-1.3-3.1-2.3-6.2q-1-3.1-1.8-6.3q-0.8-3.3-1.3-6.5q0-0.2 0.1-0.4q0.2-0.1 0.4-0.1q0.2-0.1 0.3 0.1q0.2 0.1 0.2 0.3q0.5 3.5 1.4 7.1q0.8 3.1 1.8 6.2q1.1 3.1 2.3 6q1.3 3 2.8 5.9q1.6 2.9 3.3 5.6c0.3 0.5-0.4 1.1-0.8 0.6z"/>
	<circle id="Layer" class="s0" cx="376.7" cy="198.2" r="6.1"/>
	<path id="Layer" class="s1" d="m370.6 239.5v-12q0-0.9 0.3-1.7q0.3-0.8 1-1.5q0.6-0.6 1.4-1q0.9-0.3 1.8-0.3h28q0.9 0 1.7 0.3q0.8 0.4 1.4 1q0.7 0.7 1 1.5q0.4 0.8 0.4 1.7v12q0 0.9-0.4 1.7q-0.3 0.8-1 1.5q-0.6 0.6-1.4 1q-0.8 0.3-1.7 0.3h-28q-0.9 0-1.8-0.3q-0.8-0.4-1.4-1q-0.7-0.7-1-1.5q-0.3-0.8-0.3-1.7z"/>
	<path id="Layer" class="s3" d="m514 363.5h-381q-0.4 0-0.7-0.3q-0.3-0.3-0.3-0.7q0-0.4 0.3-0.7q0.3-0.3 0.7-0.3h381q0.4 0 0.7 0.3q0.3 0.3 0.3 0.7q0 0.4-0.3 0.7q-0.3 0.3-0.7 0.3z"/>
	<circle id="Layer" class="s4" cx="331.1" cy="205.5" r="27"/>
	<path id="Layer" class="s5" d="m305.4 378.8l-0.7-12.2l46.9-8.6l1 18.1l-47.2 2.7z"/>
	<path id="Layer" class="s4" d="m307.7 357.6l1.4 23.6l-14.9 0.9l-2.3-38.5c2-0.1 4 0.2 5.8 0.8c1.8 0.7 3.5 1.7 5 3c1.5 1.3 2.7 2.9 3.5 4.6c0.9 1.8 1.4 3.7 1.5 5.6z"/>
	<path id="Layer" class="s5" d="m325.8 378.7l-7.8 9.5l-40.2-25.5l11.5-14l36.5 30z"/>
	<path id="Layer" class="s4" d="m309.7 392.7l15.1-18.2l11.5 9.4l-24.5 29.8c-1.5-1.3-2.8-2.8-3.7-4.5c-0.9-1.7-1.5-3.6-1.7-5.6c-0.2-1.9 0-3.9 0.6-5.8c0.6-1.8 1.5-3.6 2.7-5.1z"/>
	<path id="Layer" class="s4" d="m303.9 333.4q0.3-0.6 0.9-1q0.5-0.4 1.2-0.7q0.6-0.2 1.3-0.2h42.4q0.7 0 1.4 0.2q0.6 0.3 1.2 0.7q0.5 0.5 0.9 1.1q0.3 0.6 0.4 1.3l4.6 25.9q0.2 0.9-0.1 1.8q-0.2 0.8-0.8 1.5q-0.6 0.7-1.4 1.1q-0.8 0.3-1.7 0.3l-52.3-0.8q-0.9 0-1.7-0.4q-0.8-0.4-1.3-1.1q-0.6-0.7-0.8-1.6q-0.2-0.9 0-1.8l5.3-25q0.1-0.7 0.5-1.3z"/>
	<path id="Layer" class="s4" d="m313.1 359.5l10 9l-15 16l-41.4-20.2q-2.2-1.1-4.2-2.5q-2.1-1.3-3.9-3q-1.8-1.6-3.4-3.5q-1.6-1.8-2.9-3.9c-3.7-6.1-6.2-14.4-1.2-22.9c10-17 61 15 61 15z"/>
	<path id="Layer" class="s4" d="m338.1 338.5c0 0 66-19 53 17c-13 36-62 22-62 22l-5-15l17-12z"/>
	<circle id="Layer" class="s5" cx="331.4" cy="211.7" r="24.6"/>
	<path id="Layer" class="s2" d="m332.7 342.5q-3.8-0.1-7.7-0.4q-3.8-0.2-7.6-0.7q-3.8-0.5-7.5-1.3q-3.8-0.7-7.5-1.6l-0.3-0.1l-13.7-63c-0.6-2.8-0.7-5.6-0.3-8.4c0.4-2.8 1.3-5.5 2.7-7.9c1.4-2.5 3.2-4.7 5.3-6.5c2.1-1.8 4.6-3.2 7.3-4.2q6.1-2.2 12.6-3.4q6.4-1.2 12.9-1.3q6.6-0.1 13 0.8q6.5 0.9 12.8 2.9c2.7 0.9 5.3 2.3 7.6 4.2c2.3 1.8 4.2 4.1 5.6 6.6c1.4 2.6 2.4 5.4 2.8 8.3c0.4 2.9 0.3 5.8-0.4 8.7l-15.3 63.1l-0.2 0.2c-6.4 3-14.3 4-22.1 4z"/>
	<path id="Layer" class="s5" d="m314.3 347.4c0.5-1.4 1.3-2.7 2.3-3.7c1-1.1 2.3-1.9 3.7-2.4c1.4-0.5 2.8-0.7 4.3-0.5c1.5 0.1 2.9 0.5 4.1 1.3l27-23.5l2.5 18.4l-26 19.5c-1.4 2-3.5 3.5-5.9 4.1c-2.4 0.7-4.9 0.4-7.1-0.7c-2.2-1.2-3.9-3-4.8-5.4c-0.9-2.3-1-4.8-0.1-7.1z"/>
	<path id="Layer" class="s2" d="m340 352.5q-0.2 0-0.3 0q-0.2 0-0.3-0.1q-0.2 0-0.4 0q-0.1-0.1-0.3-0.1q-0.5-0.2-1-0.4q-0.4-0.3-0.8-0.7q-0.4-0.3-0.7-0.8q-0.3-0.4-0.4-0.9l-3.3-9.3q-0.2-0.6-0.3-1.3q0-0.7 0.2-1.3q0.2-0.7 0.5-1.2q0.4-0.6 0.9-1.1l36.8-22l-14.5-64.7l0.3-0.1c0.2 0 15-3.4 21.1 12.8c4.3 11.4 20.1 36.1 18.9 52.8c-0.1 1.7-0.4 3.3-1.1 4.8c-0.6 1.6-1.5 3-2.6 4.2c-1.1 1.2-2.5 2.3-3.9 3.1c-1.5 0.8-3 1.3-4.7 1.6l-41.4 23.7q-0.3 0.3-0.6 0.4q-0.3 0.2-0.6 0.3q-0.4 0.2-0.8 0.2q-0.3 0.1-0.7 0.1z"/>
	<path id="Layer" class="s5" d="m344.1 352.4c-1 2.3-2.7 4.2-4.9 5.3c-2.2 1.1-4.7 1.4-7.1 0.7c-2.4-0.6-4.5-2.1-5.9-4.1l-26-19.5l2.5-18.4l27 23.5c1.2-0.8 2.7-1.2 4.1-1.3c1.5-0.2 3 0 4.3 0.5c1.4 0.5 2.7 1.3 3.7 2.4c1 1 1.8 2.3 2.3 3.7c0.9 2.3 0.9 4.9 0 7.2z"/>
	<path id="Layer" class="s2" d="m321.1 352.5q-0.4 0-0.7-0.1q-0.4 0-0.7-0.2q-0.4-0.1-0.7-0.3q-0.3-0.1-0.6-0.4l-44.4-21.7c-1.6-0.3-3.2-0.8-4.7-1.6c-1.4-0.8-2.7-1.9-3.9-3.1c-1.1-1.2-2-2.6-2.6-4.2c-0.6-1.5-1-3.1-1.1-4.8c-1.1-16.7 17.6-43.4 21.9-54.8c6.1-16.2 20.9-12.8 21.1-12.8l0.3 0.1l-17.4 66.7l39.7 20q0.5 0.5 0.9 1.1q0.4 0.5 0.5 1.2q0.2 0.6 0.2 1.3q0 0.7-0.3 1.3l-3.2 9.3q-0.2 0.5-0.5 0.9q-0.3 0.5-0.7 0.8q-0.4 0.4-0.8 0.7q-0.5 0.2-1 0.4q-0.2 0-0.3 0.1q-0.2 0-0.3 0q-0.2 0.1-0.4 0.1q-0.1 0-0.3 0z"/>
	<path id="Layer" class="s6" d="m374.1 362.5h-89q-1.4 0-2.7-0.5q-1.3-0.6-2.3-1.6q-1-0.9-1.5-2.2q-0.5-1.3-0.5-2.7v-49q0-1.4 0.5-2.7q0.5-1.3 1.5-2.2q1-1 2.3-1.6q1.3-0.5 2.7-0.5h89q1.4 0 2.6 0.5q1.3 0.6 2.3 1.6q1 0.9 1.5 2.2q0.6 1.3 0.6 2.7v49q0 1.4-0.6 2.7q-0.5 1.3-1.5 2.2q-1 1-2.3 1.6q-1.2 0.5-2.6 0.5z"/>
	<circle id="Layer" class="s7" cx="329.6" cy="331" r="6"/>
	<path id="Layer" class="s4" d="m306.8 205.9c-1.4-7.6 3.2-15.6 10-19.3c6.8-3.8 15.2-3.7 22.5-1.1q1.3 0.3 2.5 0.9q1.1 0.5 2.2 1.2q1.1 0.7 2.1 1.6q1 0.8 1.9 1.8c2.1 2.7 3.1 6.6 1.7 9.7c-1.4 3.1-4.7 4.9-8 5.3q-1.2 0.1-2.5 0q-1.2-0.1-2.5-0.3q-1.2-0.2-2.4-0.6q-1.2-0.3-2.3-0.8c-3.2-1.3-6.1-2.8-9.3-3.8c-3.8-1.2-8.1-1.5-11.6 0.3c-3.6 1.8-6 6.2-4.5 9.9"/>
	<path id="Layer" class="s0" d="m163.2 351.8q0.5-5.6 1.5-11.2q1-5 2.3-9.9q1.3-4.9 3.1-9.7q1.7-4.8 3.8-9.4q2.1-4.6 4.6-9q0.2-0.3 0.5-0.3q0.2-0.1 0.5 0q0.3 0.2 0.3 0.5q0.1 0.3 0 0.5q-2.8 4.9-5 10q-2.1 4.6-3.7 9.3q-1.7 4.7-3 9.5q-1.2 4.9-2.1 9.8q-0.9 4.9-1.3 9.9c-0.1 1-1.6 1-1.5 0z"/>
	<circle id="Layer" class="s6" cx="183.4" cy="296.3" r="9.4"/>
	<path id="Layer" class="s0" d="m164.7 352.1q0.3-3.7 1-7.3q0.6-3.3 1.4-6.4q0.9-3.2 2-6.3q1.1-3.1 2.5-6.1q1.4-3 3-5.9q0.1-0.1 0.3-0.2q0.2 0 0.4 0.1q0.1 0.1 0.2 0.3q0 0.1-0.1 0.3q-1.7 3.2-3.2 6.5q-1.3 2.9-2.4 6q-1.1 3.1-1.9 6.2q-0.8 3.1-1.4 6.3q-0.6 3.2-0.9 6.5c0 0.6-1 0.6-0.9 0z"/>
	<circle id="Layer" class="s6" cx="177.8" cy="316.1" r="6.1"/>
	<path id="Layer" class="s0" d="m163.6 352.1q-1.9-3.1-3.6-6.4q-1.6-2.9-2.8-5.9q-1.3-3.1-2.3-6.2q-1-3.1-1.8-6.4q-0.8-3.2-1.3-6.4q0-0.2 0.1-0.4q0.2-0.1 0.4-0.1q0.2-0.1 0.3 0.1q0.2 0.1 0.2 0.3q0.5 3.5 1.4 7.1q0.8 3.1 1.8 6.2q1.1 3.1 2.3 6q1.3 3 2.8 5.9q1.6 2.9 3.3 5.6c0.3 0.5-0.4 1.1-0.8 0.6z"/>
	<circle id="Layer" class="s6" cx="151.8" cy="315.6" r="6.1"/>
	<path id="Layer" class="s1" d="m145.7 356.9v-12q0-0.9 0.3-1.7q0.3-0.9 1-1.5q0.6-0.6 1.4-1q0.9-0.3 1.8-0.3h28q0.9 0 1.7 0.3q0.8 0.4 1.4 1q0.7 0.6 1 1.5q0.4 0.8 0.4 1.7v12q0 0.9-0.4 1.7q-0.3 0.8-1 1.5q-0.6 0.6-1.4 1q-0.8 0.3-1.7 0.3h-28q-0.9 0-1.8-0.3q-0.8-0.4-1.4-1q-0.7-0.7-1-1.5q-0.3-0.8-0.3-1.7z"/>
	<path id="Layer" class="s8" d="m446.4 370.9c0 6.6-5.3 9.6-11.9 9.6c-6.6 0-11.9-3-11.9-9.6c0-6.6 2.6-14.3 11.9-11.6c9.3-4 11.9 5 11.9 11.6z"/>
	<path id="Layer" class="s3" d="m433.9 362.4q-0.3 0-0.7-0.1q-0.3-0.2-0.5-0.4q-0.3-0.2-0.5-0.5q-0.1-0.3-0.2-0.7c-0.4-3.3-2.5-9.7-3.5-12.3q0-0.2 0-0.4q-0.1-0.2 0-0.4q0-0.2 0.1-0.4q0-0.2 0.2-0.4q0.2-0.3 0.5-0.5q0.4-0.1 0.8-0.2q0.3 0 0.7 0.1q0.4 0.2 0.6 0.4q0.1 0.2 0.2 0.3q0.1 0.2 0.2 0.3q0.1 0.2 0.1 0.4q0 0.1 0 0.3c-0.2 3.4 2.3 8.8 3.7 11.7q0.2 0.4 0.2 0.9q0 0.5-0.2 0.9q-0.2 0.4-0.6 0.7q-0.4 0.2-0.9 0.3q0 0 0 0q-0.1 0-0.1 0q0 0 0 0q-0.1 0-0.1 0z"/>
	<path id="Layer" class="s3" d="m432.9 357.7c0 0 0.5-7.7 3.7-10.7q0.2-0.2 0.4-0.3q0.2-0.2 0.5-0.3q0.2-0.1 0.4-0.2q0.3-0.1 0.5-0.2c5.2-1.3 8.5 5.6 4.3 9c-4.2 3.4-9.8 2.7-9.8 2.7z"/>
</svg>