<svg version="1.2" xmlns="http://www.w3.org/2000/svg" viewBox="0 0 1020 437" width="1020" height="437"><style>.A{fill:#ffb9b9}.B{fill:#ffb8b8}.C{fill:#2f2e41}.D{fill:#ccc}.E{opacity:.1}.F{fill:#e6e6e6}.G{fill:#3f3d56}.H{fill:#fff}.I{fill:#f2f2f2}.J{fill:#6c63ff}.K{fill:none;stroke:#666;stroke-width:3}</style><path class="A" d="m223.1 247.2c-0.5 1.1-1.1 2.2-2 3.1c-0.8 0.9-1.8 1.6-2.9 2.1c-1.1 0.5-2.3 0.9-3.6 0.9h0.1l-14.2 22.2l1.4 11.5l-11.4 10l-10.1 2.1l-2.2-2.6q-1.3-1.5-2.1-3.4q-0.8-1.8-1.1-3.8q-0.2-2 0.1-3.9q0.4-2 1.2-3.8l28.1-36.7c-0.4-2.7 0.3-5.4 2.1-7.5c1.7-2.1 4.2-3.4 6.9-3.6c2.7-0.2 5.3 0.8 7.3 2.7c2 1.8 3.1 4.4 3.1 7.1c0 1.2-0.3 2.5-0.7 3.6z"/><path class="B" d="m30 423l-4.5-17l63.3-25.7l6.7 25l-65.5 17.7z"/><path class="C" d="m14.7 431.7l-14.7-54.7l0.7-0.2c2.8-0.8 5.7-1 8.6-0.6c2.9 0.4 5.6 1.3 8.1 2.8c2.6 1.4 4.8 3.3 6.5 5.6c1.8 2.3 3.1 5 3.8 7.8l9.1 33.4z"/><path class="B" d="m117.3 420.3l-14.2-10.4l33.1-59.8l21 15.3l-39.9 54.9z"/><path class="C" d="m110.9 436.7l-45.9-33.4l0.4-0.6c1.7-2.3 3.9-4.3 6.4-5.8c2.4-1.5 5.2-2.5 8-3c2.9-0.4 5.8-0.3 8.6 0.4c2.9 0.6 5.5 1.9 7.9 3.6l28 20.3z"/><path class="C" d="m267.1 377.7l-41.7 20.8l-43.7-57.1l-64.5 43.7l-6.1-9.4l67.6-75.1c1.7-1.3 3.7-2.3 5.7-3c2.1-0.6 4.3-0.9 6.4-0.8c2.2 0.2 4.3 0.7 6.3 1.5c1.9 0.9 3.7 2.1 5.3 3.6l35.8 34.8z"/><path class="A" d="m242.2 367l-6 4.7l-49.1-16.8l-11.4-4.8c-3.1 2.7-7.5 3.1-11.1 1.2c-3.5-2-5.5-5.9-4.9-10c0.6-4 3.6-7.2 7.6-8.1c3.9-0.8 8 0.9 10.2 4.3l19 4.6l26.2 2z"/><path class="C" d="m285.9 416.7l-14.8 9.4h-17.4l-81.4-30.2l-119 21.5l-3.3-25.6l108.9-47.7l95.4 31.6l31.6 41z"/><circle class="A" cx="254.3" cy="227.1" r="26.2"/><path class="D" d="m322.2 331.8q0 5.9-0.5 11.8q-0.5 5.9-1.4 11.8q-0.9 5.8-2.3 11.6q-1.4 5.8-3.2 11.4l-2 6l-9.4 43.1l-10.1 2.6l-7.4-9.4l-14.8-10.7l-10.7-17.5l-9.2-15.4l-2.9-4.8l-10.1-50.4l-38.3-21.5l-12.8-2l2.7-7.4l11.4-15.5l11.4-1.3l3.4-2.7l2.7 1.3l14.8 5.8l48.1-20.4l7 1.2l24.2 20.2q2.3 6.2 4.1 12.7q1.7 6.4 2.9 13q1.2 6.5 1.8 13.2q0.6 6.6 0.6 13.3z"/><path class="E" d="m314.8 325.9l-25.5 16.9l-38.1 34.3l-2.9-4.8l-8.1-40.3h2l20.9-38.3l51.7 32.2z"/><path class="D" d="m263.1 289.6l51.7 32.3l-25.5 16.8l-41 37l-28.9-31.6l10.7-2.7l12.1-13.4l20.9-38.4z"/><path class="C" d="m233.9 207.6l-2.8 1.1q-0.7-0.4-1.1-1.1q-0.4-0.6-0.6-1.4q-0.1-0.8 0-1.5q0.2-0.8 0.6-1.5q0.1 0 0.1 0l-5.3-0.3c3.4-4.5 7.7-8.2 12.6-10.9c4.9-2.7 10.4-4.3 15.9-4.8c5.6-0.4 11.3 0.3 16.5 2.2c5.3 1.9 10.2 4.9 14.2 8.7c0.2-0.8 2.8 0.8 3.9 2.4c0.4-1.3 2.8 5.2 3.7 9.8c0.4-1.6 1.9 0.9 0.6 3.3c0.8-0.2 1.2 2 0.5 3.2c1-0.4 0.8 2.2-0.2 3.9c1.3-0.1-0.1 27.4-20.1 25.4c-1.4-6.4-1-6-2.6-14.3c-0.8-0.8-1.6-1.5-2.5-2.2l-4.5-4c-5.2-4.7-10-10.4-17-12.1c-4.8-1.2-7.8-1.5-5.2-6.9c-2.4 1-4.6 2.5-7 3.4c0-0.8 0.4-1.6 0.3-2.4z"/><circle class="A" cx="267.4" cy="230.2" r="4.7"/><path class="F" d="m46.6 140.6l1.4-21.6l21.6 1.5l-1.5 21.5z"/><path fill-rule="evenodd" class="D" d="m34.1 130.5l26.2 1.7l-1.8 26.2l-26.2-1.7zm25 2.8l-23.9-1.6l-1.6 23.9l23.9 1.6z"/><path class="F" d="m148.7 59.6l21.1-4.5l4.6 21.1l-21.1 4.6z"/><path fill-rule="evenodd" class="D" d="m155 44.9l5.5 25.6l-25.6 5.5l-5.5-25.6zm4.1 24.7l-5-23.4l-23.4 5.1l5 23.4z"/><path class="F" d="m131.9 171.3l15.7-14.8l14.8 15.8l-15.7 14.8z"/><path fill-rule="evenodd" class="D" d="m163.6 154.3l-19.2 18l-17.9-19.2l19.1-17.9zm-19.1 16.3l17.5-16.4l-16.4-17.5l-17.5 16.4z"/><path class="G" d="m970 1.3c2.1 0.9 4.1 2.2 5.7 3.9c1.7 1.6 3 3.5 3.8 5.7c0.9 2.1 1.4 4.4 1.4 6.7v356.3c0 2.3-0.5 4.6-1.4 6.7c-0.8 2.1-2.1 4.1-3.8 5.7c-1.6 1.6-3.6 2.9-5.7 3.8c-2.1 0.9-4.4 1.3-6.7 1.3h-639.4c-2.3 0-4.6-0.4-6.7-1.3c-2.2-0.9-4.1-2.2-5.7-3.8c-1.7-1.6-3-3.6-3.9-5.7c-0.8-2.1-1.3-4.4-1.3-6.7v-356.3c0-2.3 0.5-4.6 1.3-6.7c0.9-2.2 2.2-4.1 3.9-5.7c1.6-1.7 3.5-3 5.7-3.9c2.1-0.8 4.4-1.3 6.7-1.3h639.4c2.3 0 4.6 0.5 6.7 1.3z"/><path class="H" d="m329.9 31.1h627.4v353.9h-627.4z"/><circle class="H" cx="643" cy="15" r="6.4"/><path class="I" d="m778.9 502h-448v-353.9l448 353.9z"/><path class="G" d="m698 148.6h169.5v5.3h-169.5z"/><path class="G" d="m698 169.2h169.5v5.3h-169.5z"/><path class="G" d="m698 189.9h169.5v5.2h-169.5z"/><path class="J" d="m888.4 52.3h24.5v24.5h-24.5z"/><path fill-rule="evenodd" class="D" d="m924.3 88.1h-29.8v-29.7h29.8zm-28.5-1.3h27.2v-27.1h-27.2z"/><path class="G" d="m1006.5 380.2c2.6 1 4.9 2.6 6.8 4.5c2 2 3.5 4.3 4.6 6.8c1 2.6 1.6 5.3 1.6 8.1v9.5c0 2.7-0.6 5.5-1.6 8c-1.1 2.5-2.6 4.9-4.6 6.8c-1.9 2-4.2 3.5-6.8 4.6c-2.5 1-5.3 1.6-8 1.6h-698c-2.8 0-5.5-0.6-8.1-1.6c-2.5-1.1-4.8-2.6-6.8-4.6c-1.9-1.9-3.5-4.3-4.5-6.8c-1.1-2.5-1.6-5.3-1.6-8v-9.5c0-2.8 0.5-5.5 1.6-8.1c1-2.5 2.6-4.8 4.5-6.8c2-1.9 4.3-3.5 6.8-4.5c2.6-1.1 5.3-1.6 8.1-1.6h40.2v-4.4q0-0.2 0.1-0.4q0-0.1 0.2-0.3q0.1-0.1 0.3-0.1q0.1-0.1 0.3-0.1h21q0.2 0 0.3 0.1q0.2 0 0.3 0.1q0.1 0.2 0.2 0.3q0.1 0.2 0.1 0.4v4.4h13.1v-4.4q0-0.2 0-0.4q0.1-0.1 0.2-0.3q0.2-0.1 0.3-0.1q0.2-0.1 0.4-0.1h20.9q0.2 0 0.4 0.1q0.1 0 0.3 0.1q0.1 0.2 0.2 0.3q0 0.2 0 0.4v4.4h13.1v-4.4q0-0.2 0.1-0.4q0.1-0.1 0.2-0.3q0.1-0.1 0.3-0.1q0.1-0.1 0.3-0.1h21q0.2 0 0.3 0.1q0.2 0 0.3 0.1q0.1 0.2 0.2 0.3q0.1 0.2 0.1 0.4v4.4h13.1v-4.4q0-0.2 0.1-0.4q0-0.1 0.2-0.3q0.1-0.1 0.2-0.1q0.2-0.1 0.4-0.1h21q0.1 0 0.3 0.1q0.2 0 0.3 0.1q0.1 0.2 0.2 0.3q0 0.2 0 0.4v4.4h13.2v-4.4q0-0.2 0-0.4q0.1-0.1 0.2-0.3q0.1-0.1 0.3-0.1q0.2-0.1 0.3-0.1h21q0.2 0 0.4 0.1q0.1 0 0.3 0.1q0.1 0.2 0.1 0.3q0.1 0.2 0.1 0.4v4.4h13.1v-4.4q0-0.2 0.1-0.4q0.1-0.1 0.2-0.3q0.1-0.1 0.3-0.1q0.1-0.1 0.3-0.1h21q0.2 0 0.3 0.1q0.2 0 0.3 0.1q0.1 0.2 0.2 0.3q0.1 0.2 0.1 0.4v4.4h13.1v-4.4q0-0.2 0.1-0.4q0-0.1 0.1-0.3q0.2-0.1 0.3-0.1q0.2-0.1 0.4-0.1h164.4q0.2 0 0.3 0.1q0.2 0 0.3 0.1q0.2 0.2 0.2 0.3q0.1 0.2 0.1 0.4v4.4h13.1v-4.4q0-0.2 0.1-0.4q0-0.1 0.2-0.3q0.1-0.1 0.2-0.1q0.2-0.1 0.4-0.1h21q0.1 0 0.3 0.1q0.2 0 0.3 0.1q0.1 0.2 0.2 0.3q0 0.2 0 0.4v4.4h13.2v-4.4q0-0.2 0-0.4q0.1-0.1 0.2-0.3q0.1-0.1 0.3-0.1q0.2-0.1 0.3-0.1h21q0.2 0 0.4 0.1q0.1 0 0.3 0.1q0.1 0.2 0.1 0.3q0.1 0.2 0.1 0.4v4.4h13.1v-4.4q0-0.2 0.1-0.4q0.1-0.1 0.2-0.3q0.1-0.1 0.3-0.1q0.1-0.1 0.3-0.1h21q0.2 0 0.3 0.1q0.2 0 0.3 0.1q0.1 0.2 0.2 0.3q0.1 0.2 0.1 0.4v4.4h13.1v-4.4q0-0.2 0.1-0.4q0-0.1 0.2-0.3q0.1-0.1 0.2-0.1q0.2-0.1 0.4-0.1h21q0.1 0 0.3 0.1q0.2 0 0.3 0.1q0.1 0.2 0.2 0.3q0 0.2 0 0.4v4.4h13.2v-4.4q0-0.2 0-0.4q0.1-0.1 0.2-0.3q0.1-0.1 0.3-0.1q0.2-0.1 0.3-0.1h21q0.2 0 0.4 0.1q0.1 0 0.2 0.1q0.2 0.2 0.2 0.3q0.1 0.2 0.1 0.4v4.4h13.1v-4.4q0-0.2 0.1-0.4q0.1-0.1 0.2-0.3q0.1-0.1 0.3-0.1q0.1-0.1 0.3-0.1h21q0.2 0 0.3 0.1q0.2 0 0.3 0.1q0.1 0.2 0.2 0.3q0.1 0.2 0.1 0.4v4.4h61.2c2.7 0 5.5 0.5 8 1.6z"/><path class="G" d="m820.5 92.2c0 6.8-1.8 13.5-5.2 19.4c-3.3 5.9-8.1 10.8-14 14.3c-5.8 3.5-12.4 5.4-19.2 5.5c-6.8 0.2-13.5-1.4-19.5-4.6c-12.4-6.7-20.3-19.6-20.6-33.7c-0.3-14.1 7-27.3 19.1-34.6c12.1-7.2 27.2-7.4 39.5-0.4c12.3 7 19.9 20 19.9 34.1z"/><circle class="H" cx="781.4" cy="79.7" r="10.7"/><path class="H" d="m799.6 112.4q-4.4 1.5-9 2.3q-4.7 0.8-9.4 0.8q-4.7-0.1-9.3-0.9q-4.6-0.8-9.1-2.4l8-15.7h21.3z"/><path class="F" d="m356 61h90v101.9h-90z"/><path class="H" d="m357.6 63.2h86.7v97.5h-86.7z"/><circle class="F" cx="401" cy="152.4" r="4.9"/><path class="F" d="m372.3 97.7h27.9v2.8h-27.9z"/><path class="J" d="m372.3 106.2h42.1v2.9h-42.1z"/><path class="F" d="m372.3 114.9h38v2.8h-38z"/><path class="J" d="m372.3 123.2h58.6v2.9h-58.6z"/><path class="F" d="m372.9 131.2h47.8v2.9h-47.8z"/><path fill-rule="evenodd" class="J" d="m404.9 69.7c1.2 0.5 2.4 1.3 3.3 2.3c1 0.9 1.8 2.1 2.3 3.3c0.5 1.3 0.8 2.6 0.8 4c0 4.1-2.5 7.9-6.4 9.5c-3.9 1.6-8.3 0.7-11.3-2.2c-2.9-3-3.8-7.4-2.2-11.3c1.6-3.8 5.4-6.4 9.5-6.4c1.4 0 2.7 0.3 4 0.8zm-5.1 2.6q-0.6 0.2-1.1 0.6q-0.4 0.5-0.6 1q-0.3 0.6-0.3 1.2c0 1.3 0.8 2.4 2 2.9c1.1 0.5 2.4 0.2 3.3-0.7c0.9-0.9 1.2-2.2 0.7-3.4c-0.5-1.1-1.6-1.9-2.9-1.9q-0.6 0-1.1 0.3zm2.9 14.4q0.9-0.2 1.7-0.6q0.9-0.5 1.5-1.1q0.7-0.6 1.2-1.4c0-2-4.1-3.2-6.2-3.2c-2 0-6.1 1.2-6.2 3.2q0.6 0.8 1.2 1.4q0.7 0.6 1.5 1.1q0.8 0.4 1.7 0.6q0.9 0.2 1.8 0.3q1-0.1 1.8-0.3z"/><path class="K" d="m527 295c-26.5 23.9-6-29.9-32 1c-26 30.9-42-70-42-70c0 0-6.5-53.9-18-39c-11.5 14.9-23 20.6-16-15c7-35.6-19-20-19-20"/><path class="K" d="m531 229"/></svg>