<svg version="1.2" xmlns="http://www.w3.org/2000/svg" viewBox="0 0 1177 874" width="1177" height="874"><style>.a{fill:#f2f2f2}.b{fill:#fff}.c{fill:#3f3d56}.d{fill:#ccc}.e{fill:#6c63ff}.f{fill:#a0616a}.g{fill:#2f2e41}</style><path class="a" d="m1052 757.6q-0.1 6.1-0.3 12.3-0.3 6.1-0.7 12.2-0.5 6.2-1.1 12.3-0.7 6.1-1.5 12.2-0.1 0.8-0.2 1.7l-153.5-0.9q-0.7-0.8-1.3-1.7-2.2-2.9-4-5.9c-5.9-9.9-8.7-21.4-5.9-29.3v-0.1q0.2-0.7 0.5-1.3 0.3-0.6 0.6-1.2 0.4-0.6 0.8-1.2 0.4-0.6 0.8-1.1c6.2-6.9 18.8-5.8 30.1-0.2-10.2-11.1-18.3-25.2-18.9-37.8-0.6-12.2 5.8-21 12.8-28.4q0.3-0.4 0.6-0.8 0.2-0.2 0.4-0.3c5.4-5.7 11.7-11.3 20.9-10.6 10 0.7 21.2 9.1 29 18.9 7.8 9.8 13 21 18.2 31.8 5.3 10.9 11 22 19.4 31.3-11.4-14.5-20.6-31-24-47-3.4-16-0.4-31.4 9.8-38.9q1.1-0.9 2.4-1.5 1.2-0.7 2.5-1.3 1.3-0.5 2.7-0.9 1.4-0.3 2.8-0.5 0.7-0.2 1.3-0.2c9.5-1.1 20.8 2.2 30.4 10 10.5 8.6 17.8 21.3 21.5 33.4 3.6 12.1 4 23.7 3.9 35z"/><path class="b" d="m951.6 807.7h-2.9q-1.4-0.9-2.8-1.7-0.9-0.6-1.8-1.1-14.6-8.9-29.4-17.1-14.8-8.2-29.7-15.6-0.2-0.1-0.3-0.3-0.2-0.1-0.3-0.3-0.1-0.2-0.1-0.4 0-0.2 0-0.4 0 0 0-0.1 0 0 0 0 0.1 0 0.1 0 0 0 0 0c0.1-0.3 0.4-0.4 0.9-0.2q1.8 0.9 3.6 1.9 15 7.5 29.8 15.9 14.8 8.3 29.5 17.3 0.3 0.2 0.6 0.4 1.4 0.9 2.8 1.7z"/><path class="b" d="m989.4 808l-1.8-0.1q-0.6-0.8-1.2-1.7-14.4-20.2-28.8-40.4-23.6-33.1-47.2-66.2-0.1-0.1-0.1-0.1 0-0.1-0.1-0.1 0-0.1 0-0.1 0-0.1 0-0.1c-0.2-0.5 0.2-0.8 0.6-0.8q0.2 0 0.3 0.1 0.2 0.1 0.3 0.1 0.1 0.1 0.2 0.2 0.1 0.1 0.2 0.2 13.2 18.6 26.5 37.2 23.4 32.9 46.9 65.8 1.5 2.1 3 4.2 0.6 0.9 1.2 1.8z"/><path class="b" d="m1029.9 797.4q-0.2 4.6-0.6 9.1-0.1 0.8-0.2 1.7h-1.9q0.1-0.9 0.2-1.7c0.4-4.4 0.7-8.7 0.7-13.2q0.1-4.6-0.2-9.3-0.2-4.6-0.6-9.2-0.5-4.7-1.2-9.3-0.7-4.6-1.6-9.1-1-4.9-2.1-9.8-1.2-4.9-2.6-9.7-1.4-4.8-3-9.5-1.6-4.7-3.4-9.4-1.9-4.9-4-9.8-2.1-4.8-4.4-9.6-2.3-4.7-4.8-9.4-2.5-4.6-5.1-9.2-0.1 0-0.1-0.1-0.1-0.1-0.1-0.2 0-0.1 0-0.2 0-0.1 0-0.1c0.1-0.6 0.8-0.8 1.3-0.2q0.1 0 0.1 0 0.1 0.1 0.1 0.1 0 0.1 0.1 0.1 0 0.1 0 0.1 1.3 2.3 2.6 4.6 2.6 4.5 4.9 9.2 2.4 4.7 4.6 9.5 2.2 4.7 4.2 9.6 2 4.8 3.8 9.8 1.7 4.6 3.2 9.4 1.5 4.7 2.8 9.6 1.4 4.8 2.4 9.6 1.1 4.9 2 9.8 0.8 4.5 1.4 9.1 0.6 4.6 1 9.2 0.3 4.6 0.5 9.3 0.1 4.6 0 9.2z"/><path class="a" d="m751.9 781.3q0 3.3-0.1 6.5-0.1 3.2-0.4 6.4-0.2 3.2-0.6 6.4-0.3 3.2-0.7 6.3-0.1 0.5-0.2 0.9l-80.1-0.4q-0.4-0.5-0.7-0.9-1.2-1.5-2.1-3.1c-3.1-5.1-4.5-11.2-3.1-15.3v-0.1q0.1-0.3 0.3-0.6 0.1-0.4 0.3-0.7 0.2-0.3 0.4-0.6 0.2-0.3 0.4-0.6c3.3-3.6 9.8-3 15.8 0-5.4-5.9-9.6-13.2-9.9-19.8-0.4-6.4 3-11 6.6-14.9q0.2-0.2 0.4-0.4 0.1-0.1 0.2-0.2c2.8-2.9 6.1-5.8 10.9-5.5 5.2 0.4 11.1 4.8 15.1 9.9 4.1 5.1 6.8 10.9 9.6 16.6 2.7 5.7 5.7 11.5 10.1 16.4-6-7.6-10.8-16.2-12.6-24.6-1.7-8.4-0.2-16.4 5.2-20.3q0.6-0.5 1.2-0.8 0.7-0.4 1.3-0.7 0.7-0.2 1.5-0.4 0.7-0.2 1.4-0.3 0.4-0.1 0.7-0.1c4.9-0.6 10.8 1.1 15.9 5.2q2 1.7 3.7 3.7 1.7 2 3.1 4.2 1.5 2.2 2.6 4.6 1.1 2.4 1.8 5c1.9 6.3 2.1 12.4 2 18.2z"/><path class="b" d="m699.5 807.6l-1.5-0.1q-0.8-0.4-1.5-0.9-0.5-0.2-0.9-0.5-7.7-4.7-15.4-9-7.7-4.2-15.5-8.1-0.1-0.1-0.2-0.2-0.1 0-0.1-0.1-0.1-0.1-0.1-0.2 0-0.2 0-0.3 0 0 0 0 0 0 0 0 0 0 0 0 0 0 0.1 0c0-0.2 0.2-0.2 0.4-0.1q1 0.5 1.9 1 7.9 3.9 15.6 8.3 7.7 4.3 15.4 9.1 0.2 0.1 0.3 0.2 0.8 0.4 1.5 0.9z"/><path class="b" d="m719.3 807.7h-1q-0.3-0.5-0.6-0.9-7.6-10.6-15.1-21.2-12.3-17.3-24.7-34.6 0 0 0 0 0-0.1 0-0.1 0 0-0.1 0 0-0.1 0-0.1c0-0.2 0.1-0.4 0.4-0.4q0.1 0 0.1 0.1 0.1 0 0.2 0 0 0.1 0.1 0.1 0 0.1 0.1 0.2 6.9 9.7 13.8 19.3 12.3 17.3 24.6 34.5 0.7 1.1 1.5 2.2 0.3 0.4 0.7 0.9z"/><path class="b" d="m740.4 802.2q-0.1 2.4-0.3 4.7-0.1 0.4-0.1 0.9h-1q0.1-0.5 0.1-0.9c0.2-2.3 0.4-4.5 0.4-6.9q0-2.4-0.1-4.8-0.1-2.5-0.4-4.9-0.2-2.4-0.6-4.8-0.3-2.4-0.8-4.8-0.5-2.6-1.1-5.1-0.7-2.5-1.4-5-0.7-2.6-1.6-5-0.8-2.5-1.7-4.9-1-2.6-2.1-5.1-1.1-2.6-2.3-5.1-1.2-2.4-2.5-4.9-1.3-2.4-2.7-4.8 0 0 0-0.1-0.1 0-0.1-0.1 0 0 0 0 0-0.1 0-0.1c0.1-0.3 0.4-0.4 0.7-0.1q0 0 0.1 0 0 0 0 0.1 0 0 0 0 0 0 0.1 0 0.6 1.2 1.3 2.4 1.3 2.4 2.6 4.9 1.2 2.4 2.4 4.9 1.1 2.5 2.2 5 1 2.6 2 5.1 0.8 2.5 1.6 5 0.8 2.4 1.5 5 0.7 2.5 1.3 5 0.5 2.6 1 5.1 0.4 2.4 0.7 4.8 0.3 2.4 0.5 4.8 0.2 2.4 0.3 4.8 0 2.4 0 4.9z"/><path fill-rule="evenodd" class="c" d="m289 469.3h-150.3c-2.1 0-4.1-0.4-6-1.2-1.9-0.8-3.6-1.9-5.1-3.4-1.5-1.4-2.6-3.2-3.4-5.1-0.8-1.9-1.2-3.9-1.2-5.9v-180.6c0-2 0.4-4.1 1.2-6 0.8-1.9 1.9-3.6 3.4-5 1.5-1.5 3.2-2.6 5.1-3.4 1.9-0.8 3.9-1.2 6-1.2h150.3c2 0 4 0.4 5.9 1.2 1.9 0.8 3.7 1.9 5.1 3.4 1.5 1.4 2.6 3.1 3.4 5 0.8 1.9 1.2 4 1.2 6v180.6c0 2-0.4 4-1.2 5.9-0.8 1.9-1.9 3.7-3.4 5.1-1.4 1.5-3.2 2.6-5.1 3.4-1.9 0.8-3.9 1.2-5.9 1.2zm-150.3-209.8c-1.8 0-3.6 0.3-5.3 1-1.6 0.7-3.1 1.7-4.4 3-1.3 1.2-2.3 2.7-3 4.4-0.6 1.7-1 3.4-1 5.2v180.6c0 1.7 0.4 3.5 1 5.2 0.7 1.6 1.7 3.1 3 4.4 1.3 1.3 2.8 2.3 4.4 3 1.7 0.7 3.5 1 5.3 1h150.3c1.7 0 3.5-0.3 5.2-1 1.6-0.7 3.1-1.7 4.4-3 1.3-1.3 2.3-2.8 3-4.4 0.7-1.7 1-3.5 1-5.2v-180.6c0-1.8-0.3-3.5-1-5.2-0.7-1.7-1.7-3.2-3-4.4-1.3-1.3-2.8-2.3-4.4-3-1.7-0.7-3.5-1-5.2-1z"/><path class="d" d="m248.9 272.3h-70.2c-1.7 0-3.3-0.3-4.8-1-1.5-0.6-2.9-1.5-4.1-2.7-1.1-1.1-2-2.5-2.7-4-0.6-1.5-0.9-3.2-0.9-4.8v-2.7c0-1.6 0.3-3.2 0.9-4.8 0.7-1.5 1.6-2.8 2.7-4 1.2-1.2 2.6-2.1 4.1-2.7 1.5-0.6 3.1-1 4.8-1h70.2c1.7 0 3.3 0.4 4.8 1 1.5 0.6 2.9 1.5 4.1 2.7 1.1 1.2 2.1 2.5 2.7 4 0.6 1.6 0.9 3.2 0.9 4.8v2.7c0 1.6-0.3 3.3-0.9 4.8-0.6 1.5-1.6 2.9-2.7 4-1.2 1.2-2.6 2.1-4.1 2.7-1.5 0.7-3.1 1-4.8 1z"/><path class="e" d="m282.7 370.5h-137.8c-1.9 0-3.7-0.7-5-2.1-1.4-1.3-2.1-3.1-2.1-5 0-1.9 0.7-3.7 2.1-5 1.3-1.4 3.1-2.1 5-2.1h137.8c1.9 0 3.7 0.7 5.1 2.1 1.3 1.3 2 3.1 2 5 0 1.9-0.7 3.7-2 5-1.4 1.4-3.2 2.1-5.1 2.1z"/><path class="e" d="m282.7 400.7h-137.8c-1.9 0-3.7-0.7-5-2-1.4-1.4-2.1-3.2-2.1-5.1 0-1.9 0.7-3.7 2.1-5 1.3-1.3 3.1-2.1 5-2.1h137.8c1.9 0 3.7 0.8 5.1 2.1 1.3 1.3 2 3.1 2 5 0 1.9-0.7 3.7-2 5.1-1.4 1.3-3.2 2-5.1 2z"/><path class="e" d="m245.8 340.3h-64c-1.9 0-3.7-0.8-5-2.1-1.4-1.3-2.1-3.2-2.1-5 0-1.9 0.7-3.7 2.1-5.1 1.3-1.3 3.1-2.1 5-2.1h64c1.9 0 3.7 0.8 5.1 2.1 1.3 1.4 2 3.2 2 5.1 0 1.8-0.7 3.7-2 5-1.4 1.3-3.2 2.1-5.1 2.1z"/><path fill-rule="evenodd" class="c" d="m608.2 289.7h-150.3c-2 0-4.1-0.4-6-1.2-1.9-0.8-3.6-1.9-5.1-3.4-1.4-1.5-2.6-3.2-3.4-5.1-0.8-1.9-1.2-3.9-1.2-6v-180.5c0-2 0.4-4.1 1.2-6 0.8-1.9 2-3.6 3.4-5.1 1.5-1.4 3.2-2.6 5.1-3.4 1.9-0.8 4-1.2 6-1.2h150.3c2 0 4.1 0.4 6 1.2 1.9 0.8 3.6 2 5.1 3.4 1.4 1.5 2.6 3.2 3.4 5.1 0.8 1.9 1.2 4 1.2 6v180.5c0 2.1-0.4 4.1-1.2 6-0.8 1.9-2 3.6-3.4 5.1-1.5 1.5-3.2 2.6-5.1 3.4-1.9 0.8-4 1.2-6 1.2zm-150.3-209.9c-1.8 0-3.6 0.4-5.2 1.1-1.7 0.7-3.2 1.7-4.5 2.9-1.2 1.3-2.2 2.8-2.9 4.5-0.7 1.6-1.1 3.4-1.1 5.2v180.5c0 1.8 0.4 3.6 1.1 5.3 0.7 1.6 1.7 3.1 2.9 4.4 1.3 1.3 2.8 2.3 4.5 3 1.6 0.6 3.4 1 5.2 1h150.3c1.8 0 3.6-0.4 5.2-1 1.7-0.7 3.2-1.7 4.5-3 1.2-1.3 2.2-2.8 2.9-4.4 0.7-1.7 1.1-3.5 1.1-5.3v-180.5c0-1.8-0.4-3.6-1.1-5.2-0.7-1.7-1.7-3.2-2.9-4.5-1.3-1.2-2.8-2.2-4.5-2.9-1.6-0.7-3.4-1.1-5.2-1.1z"/><path class="d" d="m568.2 92.7h-70.3c-1.6 0-3.2-0.3-4.8-1-1.5-0.6-2.9-1.5-4-2.7-1.2-1.1-2.1-2.5-2.7-4-0.7-1.6-1-3.2-1-4.8v-2.7c0-1.6 0.3-3.3 1-4.8 0.6-1.5 1.5-2.9 2.7-4 1.1-1.2 2.5-2.1 4-2.7 1.6-0.7 3.2-1 4.8-1h70.3c1.6 0 3.2 0.3 4.8 1 1.5 0.6 2.9 1.5 4 2.7 1.2 1.1 2.1 2.5 2.7 4 0.7 1.5 1 3.2 1 4.8v2.7c0 1.6-0.3 3.2-1 4.8-0.6 1.5-1.5 2.9-2.7 4-1.1 1.2-2.5 2.1-4 2.7-1.6 0.7-3.2 1-4.8 1z"/><path class="e" d="m602 190.9h-137.9c-1.9 0-3.7-0.8-5-2.1-1.3-1.3-2.1-3.1-2.1-5 0-1.9 0.8-3.7 2.1-5.1 1.3-1.3 3.1-2 5-2h137.9c1.9 0 3.7 0.7 5 2 1.3 1.4 2.1 3.2 2.1 5.1 0 1.9-0.8 3.7-2.1 5-1.3 1.3-3.1 2.1-5 2.1z"/><path class="e" d="m602 221.1h-137.9c-1.9 0-3.7-0.7-5-2.1-1.3-1.3-2.1-3.1-2.1-5 0-1.9 0.8-3.7 2.1-5 1.3-1.4 3.1-2.1 5-2.1h137.9c1.9 0 3.7 0.7 5 2.1 1.3 1.3 2.1 3.1 2.1 5 0 1.9-0.8 3.7-2.1 5-1.3 1.4-3.1 2.1-5 2.1z"/><path class="e" d="m565.1 160.6h-64.1c-1.9 0.1-3.7-0.7-5-2-1.3-1.4-2.1-3.2-2.1-5.1 0-1.9 0.8-3.7 2.1-5 1.3-1.3 3.1-2.1 5-2.1h64.1c1.8 0 3.7 0.8 5 2.1 1.3 1.3 2.1 3.1 2.1 5 0 1.9-0.8 3.7-2.1 5.1-1.3 1.3-3.2 2-5 2z"/><path fill-rule="evenodd" class="c" d="m914.8 593.8l-132 72c-1.8 0.9-3.8 1.6-5.8 1.8-2.1 0.2-4.1 0-6.1-0.6-2-0.6-3.8-1.5-5.4-2.8-1.6-1.3-2.9-2.9-3.9-4.7l-86.4-158.5c-1-1.8-1.6-3.8-1.8-5.8-0.2-2.1-0.1-4.2 0.5-6.1 0.6-2 1.6-3.8 2.9-5.4 1.3-1.7 2.8-3 4.7-4l131.9-71.9c1.8-1 3.8-1.6 5.8-1.8 2.1-0.2 4.2 0 6.1 0.6 2 0.5 3.8 1.5 5.4 2.8 1.7 1.3 3 2.9 4 4.7l86.4 158.5c0.9 1.8 1.6 3.8 1.8 5.8 0.2 2.1 0 4.1-0.6 6.1-0.6 2-1.5 3.8-2.8 5.4-1.3 1.6-2.9 3-4.7 3.9zm-232.4-112.3c-1.6 0.8-3 2-4.1 3.4-1.1 1.4-2 3-2.5 4.7-0.5 1.8-0.6 3.6-0.4 5.3 0.1 1.8 0.7 3.6 1.5 5.1l86.4 158.5c0.9 1.6 2.1 3 3.4 4.1 1.4 1.2 3 2 4.8 2.5 1.7 0.5 3.5 0.7 5.3 0.5 1.8-0.2 3.5-0.7 5.1-1.6l131.9-71.9c1.6-0.9 3-2 4.1-3.4 1.2-1.4 2-3 2.5-4.8 0.5-1.7 0.7-3.5 0.5-5.3-0.2-1.8-0.7-3.5-1.6-5.1l-86.4-158.5c-0.8-1.5-2-2.9-3.4-4.1-1.4-1.1-3-1.9-4.7-2.4-1.8-0.5-3.6-0.7-5.3-0.5-1.8 0.2-3.6 0.7-5.1 1.6z"/><path class="d" d="m785.4 440l-61.7 33.6c-1.5 0.8-3 1.3-4.7 1.5-1.6 0.1-3.3 0-4.8-0.5-1.6-0.4-3.1-1.2-4.3-2.2-1.3-1.1-2.4-2.3-3.2-3.8l-1.3-2.3c-0.7-1.5-1.2-3.1-1.4-4.7-0.2-1.6 0-3.3 0.4-4.8 0.5-1.6 1.3-3.1 2.3-4.4 1-1.2 2.3-2.3 3.7-3.1l61.7-33.6c1.5-0.8 3.1-1.3 4.7-1.5 1.6-0.1 3.3 0 4.8 0.5 1.6 0.4 3.1 1.2 4.4 2.2 1.2 1.1 2.3 2.3 3.1 3.8l1.3 2.3c0.8 1.5 1.2 3.1 1.4 4.7 0.2 1.6 0 3.3-0.4 4.8-0.5 1.6-1.3 3.1-2.3 4.4-1 1.2-2.3 2.3-3.7 3.1z"/><path class="d" d="m862 510.1l-121 65.9c-1.6 0.9-3.6 1.1-5.4 0.6-1.8-0.5-3.3-1.8-4.2-3.4-0.9-1.7-1.1-3.6-0.6-5.4 0.5-1.9 1.7-3.4 3.4-4.3l121-65.9c1.7-0.9 3.6-1.1 5.4-0.6 1.9 0.5 3.4 1.7 4.3 3.4 0.9 1.7 1.1 3.6 0.6 5.4-0.6 1.8-1.8 3.4-3.5 4.3z"/><path class="d" d="m876.5 536.6l-121 66c-1.7 0.9-3.6 1.1-5.4 0.5-1.8-0.5-3.4-1.7-4.3-3.4-0.9-1.6-1.1-3.6-0.5-5.4 0.5-1.8 1.7-3.3 3.4-4.2l121-66c1.7-0.9 3.6-1.1 5.4-0.6 1.8 0.6 3.3 1.8 4.2 3.5 1 1.6 1.2 3.6 0.6 5.4-0.5 1.8-1.7 3.3-3.4 4.2z"/><path class="d" d="m815.2 501.2l-56.3 30.6c-1.6 0.9-3.6 1.1-5.4 0.6-1.8-0.6-3.3-1.8-4.2-3.4-0.9-1.7-1.1-3.6-0.6-5.5 0.6-1.8 1.8-3.3 3.4-4.2l56.3-30.6c1.6-0.9 3.6-1.1 5.4-0.6 1.8 0.5 3.3 1.8 4.2 3.4 0.9 1.7 1.1 3.6 0.6 5.4-0.5 1.8-1.8 3.4-3.4 4.3z"/><path class="c" d="m331.9 269.3l70.3-40.8 1 1.7-70.3 40.8z"/><path class="c" d="m405.2 239.4l-10-17.2 19.9-0.1-9.9 17.3z"/><path class="c" d="m610.2 496.9q0 0-0.1 0 0 0-0.1 0-0.1 0-0.1 0-0.1 0-0.1-0.1l-270.2-138.7q-0.3-0.2-0.5-0.6-0.1-0.4 0.1-0.8 0.2-0.3 0.6-0.5 0.4-0.1 0.7 0.1l270.2 138.8q0.3 0.1 0.4 0.4 0.2 0.3 0.1 0.7-0.1 0.3-0.3 0.5-0.3 0.2-0.7 0.2z"/><path class="c" d="m603.1 503.5l9.1-17.8 10.8 16.8-19.9 1z"/><path class="f" d="m889 611.7c-1.4-0.7-2.7-1.7-3.6-2.9-1-1.3-1.7-2.7-2.1-4.2-0.4-1.6-0.4-3.1-0.1-4.7 0.3-1.5 1-3 1.9-4.2l-8-78.6h17.4l6.3 76.7c2.1 1.7 3.4 4.1 3.7 6.7 0.4 2.7-0.2 5.3-1.7 7.5-1.4 2.2-3.6 3.8-6.2 4.5-2.6 0.7-5.3 0.4-7.6-0.8z"/><circle class="f" cx="873" cy="449.2" r="24.6"/><path class="e" d="m867.4 562.8l-36.6-8q-0.7-0.2-1.4-0.6-0.6-0.4-1.1-0.9-0.5-0.6-0.7-1.3-0.3-0.7-0.3-1.4c-0.5-8.2-0.8-29.4 5.5-49.1 1.2-3.8 3.2-7.3 5.8-10.3 2.6-3 5.8-5.5 9.3-7.3 3.6-1.7 7.5-2.8 11.5-3 3.9-0.2 7.9 0.3 11.7 1.6 3.9 1.4 7.5 3.6 10.6 6.5 3 2.9 5.4 6.4 7 10.3 1.6 3.9 2.4 8.1 2.2 12.2-0.1 4.2-1.1 8.4-2.9 12.1-8.2 16.7-13.3 28.8-15.3 36q-0.2 0.8-0.7 1.5-0.5 0.7-1.3 1.1-0.7 0.5-1.6 0.6-0.8 0.1-1.7 0z"/><path class="f" d="m832.9 796.1h-12.2l-5.9-47.3h18.1v47.3z"/><path class="g" d="m811.9 792.6h23.6v14.9h-38.5c0-2 0.4-3.9 1.1-5.7 0.8-1.8 1.9-3.5 3.3-4.9 1.4-1.3 3-2.4 4.8-3.2 1.8-0.7 3.7-1.1 5.7-1.1z"/><path class="f" d="m955.5 780.2l-10.7 5.9-27.9-38.6 15.8-8.7 22.8 41.4z"/><path class="g" d="m935.4 787.3l20.7-11.4 7.2 13-33.8 18.6c-0.9-1.7-1.5-3.6-1.7-5.6-0.2-1.9-0.1-3.9 0.5-5.7 0.5-1.9 1.4-3.7 2.7-5.2 1.2-1.5 2.7-2.8 4.4-3.7z"/><path class="g" d="m833.1 769.8l-18.8-1.4q-0.8-0.1-1.6-0.4-0.7-0.3-1.2-0.9-0.6-0.5-1-1.3-0.3-0.7-0.4-1.5c-2.7-28-14.5-170.2 17.5-214v-0.1h0.2c0.3-0.2 28.7-10.3 45.1 8.3q0.4 0.4 0.6 1 0.3 0.5 0.4 1.1 0.1 0.5 0.1 1.1-0.1 0.6-0.3 1.2l-0.6 1.8q-0.1 0.4-0.2 0.9 0 0.4 0.1 0.8 0 0.4 0.2 0.8 0.2 0.4 0.4 0.7c4.5 6.1 19.8 29.7 25.8 76.1q0 0.2 0 0.3 0 0.1 0.1 0.2 0 0.1 0 0.2 0.1 0.1 0.1 0.2l44.3 108.7q0.3 0.9 0.3 1.8 0 0.9-0.4 1.7-0.3 0.9-1 1.5-0.6 0.6-1.5 0.9l-13.9 5.4q-0.8 0.2-1.6 0.2-0.8 0-1.6-0.2-0.7-0.3-1.3-0.8-0.7-0.6-1.1-1.3l-63.9-115.9c-0.2-0.5-0.6-0.8-1.1-1.1-0.5-0.2-1-0.3-1.5-0.2-0.5 0.1-1 0.4-1.4 0.8-0.3 0.4-0.6 0.9-0.6 1.4l-15.4 118.1q-0.1 0.8-0.4 1.6-0.4 0.7-1 1.2-0.7 0.6-1.4 0.9-0.8 0.2-1.6 0.2-0.2 0-0.4 0z"/><path class="f" d="m777.6 477.7q0 0.3 0 0.5 0.1 0.2 0.1 0.4 0 0.2 0.1 0.4 0 0.2 0 0.4l42.9 24.8 10.5-6 11.1 14.5-17.4 12.5q-1.1 0.7-2.3 1.1-1.3 0.4-2.6 0.4-1.3-0.1-2.5-0.5-1.2-0.5-2.2-1.3l-44.3-34.9c-4.1 1.5-8.7 0.3-11.6-3-2.9-3.3-3.4-8-1.3-11.8 2-3.9 6.3-6 10.6-5.5 4.3 0.6 7.9 3.8 8.9 8z"/><path class="e" d="m821.3 501.7q0.1-0.5 0.3-0.9 0.2-0.5 0.5-0.9 0.3-0.4 0.7-0.7 0.3-0.3 0.7-0.5l19.8-11.1c2.6-2 5.9-2.9 9.2-2.5 3.3 0.5 6.2 2.2 8.3 4.8 2 2.6 2.9 5.9 2.5 9.2-0.4 3.3-2.1 6.3-4.7 8.3l-15.7 16.3q-0.7 0.7-1.6 1.1-0.9 0.3-1.9 0.3-1-0.1-1.9-0.5-0.8-0.5-1.4-1.3l-13.9-18q-0.3-0.3-0.5-0.8-0.2-0.4-0.3-0.9-0.1-0.5-0.2-0.9 0-0.5 0.1-1z"/><path class="e" d="m872.4 535.7q-0.4-0.3-0.7-0.7-0.3-0.4-0.5-0.8-0.3-0.5-0.4-0.9-0.1-0.5-0.1-1l-0.7-22.6c-0.6-3.2 0.1-6.6 2-9.3 1.9-2.7 4.8-4.6 8-5.2 3.3-0.6 6.6 0.2 9.4 2 2.7 1.9 4.6 4.8 5.2 8l7.2 21.5q0.3 0.9 0.2 1.9-0.1 1-0.6 1.8-0.5 0.9-1.3 1.4-0.8 0.6-1.7 0.8l-22.4 4q-0.5 0.1-1 0.1-0.5 0-0.9-0.2-0.5-0.1-0.9-0.3-0.5-0.2-0.8-0.5z"/><path class="g" d="m869.1 443.6c-6.3 4.3-14.6 8.7-21 4.1-4.2-3-5.6-8.6-3.9-13.5 3.1-8.8 11.6-12.7 19.7-15.7 10.6-3.9 22.1-6.9 32.9-4.2 10.9 2.8 20.5 13.3 18.6 24.4-1.6 8.9-10 16.3-8.8 25.3 1.2 9 11.3 13.7 20.3 15.3 8.9 1.6 18.9 2.1 25.4 8.6 8.2 8.2 6.1 22.8-1.6 31.5-7.7 8.6-19.4 12.6-30.6 15.2-15 3.6-31.2 5.4-45.4-0.4-14.2-5.9-25.2-21.7-21.1-36.5 1.7-6.3 5.8-11.5 9.8-16.7 3.9-5.1 7.9-10.5 9.4-16.8 1.3-5.3 0.4-11.4-3.1-15.3q-0.5-0.6-0.8-1.2-0.3-0.6-0.4-1.3 0-0.7 0.1-1.4 0.1-0.7 0.5-1.3z"/><path class="c" d="m1049.3 808.5h-381q-0.4 0-0.7-0.3-0.3-0.3-0.3-0.7 0-0.4 0.3-0.7 0.3-0.3 0.7-0.3h381q0.4 0 0.7 0.3 0.3 0.3 0.3 0.7 0 0.4-0.3 0.7-0.3 0.3-0.7 0.3z"/></svg>