<svg version="1.2" xmlns="http://www.w3.org/2000/svg" viewBox="0 0 1177 874" width="1177" height="874"><style>.a{fill:#e0e0e0}.b{opacity:.8;fill:none;stroke:#6c63ff;stroke-width:2}.c{fill:#6c63ff}</style><path class="a" d="m318.7 251.5q-0.5-0.6-0.9-1.4-0.4-0.7-0.7-1.4-0.3-0.8-0.5-1.6-0.2-0.8-0.4-1.6c-0.2-2.1 0.9-4.6 2.9-5.3 1.3-0.5 3.2-0.3 3.7-1.6 0.5-1.2-0.6-2.5-0.6-3.9 0.1-2.3 3.5-2.6 5.8-2.2l39.1 7.2q0.2 0 0.5 0.1 0.2 0 0.5 0.1 0.2 0.1 0.4 0.2 0.2 0.1 0.4 0.2c1.6 1.2 0.9 3.6 1 5.6 0.2 2.9 2.6 5.1 3.8 7.8 1.2 2.6 0.1 6.9-2.8 6.6-2.2-0.3-3.2-3-5.3-3.8-2.1-0.8-4.5 0.9-5.4 3-0.8 2.1-0.5 4.4-0.2 6.7q-5.1-2.8-10.4-5.1-0.9-0.4-1.8-0.8-0.9-0.3-1.8-0.6-0.9-0.3-1.8-0.5-1-0.2-1.9-0.3-0.4 0-0.7 0-0.4 0-0.7-0.1-0.4-0.1-0.7-0.2-0.3-0.1-0.6-0.3c-2.1-1.4-0.7-4.6 1-6.4 1.7-1.9 3.7-4.4 2.4-6.5q-4-0.3-8 0.4-4 0.6-7.8 2.1-3.7 1.5-7.1 3.7-3.3 2.3-6.1 5.3-0.2 0.1-0.3 0.3-0.1 0.1-0.3 0.3-0.1 0.2-0.1 0.4-0.1 0.2-0.2 0.4c-0.2 1.7 2.4 2.5 2.7 4.2q0.1 0.5-0.1 1-0.1 0.4-0.4 0.8-0.3 0.3-0.7 0.6-0.4 0.2-0.9 0.2-0.5 0.1-0.9 0.1-0.5 0-1-0.1-0.4-0.1-0.9-0.2-0.4-0.2-0.9-0.4l-10.2-3.6q-0.3-0.1-0.6-0.2-0.4-0.1-0.7-0.1-0.3-0.1-0.7-0.1-0.3 0-0.6 0.1c-1.4 0.5-1.9 2.1-2.9 3.2-1.8 2.1-5 2-7.8 2.4q-2.3 0.3-4.5 1.3-2.2 1-4 2.5-1.8 1.5-3.2 3.5-1.3 1.9-2.1 4.2-0.2 0.5-0.4 1-0.1 0.5-0.1 1.1 0 0.5 0.1 1.1 0 0.5 0.2 1 0.2 0.4 0.5 0.8 0.3 0.4 0.6 0.8 0.3 0.3 0.7 0.6 0.3 0.3 0.7 0.5 0.8 0.6 1.7 1.1 0.8 0.5 1.6 1 0.9 0.5 1.8 0.9 0.9 0.5 1.8 0.8 0.8 0.3 1.6 0.6 0.8 0.4 1.5 0.7 0.8 0.4 1.6 0.8 0.7 0.5 1.4 0.9 1.4 1.1 2.3 2.6 0.9 1.5 1.3 3.2 0.4 1.7 0.2 3.4-0.2 1.7-1 3.3c2.1 2 5.7 0.5 7.4-1.8 1.7-2.3 2.5-5.3 4.3-7.5 3.5-4.1 10.1-4.7 12.9-9.2 2.6-4.1 0.9-9.6 1.9-14.4q0-0.2 0.1-0.5 0.1-0.3 0.2-0.5 0.2-0.2 0.3-0.4 0.2-0.2 0.5-0.4c0.9-0.4 1.9 0.3 2.9 0.7 3.9 1.5 7.6-3.4 11.8-3.5 4.6-0.2 7.2 5 10.4 8.2q1.3 1.3 2.9 2.3 1.6 0.9 3.3 1.5 1.8 0.5 3.7 0.7 1.8 0.1 3.6-0.2-0.7 1.6-0.9 3.5-0.2 1.8 0.2 3.6 0.3 1.9 1.2 3.5 0.9 1.6 2.2 2.9c1.5 1.4 3.4 2.6 4.1 4.5 1.4 4.5-5 8.5-3.9 13 1 3.9 6.5 4.7 8.4 8.3 2 3.8-1.8 8.5-6 9.2-4.3 0.7-8.4-1.3-12.2-3.3q-0.4-1.1-0.4-2.4-0.1-1.2 0.3-2.4 0.3-1.2 0.9-2.3 0.6-1.1 1.5-2c1.1-1 2.4-1.8 3.3-3 0.9-1.2 1-3.1-0.2-4q-0.3-0.1-0.6-0.2-0.3-0.2-0.6-0.2-0.3-0.1-0.6-0.1-0.3 0-0.6 0.1-2.8 0.1-5.5 0.4-2.8 0.3-5.5 0.8-2.7 0.4-5.4 1-2.7 0.6-5.3 1.3c-2.4 0.7-5.3 2.9-3.8 4.9 2.6-1.1 5.9 1.5 5.5 4.3-0.1 1.1-0.8 2.2-0.6 3.3 0.4 1.6 2.1 2.3 3.4 3.1 1.3 0.9 2.2 3.1 0.9 3.9-1 0.2-1.1-0.1-2.1 0.2-18.3 5.8-34.6 16.5-50.7 27.1q-0.4 0.2-0.7 0.5-0.3 0.2-0.7 0.5-0.3 0.3-0.5 0.6-0.3 0.4-0.5 0.7-0.2 0.4-0.3 0.9-0.1 0.4-0.2 0.8-0.1 0.4-0.1 0.9-0.1 0.4-0.1 0.8c-0.9 6-7.2 9.3-12.7 11.8-5.4 2.5-11.7 6.1-12.2 12.1-0.2 3.2 1.3 6.2 2 9.2 0.7 3.1 0.2 7-2.6 8.5-3.2 1.7-7.1-1-8.9-4.3-1.8-3.2-2.4-7-4.7-9.8q-0.6-0.7-1.3-1.3-0.8-0.6-1.6-1.1-0.8-0.5-1.6-0.8-0.9-0.4-1.8-0.6-1.1-0.2-2.2-0.2-1.1 0-2.1 0.2-1.1 0.3-2.1 0.8-0.9 0.5-1.7 1.2c-2.1 2.1-2.6 5.7-0.7 7.9-8.1-0.9-17.4-1.4-23.4 4.1-3.8 3.4-5.5 8.6-5.7 13.6-0.2 5.1 0.9 10.1 2 15 0.8 3.7 2.2 8 5.8 8.9 2.6 0.7 5.3-0.8 7-2.9 1.7-2 2.6-4.6 3.6-7 1.9-4.2 4.7-8.5 9.2-9.9 4.4-1.3 10.2 2.1 9.4 6.7-0.4 2.9-3.1 4.8-5.3 6.8-2.2 1.9-4.3 4.9-3.1 7.6 4.7-0.3 9.8 0.4 13.2 3.6q1.3 1.2 2.2 2.8 0.8 1.7 1 3.4 0.3 1.8-0.1 3.6-0.3 1.8-1.2 3.4c-0.6 1-0.9 2.2-1.1 3.4-0.1 1.2 0 2.4 0.4 3.5 0.4 1.2 0.9 2.2 1.7 3.2 0.8 0.9 1.8 1.6 2.9 2.1 1.9 0.9 4.2 0.9 6.2 1.5q1.3 0.4 2.4 0.9 1.1 0.6 2.1 1.4 1 0.8 1.8 1.7 0.9 1 1.5 2 1.9 0 3.7-0.6 1.8-0.6 3.3-1.7 1.5-1.2 2.5-2.7 1.1-1.5 1.7-3.3 0-0.5 0.2-1 0.1-0.5 0.2-1 0.2-0.5 0.4-0.9 0.2-0.5 0.4-1c1.9-3.2 6.6-2.7 10.3-1.9l20.5 4.9c5 1.2 10.4 2.5 13.8 6.4 2.1 2.4 3.4 5.7 6.1 7.5 2.6 1.7 6 1.5 9.2 2 2 0.4 4 1 5.9 2 1.8 1 3.5 2.2 5 3.7 1.4 1.5 2.7 3.2 3.6 5 1 1.9 1.7 3.9 2 5.9 0.5 2.7 0.6 5.8 2.7 7.4 2.5 1.7 6 0.2 9 0.6 5.4 0.5 8.7 6.6 14 7.8 3 0.7 6.4-0.2 9.1 1.3 2.9 1.6 3.9 5.5 6.6 7.6 2.9 2.2 7.4 1.7 10.2 4 2.9 2.5 2.9 7 2.7 10.8-0.3 3.6-0.6 7.2-1.8 10.6-3.3 8.5-13 15-11.9 24.1 0.4 3 2.1 5.7 3.1 8.6 1 2.9 1.3 6.4-0.7 8.7q-0.3 0.4-0.7 0.7-0.3 0.3-0.7 0.6-0.4 0.3-0.8 0.5-0.4 0.3-0.8 0.5l-18.9 10.8c-1.3 0.8-2.6 1.6-3.1 3q0 0.3-0.1 0.7 0 0.4 0 0.8 0 0.3 0.1 0.7 0.1 0.4 0.2 0.8c0.7 3.8 1 7.8-0.2 11.4-1.2 3.7-4.7 8.3-8.5 8.9q1.4 0.8 2.6 1.8 1.2 1 2.2 2.3 1 1.2 1.7 2.6 0.8 1.4 1.2 3-3.1 0.3-6.3 0.6-3.2 0.2-6.3 0.3-3.2 0.1-6.4 0.1-3.2 0-6.3-0.2c0 3 1.3 5.7 2.1 8.6 0.7 2.8 0.9 6.2-1.1 8.4-2.4 2.8-6.7 2.6-10.4 2.1 1.3 2.1 0.5 4.8-1 6.6q-0.7 0.7-1.4 1.2-0.7 0.6-1.4 1.1-0.8 0.5-1.6 0.9-0.8 0.4-1.6 0.7 0.9 0.5 1.6 1.3 0.7 0.8 1.1 1.7 0.5 1 0.6 2 0.1 1.1-0.1 2.1c-0.5 2.5-2.3 4.4-3.6 6.6-1.2 2.2-1.8 5.2-0.1 7 1.1 1.1 3 1.5 4 2.7 1.7 2.3-0.1 5.3-1 8-1.8 5.8 1.5 12.2 6.4 15.8 4.8 3.6 11 5 16.9 6.4 0 2.4-2.2 4.3-4.6 4.8-2.3 0.5-4.7-0.2-7-0.8l-12.1-3.4c-6.7-1.9-13.4-5-16.5-11.2 0.7-7.3-6-13-8.4-19.9-1.9-5.2-1.2-11.1-3.2-16.3-1.1-2.8-3-5.4-4.6-8q-2.3-4-3.7-8.3-1.4-4.3-1.8-8.9-0.5-4.5 0-9 0.6-4.6 2.1-8.9c2.1-6 5.6-11.7 5.4-18.1-0.2-8.9-7.6-16.2-9.3-25-0.7-3.5-0.4-7.5-2.5-10.5-1.6-2.3-4.3-3.6-6.7-4.9-8.1-4.4-16-11.1-17.2-20.2-0.6-4.2 0.3-8.6-1.5-12.5-1.6-3.6-5.2-5.8-8.3-8.4-3-2.6-5.7-6.4-4.7-10.2 0.5-2.1 2.1-3.7 2.6-5.8 0.4-1.6 0-3.4 0.2-5.1 1-7.8 12-11.2 13-18.9 0.6-4.3-1.5-8.9-0.8-13.2 0.4-2.5-2.1-4.6-4.5-5.2-2.4-0.5-5 0-7.5-0.2-8-0.6-14-7.5-17.7-14.6-1.5-2.8-2.9-5.9-5.7-7.4-4.3-2.5-10.4-0.3-14.2-3.5-1-1-1.8-2.2-2.9-3-4.1-2.9-10.1 1.7-14.4-0.7-1.5-0.8-2.6-2.4-4.1-3.3-1.9-1.1-4.3-1-6.4-1.8-3.2-1.2-5.2-4.4-6.9-7.5l-20.5-36.6q-0.4-0.6-0.7-1.2-0.3-0.6-0.6-1.2-0.3-0.6-0.5-1.3-0.2-0.6-0.3-1.3c-0.4-1.8-0.2-3.8-1.2-5.4-1.4-1.8-3.9-1.9-6.2-2q5.2 16.2 11.6 32c-3.4-0.6-5.5-3.9-7.2-6.9q-2.4-4.2-4.7-8.6-2.3-4.4-4.4-8.8-2.1-4.4-4.1-8.9-2-4.5-3.8-9.1c-2.7-6.6-2.1-13.2-2.1-20.3 0-4.1 3-7.6 6.4-10.1 3.3-2.4 7.1-4.3 9.7-7.5 5.2-6.1 4.3-16.5-1.9-21.6q0.2-1 0.6-2 0.3-1.1 0.8-2 0.5-1 1.2-1.8 0.6-0.9 1.3-1.7l5.9 7.5c2.1-0.3 2.6-3.3 1.5-5-1.2-1.8-3.2-2.6-4.9-3.9-1.7-1.2-3.1-3.4-2.2-5.3 0.3-0.7 0.8-1.2 1.2-1.8 1.2-2.4-1.2-5-3.2-6.9-1.9-1.8-3.7-5.2-1.6-6.9-1.8 0.8-3.3-1.7-3.2-3.7 0.1-1.9 0.5-4.3-1.1-5.4q-0.3-0.2-0.6-0.3-0.4-0.1-0.7-0.2-0.4 0-0.7-0.1-0.4 0-0.7 0.1-4.6 0.1-9.2 0.5-4.6 0.4-9.1 1.1-4.6 0.8-9.1 1.8-4.5 1-8.9 2.2c1.8 2.3-0.3 5.9-3 6.7-2.8 0.8-5.7-0.2-8.4-1.3-2.6-1.1-5.5-2.2-8.3-1.6-4.3 0.9-6.8 5.5-10.8 7.3 2.3-3.3 0.3-8.6-3.6-9.5l11.4-7.4q-0.7-0.8-1.5-1.7-0.7-0.8-1.4-1.8-0.6-0.9-1.3-1.8-0.6-0.9-1.2-1.9 3.1-1.4 6.3-2.6 3.3-1.3 6.5-2.3 3.3-1 6.7-1.7 3.3-0.8 6.7-1.4 0-1.3-0.3-2.5-0.4-1.3-1-2.4-0.7-1.1-1.6-2-0.9-0.9-2.1-1.6 2.1 0.6 4.3 1 2.1 0.4 4.3 0.6 2.1 0.2 4.3 0.2 2.2 0 4.3-0.1c-2.1-2.5-1.2-6.4 1-8.8 2.2-2.3 5.4-3.4 8.5-4.4q1.7-0.6 3.6-1.2 1.8-0.5 3.6-1 1.8-0.5 3.7-0.9 1.8-0.4 3.7-0.7c22.4-3.2 45.1 11.6 67.1 6.1 3.6-0.9 7-2.4 10.7-2.8 14.6-1.7 28.7 12.4 42.5 7.6 1.3-2.4-2.2-4.7-4.9-5-2.8-0.2-6.4-0.8-6.7-3.6-0.3-2.1 1.8-4.7 0.1-6.1q-0.2-0.1-0.4-0.2-0.3-0.1-0.5-0.2-0.3 0-0.5-0.1-0.3 0-0.6 0l-7.5-0.4c1.2-1.6 2.7-2.9 4.4-4.1 1.6-1.1 3.5-2 5.4-2.6 1.9-0.6 3.9-0.8 6-0.8 2 0.1 4 0.4 5.9 1.1 6 2.2 11 7.6 17.4 7.5q0.3 0 0.6 0 0.3 0 0.6 0 0.3 0 0.6 0.1 0.3 0 0.6 0.1c2.7 1.1 1.7 5.2-0.1 7.4q-1.1 1.2-2.3 2.3-1.2 1.1-2.6 2-1.3 0.9-2.8 1.6-1.5 0.7-3 1.2l14.1 2.2q0.8 0.2 1.6 0.3 0.8 0.1 1.6 0.1 0.8 0 1.6-0.1 0.8-0.1 1.6-0.2c2-0.6 3.9-2.4 4-4.5 0-1.9-1.3-4.1 0.1-5.5q0.2-0.2 0.5-0.4 0.2-0.1 0.5-0.2 0.3-0.2 0.6-0.2 0.3-0.1 0.7-0.1l10-1.5q0.3-0.1 0.5-0.1 0.3-0.1 0.5-0.1 0.3 0 0.5 0.1 0.3 0 0.5 0.1 0.4 0.2 0.7 0.4 0.3 0.3 0.6 0.6 0.2 0.3 0.4 0.7 0.2 0.3 0.3 0.7 0.4 1 0.8 2.1 0.3 1.1 0.6 2.1 0.3 1.1 0.5 2.2 0.2 1.1 0.3 2.2c2.6 1.1 6.4 1.3 9 2.3z"/><path class="a" d="m277.6 215.5q0.4 0.4 0.8 0.8 0.4 0.3 0.9 0.6 0.4 0.3 0.9 0.4 0.5 0.2 1 0.3 0.3 0 0.5 0.1 0.2 0 0.5 0.1 0.2 0.1 0.4 0.2 0.2 0 0.4 0.2 0.3 0.2 0.4 0.5 0.2 0.3 0.3 0.6 0.1 0.4 0.1 0.7 0.1 0.3 0 0.7c0 1.3 0 2.8-1 3.8q-0.4 0.3-0.9 0.5-0.5 0.2-1 0.3-0.6 0.1-1.1 0-0.5 0-1-0.3c-1.4-0.4-2.6-1.2-4-1.7q-0.8-0.2-1.6-0.4-0.9-0.1-1.7-0.1-0.9 0.1-1.7 0.2-0.8 0.2-1.6 0.5c-1.5 0.4-3.4 1-4.2-0.4-0.5-0.9 0-2 0.6-2.9q1.3-1.5 2.9-2.6 1.6-1.1 3.4-1.7 1.9-0.5 3.9-0.5 1.9 0 3.7 0.6"/><path class="a" d="m292.4 212.5q0.7 0.4 1.4 0.7 0.7 0.3 1.5 0.4 0.8 0.2 1.5 0.2 0.8 0 1.6-0.1-0.2 0.6-0.5 1.2-0.4 0.5-0.8 1-0.5 0.4-1.1 0.7-0.6 0.3-1.3 0.4-0.6 0.1-1.3 0.1-0.6 0-1.3 0-0.6-0.1-1.3-0.2-0.6-0.1-1.3-0.2-0.3-0.8-0.2-1.7 0-0.8 0.5-1.5 0.5-0.7 1.2-1.1 0.8-0.3 1.6-0.3"/><path class="a" d="m346.5 205.8c1.9 1.1 1.9 3.6 3.3 4.6 3.7 2.5 8.8-1.5 12.6-3.4q4-2 8.3-3.3 4.2-1.3 8.6-1.9 4.4-0.6 8.9-0.5 4.4 0.2 8.8 1c-0.1 3.1-4.1 4.2-7.2 4.5q-2.5 0.2-4.9 0.5-2.5 0.3-4.9 0.6-2.5 0.4-4.9 0.8-2.5 0.4-4.9 0.9-0.3 0-0.7 0.1-0.3 0.1-0.6 0.2-0.3 0.2-0.7 0.3-0.3 0.2-0.5 0.4c-1.5 1.2-1.4 3.6-2.6 5.1-3.2 4.4-12.1-1.1-15 3.5q-0.2 0.3-0.4 0.6-0.1 0.4-0.3 0.7-0.1 0.4-0.3 0.8-0.1 0.3-0.2 0.7-0.5 0.7-1.1 1.4-0.6 0.6-1.4 1.1-0.7 0.4-1.6 0.7-0.8 0.2-1.7 0.3-0.8 0-1.7 0-0.9-0.1-1.8-0.2-0.8-0.1-1.7-0.3-0.9-0.2-1.7-0.4c-1.2-0.3-2.7-0.8-3.2-1.9q0-0.4-0.1-0.7 0-0.3 0-0.6 0-0.3 0-0.6 0-0.3 0.1-0.6 0.1-1.6-0.3-3.2-0.4-1.6-1.3-2.9-0.8-1.4-2.1-2.4-1.2-1-2.7-1.6 1.6-0.8 3.2-1.4 1.6-0.7 3.3-1.3 1.7-0.5 3.4-1 1.7-0.5 3.4-0.8c2.1-0.5 4.7-0.9 6.6 0.2z"/><path class="a" d="m395.9 209c3.2-0.7 5.2-2.6 8-3.6 3.3-1.2 7.5-0.9 11-1.1q26.8-1.5 53.6-3c9.2-0.5 18.3-1 27.5-0.2 2.6 0.2 5.3 0.6 7.4 2.3 2 1.6 2.9 5 1.2 6.9-1.1 1.1-2.7 1.5-3.9 2.5-3.4 2.6-2.3 7.9-0.8 11.9l-20.8 3.9c-1.2 1.5-0.2 3.7 1.1 5.1 1.2 1.5 2.8 2.8 3 4.7 0.1 2.3-1.9 4.1-4 4.7-2.2 0.6-4.5 0.4-6.7 0.5-7.9 0.4-14.7 5.6-21.9 8.9-5.8 2.7-12.1 4.2-18.2 6-3.4 0.9-7.1 2.3-8.5 5.5-1.6 3.5 0.1 8.1-2.4 11.1-1.8 2.3-5.2 2.4-8.1 2.4-4.1-0.1-8.6-0.3-11.4-3.3q-0.5-0.6-0.9-1.3-0.5-0.7-0.9-1.4-0.3-0.8-0.6-1.6-0.3-0.7-0.5-1.5c-1.9-5.7-3.7-12.2-0.5-17.3 1.2-2 3.2-3.6 4.6-5.5 1.5-1.9 2.4-4.6 1.2-6.7-0.5-1-1.5-1.8-1.8-2.9-0.5-1.5 0.4-3.2 0.7-4.8 0.9-5.3-5.4-9.2-10.8-9.4-5.4-0.3-11 1.4-16.2-0.3-0.1-1 0.1-2 0.4-3 0.3-0.9 0.9-1.8 1.6-2.5 0.7-0.8 1.5-1.3 2.5-1.7 0.9-0.4 1.9-0.6 2.9-0.5l-5.5-1.1c5.4-3.3 11.8-2.4 17.7-3.7z"/><path class="a" d="m479.4 256.2q1.3-0.1 2.6-0.4 1.3-0.2 2.6-0.7 1.2-0.4 2.4-1c2.8-1.3 5.1-3 8.7-1.1 10.3 5.6-4.6 8.1-8.1 9.7-2.3 1-4.1 3.1-6.6 3.4q-0.8 0.1-1.5-0.1-0.8-0.1-1.5-0.4-0.6-0.4-1.2-0.9-0.6-0.5-1-1.1-0.4-0.6-0.7-1.3-0.3-0.7-0.5-1.5-0.1-0.7-0.1-1.5 0-0.8 0.1-1.5 0-0.2 0-0.4 0.1-0.1 0.1-0.3 0.1-0.1 0.2-0.3 0.1-0.1 0.2-0.3 0.2-0.1 0.4-0.2 0.2 0 0.4-0.1 0.2 0 0.4 0 0.2-0.1 0.4 0 1.3 0.1 2.7 0z"/><path class="a" d="m594.3 208.9c1.8 3.2-1.1 5.5-3.3 6.7-3 1.7-2.7-0.1-4.4 2.9-1.1 1.9 0.7 4.1-2.8 5.1q-0.6 0.1-1.3 0.1-0.6 0.1-1.2 0-0.6 0-1.2-0.1-0.7 0-1.3-0.2-0.2 0-0.4-0.1-0.2 0-0.4-0.1-0.3-0.1-0.5-0.2-0.1-0.1-0.3-0.3c-1.1-1-0.2-2.9-0.6-4.4-0.6-2-3.2-2.5-5.3-2.5l-4.9-0.2q-0.1 0-0.3 0-0.2 0-0.4 0-0.1 0-0.3-0.1-0.2 0-0.4-0.1-0.4-0.2-0.7-0.6-0.3-0.4-0.4-0.9-0.1-0.4-0.1-0.9 0.1-0.5 0.3-0.9 0.2-0.4 0.5-0.8 0.4-0.4 0.7-0.7 0.4-0.3 0.8-0.6 0.4-0.2 0.9-0.4c4.7-2.4 24-6.2 27.3-0.7z"/><path class="a" d="m671.1 209.8c-0.4 0.7-3.9 1.7-4.8 2.3-1.4 0.9-1.9 2.6-3.5 3.3-2.7 1-5.4-1.1-8.1-1.9q-0.6-0.1-1.2-0.2-0.6-0.1-1.2-0.2-0.6-0.1-1.1-0.2-0.6 0-1.2 0-1.1-0.2-2.1-0.3-1.1-0.2-2.1-0.5-1.1-0.2-2.1-0.6-1-0.3-2-0.7c6.1-1.9 12.6-2.8 19-3.6l2.8-0.4c2.5-0.3 10.8-2 7.6 3z"/><path class="a" d="m691 221c1.1 5.6-8.3 5.5-11.8 6.1-2.1 0.4-4.7 1.1-5.2 3.2-0.5 1.8 0.8 3.6 2 5.1 1.1 1.6 2.1 3.7 1 5.3l-9.1-3.9c-2.2-0.9-4.8-2.3-5-4.8-0.1-1.8 1.3-3.4 2.6-4.6q1.2-1.1 2.4-2.2 1.3-1 2.6-2 1.3-0.9 2.7-1.8 1.4-0.9 2.8-1.7c3.5-2 13.7-5.4 15 1.3z"/><path class="a" d="m682.3 579.2c1.7-4.5 2.1-8 5.2-11.6 1.7-2.1 5.6-9.2 7.3-10.1 6-3.3 6.1 6.9 5.4 10.2l-2.8 14.8q-0.2 1.4-0.5 2.9-0.3 1.5-0.7 2.9-0.4 1.4-0.9 2.9-0.5 1.4-1 2.8-0.4 0.9-0.9 1.7-0.5 0.9-1 1.7-0.5 0.8-1.1 1.6-0.6 0.7-1.3 1.5-0.7 0.8-1.5 1.6-0.8 0.7-1.8 1.3-0.9 0.6-1.9 1.1-1.1 0.4-2.1 0.7c-3 0.6-6.3-0.3-8-2.7-1.5-2.2-1.4-5.2-0.5-7.7 1.9-5.5 6-10.1 8.1-15.6z"/><path class="a" d="m991.2 671.3c1.8 1 4 0.6 5.9-0.1 1.9-0.7 3.8-1.6 5.8-1.8q0.1 0 0.2 0 0.1 0 0.3 0 0.1 0 0.2 0 0.1 0.1 0.2 0.1 0.2 0.1 0.4 0.3 0.1 0.1 0.2 0.3 0.1 0.2 0.1 0.4 0.1 0.3 0.1 0.5c0 2.3-2.3 3.9-4.3 5.1l-13.7 7.7q0.1-2 0.3-4.1 0.2-2 0.5-4 0.4-2 0.9-4 0.6-1.9 1.3-3.9 0.7 0.4 1.4 0.8 0.7 0.4 1.4 0.7 0.7 0.4 1.5 0.7 0.7 0.3 1.4 0.6"/><path class="a" d="m1078.5 670.5c3.6 0.8 3.5 4.7 0.9 7.1q-0.4 0.4-0.9 0.8-0.5 0.3-1 0.6-0.5 0.3-1 0.6-0.5 0.2-1.1 0.4c-4 1.8-8 3.7-11.4 6.5q-0.6 0.5-1.1 1-0.5 0.5-1.1 0.9-0.6 0.5-1.2 0.9-0.6 0.4-1.2 0.8c-2.9 1.6-6.4 1.6-9.7 1.5q-0.4 0.1-0.9 0-0.5 0-0.9-0.1-0.5-0.1-0.9-0.3-0.4-0.1-0.9-0.4c-1-0.7-1.4-2.4-0.5-3.2 3.2-1.1 6.5-2.2 9.1-4.2 2.9-2.1 5-5.1 8.1-6.7q0.5-0.2 1.1-0.4 0.5-0.2 1.1-0.4 0.5-0.2 1.1-0.4 0.5-0.2 1.1-0.3c2.8-0.9 8.4-5.4 11.3-4.7z"/><path class="a" d="m1100 654.6c-0.6 1.1 0.5 2.4 1.8 2.8 1.2 0.4 2.5 0.2 3.7 0.6 1.2 0.4 2.3 1.8 1.6 2.9q-0.1 0.1-0.3 0.3-0.2 0.2-0.4 0.3-0.2 0.2-0.4 0.3-0.2 0.1-0.5 0.2c-1.6 1-2.3 3.1-3.6 4.5-2.5 2.5-6.5 2.3-10.1 1.9q-0.5-0.1-1-0.1-0.5-0.1-1-0.3-0.5-0.2-1-0.4-0.5-0.3-0.9-0.6c-1.7-1.7-1.1-4.7 0.4-6.7 1.5-1.9 3.7-3.2 5.1-5.3 1.9-2.8 2-6.4 2-9.9q1 0.9 1.7 2 0.7 1.1 1.1 2.3 0.5 1.2 0.7 2.5 0.1 1.2 0 2.5"/><path class="a" d="m1053.8 529.8c0.5 5.5-8.9 5.6-12.2 5.3 0 1.9 0.2 3.7 0.8 5.4 0.5 1.7 1.4 3.3 2.4 4.8 1.1 1.5 2.3 2.8 3.8 3.8 1.5 1.1 3.1 1.9 4.8 2.5-3.3 1.7-7.4-0.1-10.3-2.4-2.9-2.4-5.4-5.5-8.9-6.8-4.5-1.9-9.6-0.5-14.5-0.1-3.8 0.2-8-0.5-10.3-3.5-1.1-1.4-1.5-3.3-2.2-5q-0.6-1.3-1.4-2.6-0.9-1.2-1.9-2.3-1-1.1-2.2-1.9-1.2-0.9-2.6-1.5c-2.2-1.1-4.7-1.7-6.9-2.7-2.3-1.1-4.4-3-4.8-5.4 6.7 1.3 13.7-0.6 20.5-0.5q2.8 0.1 5.6 0.6 2.8 0.5 5.4 1.4 2.7 1 5.2 2.3 2.4 1.3 4.7 3c2.5 2 4.9 4.3 8.1 4.9q0.7 0.1 1.4 0.1 0.7 0 1.4 0 0.7-0.1 1.4-0.2 0.7-0.1 1.4-0.2c2.8-0.5 10.9-3.7 11.3 1z"/><path class="a" d="m1011.3 572.4c2.8-3.9 4.4-20 9.6-21.4 1.8-0.4 3.4 1.5 3.8 3.3 0.4 1.8 0.1 3.7 0.8 5.5 1.1 2.7 4.2 3.9 6.1 6.2 3.6 4.5 1.4 11.2 2.3 16.9 1.2 7.4 7.7 12.7 11 19.5 5.5 11.4 0.1 26.8-11.4 32.2-3.3 1.6-7.7 3.1-8 6.8-0.3 3 2.4 6 1.1 8.7-1.6 3-6.1 1.8-9.4 2.8-5.6 1.7-7 10.4-12.8 11.6-5.4 1.1-10-5.3-15.4-4.9-1.7 0.2-3.4 0.9-4.8 0.2-1.8-0.8-2.2-3.2-2.6-5.1q-0.2-1.2-0.5-2.3-0.4-1.1-0.9-2.2-0.6-1.1-1.3-2-0.6-1-1.5-1.9-0.8-0.8-1.9-1.4-1-0.6-2.2-0.8-1.1-0.3-2.3-0.3-1.2 0.1-2.3 0.4c-0.3-3.8-3.3-6.9-6.8-8.3-3.6-1.4-7.5-1.3-11.2-0.8q-2.8 0.4-5.5 1.1-2.7 0.7-5.3 1.6-2.7 1-5.2 2.2-2.5 1.2-4.9 2.7-0.6 0.4-1.3 0.8-0.6 0.4-1.3 0.8-0.6 0.3-1.3 0.6-0.7 0.3-1.4 0.6c-2.7 0.8-5.5 0.5-8.2 0.1l-14.3-1.8q1.7-4.5 3.2-9.1 1.5-4.5 2.8-9.2 1.2-4.6 2.3-9.3 1-4.7 1.8-9.4c0.8-4.6 1.7-9.7 5.3-12.6 2.7-2.2 6.4-2.7 9.8-3.5q3.7-0.9 7.1-2.2 3.5-1.4 6.7-3.3 3.3-1.9 6.2-4.2 2.9-2.4 5.4-5.1c4.2-4.6 8-10.3 14-11.8 2.7-0.7 5.5-0.6 8.1-1.6 4.2-1.6 6.9-6.3 11.3-7q0.6 0 1.1-0.1 0.6 0 1.1 0 0.6 0 1.1 0 0.6 0 1.1 0c2.3 0 4.5-0.7 6.7-0.6 2.2 0 4.7 1.1 5.4 3.2 1 3.1-2.2 5.9-2.8 9.1-1.3 7.3 7.4 11.2 11.6 5.3z"/><path class="a" d="m922.4 535.5q1.2 0.1 2.4 0.3 1.3 0.1 2.5 0.3 1.2 0.2 2.4 0.4 1.2 0.2 2.4 0.5l12 2.3q2.7 0.4 5.4 1 2.7 0.5 5.4 1.1 2.7 0.7 5.3 1.3 2.6 0.7 5.3 1.5c-12.3 1.2-24.4-2.9-36.6-4.6-10.6-1.4-21.3-1-32-0.6-1.4-1.2-0.4-3.7 1.3-4.4 1.7-0.8 3.6-0.3 5.4 0.2 6.8 1.9 11.9 0.1 18.8 0.7z"/><path class="a" d="m928.9 487.8c2.1-2.3 4.9-4.3 7.8-2.2 3.4 2.6 1.3 7 1.1 10.4-0.2 2.9 0.8 6-0.7 8.5-1.5 2.5-5.2 3.5-5.5 6.4-0.2 1.6 0.8 3.1 1.6 4.5 0.8 1.4 1.4 3.2 0.5 4.5q-0.2 0.2-0.5 0.4-0.2 0.2-0.4 0.4-0.3 0.2-0.5 0.3-0.3 0.1-0.6 0.2l-4.2 2c-1.2 0.5-2.6 1-3.7 0.3q-0.3-0.2-0.5-0.4-0.2-0.2-0.4-0.5-0.2-0.2-0.3-0.5-0.2-0.2-0.3-0.5c-2.3-4-7.3-5.3-11-8q-0.7-0.6-1.4-1.2-0.6-0.6-1.3-1.2-0.6-0.7-1.2-1.3-0.6-0.7-1.2-1.4-0.3-0.4-0.6-0.7-0.3-0.4-0.6-0.8-0.2-0.4-0.4-0.8-0.2-0.4-0.4-0.9-0.1-0.4-0.1-0.9 0-0.5 0.1-0.9 0.2-0.5 0.5-0.8 0.3-0.4 0.7-0.7c1-0.5 2.2-0.2 3.4 0 1.1 0.1 2.6-0.1 2.9-1.3 0.2-0.8-0.3-1.7 0.2-2.5 0.4-0.7 1.5-0.7 2.4-0.6 8.1 0.7 10.2-4.7 14.6-9.8z"/><path class="a" d="m942.7 437.1c0.4 2.7-0.5 7.3 1.1 9.7 0.8 1.2 8.4 4.8 8.7 2.7-0.5 3.2-0.6 7.3 2.3 8.7 1.3 0.7 3.1 0.8 3.6 2.1q0.1 0.3 0.1 0.5 0 0.3 0 0.6-0.1 0.2-0.1 0.5-0.1 0.2-0.2 0.5-0.3 1-0.4 2-0.2 1-0.2 2-0.1 1 0 2 0.1 1 0.3 2 0.1 0.3 0.2 0.7 0.1 0.3 0.2 0.6 0.1 0.3 0.3 0.6 0.2 0.3 0.4 0.6c1 1.3 2.8 1.8 4 3q0.7 0.6 1.1 1.5 0.4 0.9 0.4 1.9 0.1 1-0.3 1.9-0.3 0.9-1 1.6-0.7 0.7-1.6 1-0.9 0.3-1.9 0.2-1-0.1-1.8-0.6-0.9-0.4-1.5-1.2c-2.1-3.1 0.6-7.5-0.6-11-1-3.3-4.8-4.8-6.7-7.7-1.9-2.8-1.7-6.6-3.4-9.5-1.5-2.6-4.5-4.3-5.9-7-1.8-3.4-0.5-8.2 2.9-9.9z"/><path class="a" d="m876.2 502.4c2.7 1.1 3.3-0.3 5.6 0.2 2.7 0.6 4.1 3.7 5.9 4.2-1.5-0.4-2.9 1.2-2.9 2.8q0 0.6 0.2 1.2 0.2 0.6 0.4 1.1 0.3 0.5 0.6 1 0.4 0.5 0.8 0.9c2.4 2.9 5.2 5.5 7.8 8.3 1.1 1.2 2.2 2.6 2 4.2-0.2 2-2.4 3.2-4.3 3q-0.7-0.1-1.4-0.3-0.7-0.3-1.3-0.6-0.7-0.4-1.3-0.8-0.5-0.5-1-1c-6.7-6.2-9.9-15.3-16-22-3.4-3.7-7.7-6.6-11.6-9.9q-0.5-0.3-0.9-0.7-0.4-0.4-0.8-0.9-0.4-0.4-0.7-0.9-0.4-0.6-0.6-1.1c-0.6-1.5-0.2-3.5 1.2-4.2 1.9-0.9 4 0.7 5.4 2.3 3.7 4 7.7 11 12.9 13.2z"/><path class="a" d="m990.9 337.4c0.7 1.8-1.1 4.5-2.5 5.4-2.6 1.6-5.9 1.2-9 0.8q1.5 2.7 2.8 5.5 1.2 2.9 2.1 5.8 1 2.9 1.7 5.9 0.7 3 1 6.1c0.2 1.6 0.3 3.5-0.7 4.7q-0.3 0.3-0.6 0.6-0.3 0.3-0.7 0.5-0.4 0.2-0.8 0.4-0.4 0.1-0.8 0.2-1 0.3-2.1 0.6-1.1 0.2-2.2 0.4-1.1 0.1-2.2 0.2-1.1 0-2.2 0c-1.7-0.1-4 0-4.5 1.6-0.3 1.1 0.3 2.4-0.4 3.4-0.4 0.5-1.2 0.7-1.8 1-3.5 1.6-2.1 6.9-3.9 10.3-0.6 1-1.8 1.8-2.8 1.3q-0.3-0.2-0.5-0.4-0.2-0.2-0.3-0.5-0.2-0.3-0.2-0.6-0.1-0.4-0.1-0.7c-0.2-3 1.1-6.3-0.6-8.8-0.8-1.2-2.1-2.1-2-3.5q0.1-0.2 0.2-0.4 0-0.2 0.1-0.4 0.2-0.2 0.3-0.4 0.1-0.1 0.3-0.3 1.3-1.8 2.9-3.4 1.5-1.6 3.2-3 1.7-1.4 3.6-2.7 1.8-1.3 3.7-2.4 0.5-0.2 1-0.5 0.5-0.2 0.9-0.5 0.4-0.4 0.8-0.7 0.4-0.4 0.8-0.8 0.3-0.3 0.5-0.7 0.2-0.4 0.4-0.8 0.2-0.4 0.3-0.9 0.2-0.4 0.2-0.8c1.1-3.8 1.6-8.2-0.4-11.6-1.3-2.3-3.8-4-4.1-6.7-0.5-4 4.5-6.8 8.4-5.6q0.5 0.2 1.1 0.4 0.5 0.2 1.1 0.4 0.5 0.2 1.1 0.4 0.5 0.1 1.1 0.3c2.5 0.5 4.6-1.9 5.8 0.9z"/><path class="a" d="m625.7 383.8c3.4-0.2 6.8-0.6 10 0.6 5.6 2.1 8.2 8.4 9.8 14.2l-4.7-0.2q0 0.3 0.1 0.7 0.1 0.3 0.2 0.6 0.2 0.3 0.4 0.6 0.1 0.2 0.4 0.5 3.6 4.7 6.9 9.6 3.4 4.9 6.5 10 3.1 5 6 10.2 2.8 5.2 5.5 10.5c2.6 5.3 8.4 11.8 5.6 17-1 1.8 0.3 4.2 2.2 5.1 1.9 0.8 4.1 0.6 6.2 0.3l16.8-2.1q0.4-0.1 0.9-0.1 0.5 0 0.9 0 0.5 0.1 1 0.2 0.4 0.1 0.8 0.3c2 1.2 1.6 4.1 0.9 6.3-7.6 22.7-31 38.5-34.8 62.2q-0.2 1.5-0.3 3.1-0.2 1.6-0.3 3.1-0.1 1.6-0.2 3.2-0.1 1.5-0.1 3.1-0.1 2.6-0.4 5.1-0.3 2.6-0.6 5.2-0.4 2.5-0.9 5.1-0.5 2.5-1.1 5-0.2 1.1-0.5 2.1-0.3 1-0.7 2-0.3 1-0.8 2-0.4 1-0.9 1.9c-3.6 5.8-10.7 9.3-12.8 15.8-2.3 7.2 2.2 16.7-3.5 21.7-3.5 3.1-9.6 2.8-12 6.8-2 3.4 0 7.8-0.6 11.7-0.8 4.9-5.4 8.1-9.8 10.3q-3.5 1.7-7.2 3.1-3.6 1.3-7.4 2.1-3.9 0.9-7.7 1.3-3.9 0.4-7.8 0.4-0.7 0-1.3 0-0.7-0.1-1.3-0.2-0.6-0.1-1.3-0.3-0.6-0.2-1.2-0.5c-3.5-2.1-3.6-7.1-4.4-11.1-1.8-8.8-9.1-15.7-11.1-24.5-2.1-9.2 2.2-19.8-3-27.7 3.2-6.2 6.5-12.7 6.4-19.7-0.2-11.9-10.3-22.2-9.5-34.1 0.2-3.1 1.2-6.1 1.5-9.2q0.2-1.9 0-3.7-0.1-1.9-0.6-3.7-0.4-1.8-1.2-3.5-0.7-1.7-1.7-3.2c-1.8-2.7-4.7-5.2-8-5-1.3 0.1-2.5 0.7-3.8 0.6-3-0.3-4.6-3.6-6.6-5.9-4.1-4.9-11.2-5.7-17.6-6.2l-36.3-3q-0.4 0-0.8 0-0.3-0.1-0.7-0.2-0.4-0.1-0.7-0.3-0.3-0.1-0.6-0.3c-1.4-1.1-1.3-3.2-1.2-5q0-1.7-0.2-3.3-0.2-1.6-0.7-3.2-0.5-1.5-1.3-3-0.8-1.5-1.8-2.8c-2.6-3.4-6.4-5.9-8.4-9.8-1.5-3-1.7-6.6-1.8-10.1l-0.9-26.8c-0.1-2.2-0.1-4.5 0.9-6.5q0.3-0.7 0.8-1.3 0.5-0.6 1-1.2 0.5-0.5 1.1-1 0.6-0.5 1.2-0.9c4.5-3.4 9.3-6.4 12.7-10.8 3.3-4.2 5-9.3 7.5-14.1 2.4-4.7 5.8-9.3 10.8-11.1q0.8-0.3 1.7-0.5 0.8-0.2 1.7-0.3 0.8-0.2 1.7-0.3 0.8-0.1 1.7-0.2 4.5-0.4 9.1-1.3 4.5-0.8 8.9-1.9 4.4-1.1 8.8-2.5 4.3-1.4 8.6-3.1 0.6-0.3 1.3-0.5 0.6-0.3 1.3-0.5 0.7-0.2 1.4-0.3 0.6-0.2 1.3-0.3 1.6-0.1 3 0.3 1.5 0.4 2.8 1.3 1.2 0.8 2.1 2 1 1.3 1.4 2.7c1 3.3 0 7.1 1.5 10.3 3.6 7.8 16.7 4.1 22.5 10.4 1 1.1 1.9 2.6 3.4 3.1 1.9 0.5 3.9-1 4.5-2.9 0.6-1.9 0.3-3.9-0.1-5.9 9.5 1.5 19.9 2.9 29.5 2.4z"/><path class="a" d="m625.7 251.7c2.5 2.7 5.3 5.6 9 6 6.4 0.8 11.1-5.8 14-11.6q0.1 1.1 0.6 2.1 0.5 1 1.3 1.7 0.8 0.8 1.9 1.1 1 0.4 2.1 0.4 0.6-0.1 1.2-0.3 0.6-0.2 1.1-0.4 0.6-0.2 1.1-0.5 0.6-0.3 1.1-0.6 4.7-2.6 9.8-4.6 5-2 10.3-3.3 5.3-1.4 10.6-2.1 5.4-0.7 10.9-0.7-0.1-0.9 0.1-1.7 0.2-0.8 0.6-1.5 0.5-0.6 1.2-1.1 0.7-0.5 1.5-0.7c2.9-0.6 5.6 2 7 4.7 1.5 2.6 2.3 5.7 4.6 7.7 2.3 2 6.7 1.9 7.6-1 0.8-2.8-2.1-5.1-4.5-6.8-2.3-1.6-4.9-4.6-3.3-7 12.3-2.7 24.6-5.4 37-6q0.8 0.1 1.6 0 0.8 0 1.6-0.2 0.8-0.1 1.6-0.3 0.7-0.2 1.5-0.5c1.9-1 3.4-3.1 2.9-5.1q-2.1 0.4-4.2 0.3-2.1-0.1-4-0.9-2-0.7-3.7-2-1.6-1.3-2.8-3c17.3-1.4 35.8-2.6 51.1 5.5 1.9 4-7.5 7.3-5 10.8 0.8 1.2 2.4 1.3 3.8 1.3 10.7 0.2 21.4 0.4 32-1.2 3.8-0.6 7.7-1.4 11.6-0.9 6.4 0.8 12 5.1 18.3 6.5 2.6 0.6 5.5 0.6 7.7-0.9 2.1-1.5 3.1-5 1.3-6.9 6-5.9 15.9-4.4 23.8-1.6 7.9 2.8 15.3 7.3 23.7 7.9 6 0.5 12-1.1 17.9-0.1 3.8 0.6 7.2 2.3 10.9 3.3 6.8 1.9 14.1 1.5 21.2 1.6q6.8 0.1 13.6 0.8 6.8 0.7 13.5 2.1 6.6 1.3 13.2 3.2 6.5 2 12.8 4.5 0.9 0.2 1.6 0.6 0.8 0.4 1.6 0.8 0.7 0.4 1.4 1 0.7 0.5 1.3 1.1c1.6 1.6 2.4 4.3 1.4 6.3l-17.5-2.5c1.6 3.2 5.9 3.8 9.3 4.9 3.5 1.1 7.1 4.9 5 7.9-3.7-1.2-7.1 2.5-9 6-1.9 3.4-4.2 7.6-8.2 7.8-3.5 0.2-7.7-2.8-10-0.2q1.2 1.5 2.3 3.1 1.1 1.6 2.1 3.2 1 1.6 1.9 3.3 0.9 1.6 1.8 3.4c2.2 4.7 3.8 10.6 0.8 14.9q-0.2 0.3-0.4 0.5-0.2 0.3-0.5 0.5-0.3 0.2-0.6 0.3-0.3 0.2-0.6 0.3c-2.5 0.6-4.1-2.4-5.9-4.3-2.3-2.3-5.7-3-8.7-4.1-3.1-1.1-6.3-3.2-6.6-6.5-0.1-2 1-3.9 1.7-5.7q0.5-1.2 0.9-2.4 0.3-1.3 0.6-2.5 0.2-1.3 0.2-2.5 0.1-1.3 0-2.6c-0.1-2.7-0.9-5.6-2.9-7.5-1.9-1.9-5.3-2.5-7.4-0.7-1 0.8-1.8 2.1-3.1 2.1-2.2 0.1-4-3.8-5.8-2.5q0.1 0.6 0.1 1.1 0 0.5-0.2 1.1-0.1 0.5-0.3 1-0.2 0.5-0.4 1c-5.5 4.7-13.8 2.7-20.8 4.3q-1.2 0.4-2.4 0.8-1.3 0.5-2.4 1-1.2 0.5-2.4 1.1-1.1 0.6-2.2 1.3-0.4 0.1-0.8 0.4-0.4 0.2-0.8 0.5-0.3 0.3-0.6 0.6-0.3 0.4-0.5 0.7c-0.9 1.7 0.1 3.9 1.6 5q0.6 0.4 1.2 0.7 0.7 0.3 1.4 0.5 0.6 0.3 1.3 0.4 0.7 0.2 1.5 0.3c8.5 1.6 17.1 4.1 23.8 9.5 6.8 5.5 11.2 14.6 9.1 23l-16.8-16.1q0.9 10.1 1 20.3 0.1 0.5 0.1 1 0 0.5-0.1 1-0.1 0.5-0.2 1-0.1 0.4-0.3 0.9c-1.2 2.6-4.4 3.5-7.3 4.1q-1.2 0.2-2.2 0.9-1 0.7-1.6 1.8-0.6 1-0.8 2.3-0.1 1.2 0.2 2.3c1 3.3 3.6 5.9 5.9 8.5 2.3 2.5 4.6 5.4 4.9 8.9 0.3 3.4-2.3 7.3-5.8 7-2.6-0.2-4.5-2.5-5.6-4.9-1.1-2.3-1.8-5-3.5-7-5-6-16.4-3.4-20.9-9.9q-0.9 1-1.5 2.1-0.5 1.2-0.8 2.5-0.3 1.3-0.3 2.6 0.1 1.3 0.5 2.5c2.1-1.3 5-0.1 6.6 1.8 1.5 2 2.3 4.4 3.5 6.6 1.7 2.9 4.4 5.5 4.6 8.8q0 0.5 0 0.9 0 0.5 0 1 0 0.5 0 0.9 0 0.5 0.1 1c0.4 2 2.1 3.5 3.3 5.2 2.8 3.9 2.6 9.3 0.8 13.8-1.7 4.5-4.9 8.2-8.1 11.8-5.6 6.4-11.2 12.7-17.8 17.9-1.8 1.5-3.8 3-5 5.1-1.2 2.1-1.2 5 0.6 6.6-1.3 0.1-3.6 0.7-4.9 0.8q-0.2-1.9-0.3-3.9-0.1-1.9-0.1-3.8-0.1-2 0-3.9 0-2 0.1-3.9c-5.1-2.4-10.5 4.1-9.9 9.7 0.7 5.5 4.7 10 7.6 14.8 2.1 3.6 3.7 7.7 3 11.7-0.7 4.1-4.4 7.8-8.5 7.5-6.5-0.6-9.2-10-15.6-11q-0.2-0.1-0.5-0.1-0.2 0-0.4 0-0.2 0-0.4 0.1-0.2 0.1-0.4 0.1c-1 0.6-1.1 1.9-1.2 2.9-0.3 5.4-0.5 11 1.6 15.9 3.1 7.2 10.9 13.3 9.3 20.9-8.9-4.1-13.6-14.1-15.7-23.7-2.1-9.6-2.4-19.7-6.2-28.8-2.9 3.7-8.9 0.6-11.5-3.2-2.5-3.7-4-7.9-6.4-11.6-2.4-3.7-6.1-7-10.5-7.2-4.7-0.2-8.7 2.9-12.2 5.9-2.9 2.5-5.9 5.1-7.6 8.5-2.4 4.9-1.8 10.8-1.9 16.3-0.1 6-1.4 12.3-5.5 16.7-4.1 4.4-11.6 5.9-16.1 2-2.4-2.1-3.5-5.2-4.5-8.1q-1.8-5.4-3.5-10.8-1.7-5.4-3.2-10.8-1.6-5.5-2.9-10.9-1.4-5.5-2.6-11c-0.8 3.3-3.7 7.7-6.5 5.7q-0.3-0.2-0.5-0.5-0.2-0.2-0.4-0.4-0.2-0.3-0.3-0.5-0.2-0.3-0.3-0.6c-5.3-8.9-15-14.2-24.9-17.4-9.8-3.2-20.2-4.7-29.9-8.3q-2-0.7-4-1.5-2-0.9-4-1.9-1.9-0.9-3.8-2-1.9-1.1-3.7-2.3-0.9 1.4-1.5 2.9-0.5 1.6-0.6 3.3-0.1 1.6 0.2 3.2 0.4 1.6 1.1 3.1c2.2 3.8 7.1 6 11.3 4.7 2.1-0.7 4-2.2 6.1-2.9 2.1-0.8 5-0.4 6 1.7 0.9 1.9-0.5 4.3 0.2 6.4 1 3.1 5.7 3.4 7.4 6.2 1.2 2.2 0.2 5-1.5 6.7-1.8 1.7-4.2 2.7-6.3 3.9-7 3.8-11.9 10.5-18 15.6-6.1 5.2-14.7 8.9-22 5.6 1.7-8.7-8.7-15.2-10.6-23.9-0.7-2.9-0.3-5.9-1.3-8.7-1.3-4.1-4.9-6.9-7.8-10q-2.7-2.8-4.8-6.1-2-3.3-3.4-6.9-1.4-3.7-2-7.5-0.6-3.9-0.5-7.8c0.2-3.6 0.8-7.2 0-10.8-0.8-3.5-3.7-6.9-7.3-6.7-8.3 0.3-18.6 1-23-6.1-1.5-2.5-2.2-6.1 0-8.1 1.6-1.3 3.9-1.2 6-1l18.6 1.8c4.3 0.5 9 0.8 12.7-1.5 3.8-2.2 5.4-8.3 1.9-10.9-2.5-2-7-1.9-7.7-5-0.6-2.6 2.2-5.5 0.7-7.6-1.1-1.6-3.6-1.2-5.1 0-1.5 1.2-2.6 2.9-4.3 3.7-3 1.6-6.5 0.1-9.7-0.9-3.2-1-7.5-1.1-9 1.9-1.8 3.3 1.5 7.6-0.2 11-2.3 4.3-10 1.8-13.2 5.6-3.6 4.3 2.5 10.8 1.3 16.3q-1.2 0.6-2.5 0.9-1.3 0.2-2.6 0.2-1.3-0.1-2.5-0.5-1.3-0.4-2.4-1.1-1.1-0.8-1.9-1.8-0.9-1-1.5-2.2-0.5-1.2-0.7-2.5-0.2-1.3-0.1-2.6c0.3-2.5 1.6-5 0.7-7.4-0.7-1.9-2.6-3-4.4-4l-18-9.9c-1.7 3.1 0.4 6.9 3.1 9.3 2.6 2.3 6 4 7.7 7.1 0.5 1.1 0.9 2.2 1 3.4 0.1 1.2 0 2.4-0.3 3.5-0.3 1.2-0.9 2.2-1.6 3.2-0.7 0.9-1.6 1.7-2.6 2.3q-0.2 0.1-0.5 0.2-0.2 0.1-0.4 0.2-0.2 0-0.5 0-0.2 0-0.4-0.1-0.2-0.1-0.4-0.3-0.2-0.1-0.4-0.3-0.1-0.2-0.2-0.5-0.1-0.2-0.2-0.4c-3.2-8.2-8-16.2-15.6-20.5-7.6-4.2-18.6-3.4-23.6 3.8-1.2 1.7-2 3.7-3.1 5.5-5.5 9.5-17.3 14.1-28.3 13.8q-0.4 0-0.8-0.1-0.4 0-0.8-0.1-0.4-0.1-0.8-0.2-0.4-0.2-0.7-0.4c-1.8-1.2-1.7-3.8-1.4-6l1.1-9.1c0.3-1.8 0.6-3.8 2-5 2.1-1.6 5-0.6 7.6-0.6q1.5-0.1 2.9-0.6 1.4-0.5 2.6-1.4 1.1-0.9 2-2.1 0.8-1.2 1.3-2.7 0.4-1.4 0.4-2.9 0-1.4-0.4-2.9-0.4-1.4-1.2-2.7-0.8-1.2-1.8-2.2c-1.2-1.2-2.8-2.6-2.2-4.1q0.2-0.3 0.4-0.6 0.3-0.2 0.6-0.4 0.3-0.2 0.6-0.4 0.4-0.1 0.7-0.2c4.7-1.3 9.7-1.7 14.2-3.3 4.6-1.6 9.1-4.9 10.2-9.6 0.3-1.5 0.5-3.2 1.8-3.9q0.2-0.1 0.5-0.2 0.2-0.1 0.5-0.2 0.3 0 0.5 0 0.3-0.1 0.6-0.1c1.2-0.1 2.4-0.5 3.5-1.2 1.1-0.6 2-1.4 2.8-2.3 0.8-1 1.4-2.1 1.8-3.3 0.4-1.2 0.6-2.4 0.5-3.7 2.2-1.5 5.3-0.4 7.4 1.3 2.2 1.6 4 3.8 6.6 4.5 4.9 1.3 9.5-3 14.5-3 2.2 0 4.3 0.7 6.3 0 2-0.7 3.2-2.7 4.8-4.2 1.5-1.5 4.2-2.4 5.6-0.8l-1.2-9q1.9 0.5 3.7 0.6 1.9 0 3.8-0.3 1.9-0.3 3.6-1.1 1.7-0.7 3.3-1.8l-15.7-5.3q-0.2 0-0.4-0.1-0.2-0.1-0.4-0.2-0.1-0.1-0.3-0.2-0.2-0.1-0.3-0.2c-1.2-1.3 0-3.2 0.9-4.6 2.2-3.3 2.6-8.8-1.1-10.5-2.5-1.1-5.3 0.3-7.7 1.6l-11.4 6.4c-0.4 2.1 2.3 3.4 3.9 4.8 1 0.9 1.7 2.1 2 3.4 0.3 1.3 0.3 2.6-0.2 3.9-0.5 1.2-1.3 2.3-2.4 3.1-1.1 0.8-2.4 1.2-3.7 1.2q0.6 0.7 0.9 1.6 0.4 0.8 0.6 1.7 0.2 0.9 0.2 1.8 0 1-0.2 1.9l-7.7 0.5q-0.4 0.1-0.7 0.1-0.3 0-0.6-0.1-0.4 0-0.7-0.2-0.3-0.1-0.5-0.3c-0.9-0.7-0.7-2-0.9-3.1-0.5-2.6-3.1-4.4-5.7-4.9-2.6-0.5-5.3 0.2-7.9 0.7q-0.4 0.2-0.8 0.3-0.4 0-0.9 0-0.4 0-0.8-0.1-0.4-0.1-0.8-0.2-0.3-0.2-0.5-0.4-0.2-0.2-0.4-0.4-0.1-0.2-0.3-0.4-0.1-0.3-0.2-0.5c-1.1-2.8-0.1-6 1.8-8.4 1.8-2.3 4.3-4 6.5-6q2-1.8 3.8-3.8 1.7-2 3.1-4.2 1.5-2.3 2.6-4.7 1.1-2.4 1.9-4.9c4.2-1.8 8.6-4.2 12.9-6q2.4-1.2 5-2.1 2.6-0.9 5.2-1.4 2.7-0.5 5.5-0.7 2.7-0.1 5.4 0.1l14.4 0.3c4.2 0.1 8.6 0.2 12.5 1.8 3.9 1.6 7.4 5.1 7.6 9.3q0.1 0.4 0.1 0.8-0.1 0.3-0.2 0.7-0.1 0.3-0.3 0.6-0.2 0.3-0.5 0.6-0.2 0.1-0.4 0.2-0.2 0-0.4 0.1-0.3 0.1-0.5 0.1-0.2 0-0.5 0c-3.9 0.1-5.6 1.1-9.6 1.2z"/><path class="a" d="m511.9 297.6c0.4-0.6 1.6-0.2 1.8 0.6q0 0.2 0 0.5-0.1 0.3-0.2 0.6-0.1 0.3-0.2 0.5-0.2 0.3-0.4 0.5-0.2 0.2-0.4 0.4-0.2 0.2-0.4 0.4-0.1 0.3-0.3 0.5-0.1 0.3-0.2 0.6c-0.5 1.6 1.1 3.3 0.4 4.9-0.5 1.2-1.9 1.5-3.2 1.7q-0.8 0.1-1.6 0.1-0.7 0.1-1.5 0.1-0.8 0.1-1.6 0.1-0.7 0-1.5 0-0.2 0.1-0.4 0.1-0.2-0.1-0.4-0.1-0.2 0-0.4-0.1-0.2 0-0.4-0.1-0.2-0.1-0.4-0.3-0.2-0.2-0.4-0.5-0.2-0.2-0.3-0.5-0.1-0.2-0.2-0.5c-1.1-3.4 0.6-7.1 2.5-10.2q0.2-0.4 0.4-0.8 0.3-0.3 0.6-0.7 0.2-0.4 0.5-0.7 0.3-0.4 0.7-0.7 0.8-0.7 1.7-1.2 1-0.5 2.1-0.7 1.1-0.2 2.2-0.1 1.1 0.1 2.1 0.5 0.1 0.5 0.2 1.1 0 0.6-0.2 1.2-0.1 0.5-0.4 1-0.3 0.5-0.8 0.9"/><path class="a" d="m528.7 295q0.2 0.2 0.5 0.5 0.2 0.3 0.4 0.5 0.3 0.3 0.5 0.6 0.2 0.2 0.4 0.5 0.2 0.4 0.4 0.8 0.1 0.3 0.2 0.7 0.1 0.4 0.2 0.8 0 0.4 0 0.8 0.1 0.9 0 1.8 0 0.9-0.1 1.8-0.1 0.9-0.3 1.8-0.2 0.8-0.5 1.7-0.1 0.4-0.3 0.8-0.2 0.5-0.5 0.8-0.2 0.4-0.5 0.7-0.4 0.3-0.7 0.6-0.4 0.2-0.8 0.3-0.4 0.1-0.8 0.1-0.4 0.1-0.8 0.1-0.4-0.1-0.8-0.1c-1.9-0.2-4.2-0.7-4.5-2.6-0.3-1.7 1.5-3.1 1.8-4.9 0.4-2.2-1.7-4.1-2.1-6.3-0.3-2 0.7-4.5-0.8-5.8q-0.3-0.1-0.5-0.2-0.2-0.1-0.5-0.2-0.2-0.1-0.5-0.2-0.2-0.1-0.5-0.1-0.9-0.4-1.6-1.1-0.8-0.7-1.2-1.6-0.4-0.9-0.5-1.9-0.1-1 0.2-2 0.1-0.1 0.2-0.3 0-0.1 0.1-0.3 0.1-0.1 0.2-0.2 0.1-0.1 0.3-0.2 0.1-0.1 0.3-0.2 0.1 0 0.3 0 0.1-0.1 0.3-0.1 0.1 0 0.3 0 0.7-0.1 1.4-0.1 0.7 0 1.4 0 0.7 0.1 1.4 0.2 0.7 0.1 1.4 0.2c6.8 2 3 8.1 6.6 12.3z"/><path class="b" d="m991.2 607.8c0 0-273.2-156.8-390.8-127.1 0 0-249.3 26.8-278.2 85.8 0 0-79.2-247.6-108.1-255.9"/><path class="b" d="m322.2 566.5c45.8-122.1 458.5-257.5 458.5-257.5-58.6 14.9-180.3 171.7-180.3 171.7 0 0-257.6-187.4-386.3-170.1 0 0 567 18.6 777.1 297.2"/><circle class="c" cx="214.1" cy="310.6" r="12"/><circle class="c" cx="322.2" cy="566.5" r="12"/><circle class="c" cx="780.7" cy="309" r="12"/><circle class="c" cx="991.2" cy="607.8" r="12"/><circle class="c" cx="600.4" cy="480.7" r="12"/></svg>