<svg version="1.2" xmlns="http://www.w3.org/2000/svg" viewBox="0 0 1177 874" width="1177" height="874"><style>.a{fill:#f2f2f2}.b{fill:#fff}.c{fill:#3f3d56}.d{fill:#6c63ff}.e{opacity:.1}.f{fill:#e6e6e6}.g{fill:#a0616a}.h{fill:#2f2e41}</style><path class="a" d="m1055.8 279.7c3.4 1.4 6.5 3.5 9.1 6.1 2.7 2.6 4.7 5.8 6.2 9.2 1.4 3.4 2.1 7.1 2.1 10.8 4.9 35.2 8.6 70.6 11.1 106.1 2.5 35.4 3.7 71 3.7 106.6 0 35.5-1.2 71.1-3.7 106.6-2.5 35.4-6.2 70.8-11.1 106 0 3.8-0.7 7.4-2.1 10.9-1.5 3.4-3.5 6.5-6.2 9.1-2.6 2.6-5.7 4.7-9.1 6.1-3.4 1.5-7.1 2.2-10.8 2.2h-806.4q-2.6 0-5.2-0.5-2.5-0.5-5-1.4-2.4-1-4.6-2.3-2.3-1.4-4.2-3.2-0.8-0.7-1.5-1.5-1.9-1.9-3.3-4.2-1.5-2.3-2.5-4.7-0.9-2.5-1.4-5.2-0.5-2.6-0.5-5.3v-425.3c0-3.7 0.7-7.4 2.1-10.8 1.4-3.4 3.5-6.6 6.1-9.2 2.7-2.6 5.8-4.7 9.2-6.1 3.4-1.4 7.1-2.2 10.8-2.2h806.4c3.7 0 7.4 0.8 10.8 2.2z"/><path class="b" d="m1018.4 234.9c3.5 1.4 6.6 3.5 9.2 6.1 2.6 2.6 4.7 5.7 6.1 9.2 1.4 3.4 2.2 7.1 2.2 10.8v425.3c0 3.7-0.8 7.4-2.2 10.8-1.4 3.5-3.5 6.6-6.1 9.2-2.6 2.6-5.7 4.7-9.2 6.1-3.4 1.4-7.1 2.2-10.8 2.2h-806.3q-2.7 0-5.2-0.5-2.6-0.5-5-1.4-2.5-1-4.7-2.4-2.2-1.3-4.1-3.1-0.8-0.7-1.6-1.5-1.8-2-3.3-4.2-1.4-2.3-2.4-4.8-1-2.5-1.5-5.1-0.5-2.6-0.5-5.3v-425.3c0-3.7 0.7-7.4 2.2-10.8 1.4-3.5 3.5-6.6 6.1-9.2 2.6-2.6 5.7-4.7 9.2-6.1 3.4-1.4 7-2.2 10.8-2.2h806.3c3.7 0 7.4 0.8 10.8 2.2z"/><path class="a" d="m676.6 518.5q0.2 1.2 0.3 2.4 0.2 1.2 0.2 2.4 0.1 1.2 0.1 2.4-1.3 1.6-2.6 3.1 0 0 0 0 0 0.1 0 0.1 0 0 0 0-0.1 0-0.1 0-2.5 3.1-5 6.2 0.8 0.1 1.6 0.2 0.8 0.1 1.5 0.2 0.8 0 1.6 0 0.8 0 1.5 0-0.1 0.3-0.2 0.7h-22.4q-1-2.2-1.9-4.4-0.9-2.3-1.7-4.6-0.8-2.3-1.5-4.6-0.7-2.4-1.2-4.7c-13.2 4.5-25.6 3-28.5-12.5q-1.1-1.2-2.1-2.5-1-1.3-1.9-2.7-0.9-1.4-1.6-2.9-0.8-1.4-1.4-2.9 0.1 0 0.1 0l0.1-0.1c0.8-0.1 1.5-0.4 2-1 0.6-0.5 1-1.2 1.2-1.9 0.1-0.8 0.1-1.6-0.2-2.3-0.3-0.7-0.8-1.3-1.4-1.7q-0.8-0.5-1.6-1-0.4-0.2-0.7-0.4-0.4-0.2-0.7-0.3-0.4-0.2-0.8-0.4-0.3-0.1-0.7-0.3v-0.2c-0.1-0.8 0-1.6 0.3-2.4 0.4-0.8 1-1.4 1.7-1.9 0.7-0.4 1.5-0.6 2.3-0.6 0.9 0 1.7 0.2 2.4 0.7 6.7 4 15.4 5.9 21.5 10.9q1.6 1.3 2.9 2.9 1.3 1.5 2.3 3.2 1 1.7 1.7 3.6 0.7 1.9 1.1 3.9v0.1q-0.1-1.7-0.2-3.5-0.1-1.8-0.1-3.6 0-1.8 0.1-3.6 0-1.8 0.2-3.6 0.2-3 0.7-6 0.4-3 1-6 0.7-3 1.5-5.9 0.8-2.9 1.8-5.8-0.5-0.2-0.9-0.4c-14.2-0.3-24.2-6.8-19.6-24.7q-0.2-0.7-0.3-1.4-0.2-0.7-0.3-1.4-0.1-0.7-0.2-1.4-0.1-0.7-0.2-1.5h0.1c0.8-0.1 1.5-0.4 2-1 0.6-0.5 1-1.2 1.2-1.9 0.1-0.8 0.1-1.6-0.2-2.3-0.3-0.7-0.8-1.3-1.5-1.7q-0.7-0.5-1.5-1 0-0.1 0-0.2c0.2-1.5 0.8-3 1.8-4.1 1.1-1.2 2.4-2.1 3.9-2.5 1.5-0.4 3-0.3 4.5 0.1 1.5 0.5 2.8 1.4 3.7 2.7 3.6 4.5 7.7 8.9 9.9 14.2q0.8 2.1 1.3 4.3 0.6 2.2 0.9 4.4 0.2 2.2 0.3 4.5 0 2.2-0.3 4.5 1.1-2 2.2-4 1.1-1.9 2.3-3.8 1.2-1.9 2.4-3.8 1.3-1.8 2.7-3.6 0.3-0.4 0.6-0.7c-1.9-3.2-2.2-7.1-4.5-10.1-3.5-4.5-3.4-9.3 2.3-12.2 2.7-6.8 7.8-7.7 11.5-2.7 0.7 1 2 1.5 2.6 2.6-0.3 0.4 1 7.9 1.5 7.8q-0.1 0.7-0.3 1.3-0.1 0.7-0.3 1.3-0.2 0.7-0.5 1.3-0.3 0.6-0.6 1.2-0.8 1.6-1.8 3.2-1.1 1.5-2.4 2.8-1.3 1.3-2.7 2.4-1.5 1.2-3.1 2-3.4 4.3-6.2 8.8-2.9 4.6-5.1 9.5-2.3 4.8-4 10-1.7 5.1-2.8 10.3-0.8 3.9-1.2 7.9-0.2 1.2-0.3 2.4-0.1 1.2-0.1 2.4-0.1 1.2-0.1 2.5-0.1 1.2-0.1 2.4 0 4.8 0.6 9.6 0.5 4.8 1.5 9.5 1.1 4.7 2.6 9.3 1.5 4.6 3.5 9-0.2-1-0.3-1.9-0.2-1-0.2-2-0.1-1 0-1.9 0-1 0.1-2c0.7-5.8 3.7-11.3 6-16.8 0.5-1.4 1.5-2.6 2.7-3.4 1.3-0.9 2.7-1.3 4.2-1.3 1.5 0 3 0.4 4.2 1.2 1.3 0.9 2.3 2 2.9 3.4q0 0.1 0 0.2l-0.2 0.8c-0.4 0.4-0.7 0.9-0.8 1.5-0.1 0.5-0.1 1.1 0.1 1.6 0.3 0.6 0.7 1 1.1 1.3 0.5 0.4 1.1 0.5 1.7 0.5q0.3 1.1 0.5 2.3z"/><path class="c" d="m1035.9 555.2v45.2c0 3.7-0.8 7.4-2.2 10.8-1.4 3.4-3.5 6.6-6.1 9.2-2.6 2.6-5.7 4.7-9.2 6.1-3.4 1.4-7.1 2.2-10.8 2.2h-806.3q-2.7 0-5.2-0.5-2.6-0.5-5-1.4-2.5-1-4.7-2.4-2.2-1.4-4.1-3.1-0.8-0.7-1.6-1.5-1.8-2-3.3-4.2-1.4-2.3-2.4-4.8-1-2.5-1.5-5.1-0.5-2.6-0.5-5.3v-45.2c245.5-40.5 547.4-26.8 862.9 0z"/><path class="b" d="m1035.9 605v45.2c0 3.7-0.8 7.4-2.2 10.8-1.4 3.4-3.5 6.6-6.1 9.2-2.6 2.6-5.7 4.7-9.2 6.1-3.4 1.4-7.1 2.2-10.8 2.2h-806.3q-2.7 0-5.2-0.5-2.6-0.5-5-1.4-2.5-1-4.7-2.4-2.2-1.4-4.1-3.1-0.8-0.7-1.6-1.5-1.8-2-3.3-4.2-1.4-2.3-2.4-4.8-1-2.5-1.5-5.1-0.5-2.6-0.5-5.3v-45.2c226-30.2 533.4-20.5 862.9 0z"/><path class="c" d="m1035.9 641.1v45.2c0 3.7-0.8 7.4-2.2 10.8-1.4 3.5-3.5 6.6-6.1 9.2-2.6 2.6-5.7 4.7-9.2 6.1-3.4 1.4-7.1 2.2-10.8 2.2h-806.3q-2.7 0-5.2-0.5-2.6-0.5-5-1.4-2.5-1-4.7-2.4-2.2-1.3-4.1-3.1-0.8-0.7-1.6-1.5-1.8-2-3.3-4.2-1.4-2.3-2.4-4.8-1-2.5-1.5-5.1-0.5-2.6-0.5-5.3v-45.2c244.5-25.4 542.3-19.4 862.9 0z"/><path class="a" d="m969.2 512.3q0.2 1.2 0.3 2.4 0.2 1.2 0.2 2.4 0.1 1.2 0.1 2.4-1.3 1.5-2.6 3.1 0 0 0 0 0 0 0 0.1 0 0 0 0-0.1 0-0.1 0-2.5 3.1-5 6.2 0.8 0.1 1.6 0.2 0.8 0.1 1.5 0.1 0.8 0.1 1.6 0.1 0.8 0 1.5-0.1-0.1 0.4-0.2 0.8h-22.4q-1-2.2-1.9-4.5-0.9-2.2-1.7-4.5-0.8-2.3-1.5-4.7-0.7-2.3-1.2-4.7c-13.2 4.6-25.6 3.1-28.5-12.5q-1.1-1.2-2.1-2.5-1-1.3-1.9-2.7-0.9-1.3-1.6-2.8-0.8-1.4-1.4-3 0.1 0 0.1 0h0.1c0.8-0.1 1.5-0.5 2-1 0.6-0.5 1-1.2 1.2-1.9 0.1-0.8 0.1-1.6-0.2-2.3-0.3-0.7-0.8-1.3-1.4-1.8q-0.8-0.5-1.6-0.9-0.4-0.2-0.7-0.4-0.4-0.2-0.7-0.4-0.4-0.1-0.8-0.3-0.3-0.2-0.7-0.3v-0.2c-0.1-0.8 0-1.7 0.4-2.4 0.3-0.8 0.9-1.4 1.6-1.9 0.7-0.4 1.5-0.7 2.3-0.7 0.9 0 1.7 0.3 2.4 0.7 6.7 4.1 15.4 6 21.5 11q1.6 1.3 2.9 2.8 1.3 1.6 2.3 3.3 1 1.7 1.7 3.6 0.7 1.9 1.1 3.9v0.1q-0.1-1.8-0.2-3.6-0.1-1.7-0.1-3.5 0-1.8 0.1-3.6 0-1.8 0.2-3.6 0.2-3 0.7-6 0.4-3 1-6 0.7-3 1.5-5.9 0.8-2.9 1.8-5.8-0.5-0.2-0.9-0.5c-14.2-0.3-24.2-6.8-19.6-24.6q-0.2-0.7-0.3-1.4-0.2-0.7-0.3-1.4-0.1-0.7-0.2-1.4-0.1-0.8-0.2-1.5h0.1c0.8-0.1 1.5-0.5 2-1 0.6-0.5 1-1.2 1.2-1.9 0.1-0.8 0.1-1.6-0.2-2.3-0.3-0.7-0.8-1.3-1.5-1.8q-0.7-0.5-1.5-0.9 0-0.1 0-0.2c0.2-1.6 0.8-3 1.8-4.2 1.1-1.1 2.4-2 3.9-2.4 1.5-0.4 3-0.4 4.5 0.1 1.5 0.5 2.8 1.4 3.7 2.6 3.6 4.6 7.7 9 9.9 14.2q0.8 2.2 1.3 4.3 0.6 2.2 0.9 4.5 0.2 2.2 0.3 4.4 0 2.3-0.3 4.5 1.1-2 2.2-3.9 1.1-2 2.3-3.9 1.2-1.9 2.4-3.7 1.3-1.8 2.7-3.6 0.3-0.4 0.6-0.8c-1.9-3.1-2.2-7.1-4.5-10-3.5-4.6-3.4-9.3 2.3-12.2 2.7-6.9 7.8-7.7 11.5-2.7 0.7 1 2 1.5 2.7 2.6-0.4 0.4 0.9 7.9 1.4 7.8q-0.1 0.7-0.3 1.3-0.1 0.7-0.3 1.3-0.2 0.6-0.5 1.3-0.3 0.6-0.6 1.2-0.8 1.6-1.8 3.1-1.1 1.5-2.4 2.9-1.3 1.3-2.7 2.4-1.5 1.1-3.1 2-3.4 4.2-6.2 8.8-2.9 4.6-5.1 9.4-2.3 4.9-4 10-1.7 5.1-2.8 10.4-0.8 3.9-1.2 7.9-0.2 1.2-0.3 2.4-0.1 1.2-0.1 2.4-0.1 1.2-0.1 2.4-0.1 1.2-0.1 2.5 0 4.8 0.6 9.6 0.5 4.8 1.5 9.5 1.1 4.7 2.6 9.3 1.5 4.6 3.5 8.9-0.2-0.9-0.3-1.9-0.2-0.9-0.2-1.9-0.1-1 0-1.9 0-1 0.1-2c0.8-5.8 3.7-11.3 6-16.8 0.5-1.4 1.5-2.6 2.7-3.4 1.3-0.9 2.7-1.3 4.2-1.3 1.5 0 3 0.4 4.2 1.2 1.3 0.8 2.3 2 2.9 3.4q0 0.1 0 0.2l-0.2 0.8c-0.4 0.3-0.7 0.9-0.8 1.4-0.1 0.6-0.1 1.2 0.1 1.7 0.3 0.6 0.7 1 1.1 1.3 0.5 0.3 1.1 0.5 1.7 0.5q0.3 1.1 0.5 2.3z"/><path class="c" d="m954.4 561.5q0 0.6-0.1 1.2h-82q-1.4 0-2.8-0.3-1.4-0.3-2.7-0.9-1.3-0.5-2.4-1.3-1.2-0.8-2.1-1.9 0-0.8 0.1-1.7c2.4-23.2 32.6-58.1 45.9-41.2 13.2 16.8 46.1 20.6 46.1 46.1z"/><path class="c" d="m998 561.8q0 0.4 0 0.9h-57.2q-1 0-1.9-0.2-1-0.2-1.9-0.6-0.9-0.4-1.7-1-0.8-0.5-1.5-1.3 0.1-0.5 0.1-1.1c1.7-16.2 27.2-44.7 32-28.8 12.1 40.6 31.9 16.2 32.1 32.1z"/><path fill-rule="evenodd" class="c" d="m1018.4 234.9c3.5 1.4 6.6 3.5 9.2 6.1 2.6 2.6 4.7 5.7 6.1 9.2 1.4 3.4 2.2 7.1 2.2 10.8 25.1 162.8 38.7 316 0 425.3 0 3.7-0.8 7.4-2.2 10.8-1.4 3.5-3.5 6.6-6.1 9.2-2.6 2.6-5.7 4.7-9.2 6.1-3.4 1.4-7.1 2.2-10.8 2.2h-806.3q-2.7 0-5.2-0.5-2.6-0.5-5-1.4-2.5-1-4.7-2.4-2.2-1.3-4.1-3.1-0.8-0.7-1.6-1.5-1.8-2-3.3-4.2-1.4-2.3-2.4-4.8-1-2.5-1.5-5.1-0.5-2.6-0.5-5.3v-425.3c0-3.7 0.7-7.4 2.2-10.8 1.4-3.5 3.5-6.6 6.1-9.2 2.6-2.6 5.7-4.7 9.2-6.1 3.4-1.4 7-2.2 10.8-2.2h806.3c3.7 0 7.4 0.8 10.8 2.2zm15 240.2c0-132.5-107.4-239.9-239.9-239.9h-592.2c-3.4 0-6.8 0.7-9.9 2-3.1 1.3-6 3.2-8.4 5.5-2.4 2.4-4.2 5.3-5.5 8.4-1.3 3.1-2 6.5-2 9.9v425.3q0 2.2 0.3 4.3 0.4 2.1 1.1 4.1 0.7 2 1.7 3.9 1.1 1.9 2.4 3.6 0.4 0.5 0.8 1 0.5 0.5 1 1 0.4 0.5 0.9 1 0.5 0.4 1 0.8 1.7 1.5 3.7 2.6 1.9 1.2 4 1.9 2.2 0.8 4.4 1.2 2.2 0.4 4.5 0.4h669.6c21.3 0 42.4-4.2 62.2-12.4 19.7-8.2 37.6-20.1 52.7-35.2 15.1-15.1 27-33 35.2-52.7 8.2-19.8 12.4-40.9 12.4-62.2z"/><path class="c" d="m355 656q0 0.6 0 1.3h-89q-1.5 0-3-0.3-1.5-0.3-2.9-0.9-1.4-0.6-2.6-1.5-1.3-0.9-2.3-2 0-0.9 0.1-1.8c2.7-25.2 28.6-30 49.7-44.8 23.8-16.6 49.6 20.5 50 50z"/><path class="c" d="m374.7 645.2c-0.2 0.2 0 0.6 0 0.9h-62q-1.1 0-2.1-0.2-1-0.2-2-0.6-1-0.5-1.9-1.1-0.8-0.6-1.6-1.4 0.1-0.6 0.2-1.2c1.8-17.6 16.6-30.7 34.6-31.2 33.5-1 50.8 14.5 34.8 34.8z"/><path class="c" d="m383.6 546.4q0 0.7 0 1.3h-88.9q-1.6 0-3-0.3-1.5-0.3-2.9-0.9-1.4-0.6-2.7-1.5-1.2-0.9-2.3-2 0.1-0.9 0.2-1.8c2.6-25.1 30.8-33.2 49.7-44.8 18.8-11.5 49.9 22.4 49.9 50z"/><path class="c" d="m403.4 535.6q-0.1 0.1-0.1 0.3 0 0.1 0 0.2 0 0.1 0 0.2 0 0.1 0 0.3h-62q-1 0-2.1-0.3-1-0.2-2-0.6-0.9-0.4-1.8-1-0.9-0.6-1.6-1.4 0-0.7 0.1-1.3c1.8-17.5 17.6-25.3 34.6-31.2 28.1-9.7 39.8 10.3 34.9 34.8z"/><path class="c" d="m445.7 553q0 0.2 0 0.3 0 0.1 0 0.2 0 0.1 0 0.2 0 0.1 0 0.3h-62q-1.1 0-2.1-0.3-1.1-0.2-2-0.6-1-0.4-1.9-1-0.9-0.6-1.6-1.4 0.1-0.7 0.1-1.3c1.8-17.5 22.1-18.3 34.7-31.2 11.6-11.9 32.2 11.6 34.8 34.8z"/><path class="c" d="m784.4 409.5h24.9v305.1h-24.9z"/><path class="d" d="m972.7 292.6c-1 6.5-2.6 12.9-4.8 19.1-2.2 6.2-5 12.2-8.4 17.9-3.4 5.6-7.4 10.9-11.8 15.8-8 8.8 24.1 33.8 13.5 39.2 0.6 8-42-1.5-44.5 6.1-7.3 22.3-26.4 39.5-48.3 47.8-20.3 7.7-42.7 8.2-64.1 4.6l-24.9 0.9c-18.7 5.1-37.8 10.3-57.1 9.1-19.5-1.1-39.5-9.7-49.5-26.4-4.3-7.3-11.2-17-6.5-23.8 22.9-32.6 19.8-54.6-20.4-56.4-6.3-0.2-6.9-10.4-9.2-16.2-9.6-24.6-3.6-54.6 14.8-73.5q0.1-0.2 0.3-0.4 0.2-0.1 0.4-0.3 0.2-0.1 0.4-0.2 0.3-0.1 0.5-0.2c31.8-12.4 50.3-45 43.8-78.5-1.6-8.7-1.4-16 1.8-20.9 21.2-32.2 62-50.3 100.2-44.5 12.1 1.9 24.5 6.8 33.6 14.7q3-1.9 6.2-3.6 3.1-1.6 6.5-2.9 3.3-1.3 6.7-2.2 3.5-0.9 7-1.4c26.3-3.9 54.3 9.5 67.7 32.5 10.6 18.1-3.8 30.3-6.5 51.4 7.1 3.5 29.3 17.2 34.5 23.1 12.1 13.4 18.2 31.5 19.1 49.5 0.3 6.5 0 13.1-1 19.7z"/><path class="e" d="m911.4 400.2c-9 17.7-25.6 31.2-44.2 38.3q-2.9 1.1-5.8 2-3 0.9-5.9 1.6-3 0.7-6 1.3-3.1 0.5-6.1 0.9c16.1-9.4 29.2-23.8 35-41.4 1.6-5 20.4-2.7 33-2.7z"/><path class="e" d="m961.2 384.6c0.4 6.1-23.9 2.1-36.8 3.1-5.2-9.8-19.4-23.9-13.7-30.1 17.8-19.5-10.5-57.7 26-72.6 36.5-14.9-7.1-36.1-19.1-49.5-1.8-1.9-10.9-0.9-22.4 1.3-23.6 4.5-40.1-22.7-25.2-41.5 16.2-20.4 29.8-37.5 19.6-34.2-64.2 20.5-87.5 3-67.8-32.6 4.6-8.3-18.4 5-26.3 10.2-9.1-8-21.5-12.8-33.7-14.7q-3.4-0.5-6.8-0.8-3.4-0.3-6.8-0.3-3.5 0-6.9 0.2-3.4 0.2-6.8 0.7c19.5-10.7 42.4-15.3 64.4-12 12.1 1.9 24.5 6.8 33.6 14.7q3-1.9 6.2-3.6 3.1-1.6 6.5-2.9 3.3-1.3 6.7-2.2 3.5-0.9 7-1.4c26.3-3.9 54.3 9.5 67.7 32.5 10.6 18.1-3.8 30.3-6.5 51.4 7.1 3.5 29.3 17.2 34.5 23.1 12.1 13.4 18.2 31.5 19.1 49.5 0.3 6.5 0 13.1-1 19.7-1 6.5-2.6 12.9-4.8 19.1-2.2 6.2-5 12.2-8.4 17.9-3.4 5.6-7.4 10.9-11.8 15.8-8 8.8 24.1 33.8 13.5 39.2z"/><path class="c" d="m682.6 486.1c-0.2-0.2-0.4-0.5-0.4-0.9 0-0.3 0.2-0.6 0.4-0.9 0.2-0.2 0.6-0.3 0.9-0.3h101.4c0.3 0 0.6 0.1 0.9 0.3 0.2 0.3 0.3 0.6 0.3 0.9 0 0.4-0.1 0.7-0.3 0.9-0.3 0.2-0.6 0.4-0.9 0.4h-101.4c-0.3 0-0.7-0.2-0.9-0.4z"/><path class="f" d="m820.8 585.5c-20.6-27.4-32.5-57.9-32.9-92.8q-0.5-1.4-0.4-2.9 0.1-1.5 0.7-2.8 0.7-1.4 1.8-2.4 1.1-1 2.5-1.5l70.1-24.8q1.4-0.5 2.9-0.4 1.5 0.1 2.8 0.7 1.4 0.7 2.4 1.8 1 1.1 1.5 2.5l32.8 92.8q0.5 1.4 0.4 2.9-0.1 1.5-0.7 2.8-0.6 1.4-1.8 2.4-1.1 1-2.5 1.5l-70 24.8q-1.5 0.5-2.9 0.4-1.5-0.1-2.9-0.7-1.3-0.7-2.3-1.8-1-1.1-1.5-2.5z"/><path class="b" d="m816.2 555.6c-12.3-12.5-17.6-34.8-21.1-59.7q-0.4-1.3-0.4-2.7 0.1-1.4 0.7-2.7 0.6-1.2 1.6-2.2 1.1-0.9 2.4-1.4l60.2-21.3q1.3-0.4 2.7-0.4 1.4 0.1 2.7 0.7 1.3 0.6 2.2 1.7 0.9 1 1.4 2.3l29.2 82.6q0.5 1.3 0.4 2.7-0.1 1.4-0.7 2.7-0.6 1.2-1.6 2.2-1.1 0.9-2.4 1.4l-37.3 13.2c-3.9 1.3-8 1.9-12.1 1.7-4.1-0.2-8.1-1.2-11.8-3-3.7-1.8-7.1-4.3-9.8-7.3-2.8-3.1-4.9-6.7-6.3-10.5z"/><path class="d" d="m869.4 514.4l-46.9 16.7c-0.7 0.3-1.6 0.3-2.3-0.1-0.7-0.3-1.3-0.9-1.5-1.7-0.3-0.7-0.2-1.5 0.1-2.3 0.3-0.7 0.9-1.2 1.7-1.5l46.9-16.7c0.7-0.3 1.6-0.3 2.3 0.1 0.7 0.3 1.3 0.9 1.5 1.7 0.3 0.7 0.2 1.5-0.1 2.3-0.3 0.7-0.9 1.2-1.7 1.5z"/><path class="d" d="m827.3 512l-10.3 3.7c-0.8 0.3-1.6 0.2-2.3-0.1-0.7-0.4-1.3-1-1.5-1.7-0.3-0.8-0.3-1.6 0.1-2.3 0.3-0.7 0.9-1.3 1.7-1.5l10.3-3.7c0.7-0.3 1.6-0.2 2.3 0.1 0.7 0.3 1.3 1 1.5 1.7 0.3 0.7 0.3 1.6-0.1 2.3-0.3 0.7-0.9 1.3-1.7 1.5z"/><path class="d" d="m878.2 539.1l-46.9 16.8c-0.7 0.3-1.5 0.2-2.3-0.1-0.7-0.4-1.2-1-1.5-1.7-0.3-0.8-0.2-1.6 0.1-2.3 0.4-0.7 1-1.3 1.7-1.5l46.9-16.8c0.8-0.3 1.6-0.2 2.3 0.1 0.7 0.4 1.3 1 1.6 1.7 0.2 0.8 0.2 1.6-0.2 2.3-0.3 0.7-0.9 1.3-1.7 1.5z"/><path class="d" d="m873.8 526.8l-46.9 16.7c-0.7 0.3-1.6 0.2-2.3-0.1-0.7-0.3-1.2-0.9-1.5-1.7-0.3-0.7-0.2-1.6 0.1-2.3 0.4-0.7 1-1.3 1.7-1.5l46.9-16.8c0.8-0.2 1.6-0.2 2.3 0.2 0.7 0.3 1.3 0.9 1.5 1.6 0.3 0.8 0.3 1.6-0.1 2.3-0.3 0.7-0.9 1.3-1.7 1.6z"/><circle class="d" cx="791.9" cy="490.2" r="12.5"/><path class="c" d="m701.1 172.7h-101.4c-0.3 0-0.6-0.1-0.8-0.4-0.3-0.2-0.4-0.5-0.4-0.8 0-0.4 0.1-0.7 0.4-0.9 0.2-0.3 0.5-0.4 0.8-0.4h101.4c0.4 0 0.7 0.1 0.9 0.4 0.2 0.2 0.4 0.5 0.4 0.9 0 0.3-0.2 0.6-0.4 0.8-0.2 0.3-0.5 0.4-0.9 0.4z"/><path class="f" d="m468.6 216.9c8.8-33.1 25.5-61.3 52.7-83.2q0.8-1.2 2-2.1 1.3-0.8 2.7-1.2 1.5-0.3 2.9 0 1.5 0.2 2.8 1l62.8 39.8q1.2 0.8 2.1 2 0.8 1.3 1.2 2.7 0.3 1.5 0 2.9-0.2 1.5-1 2.8l-52.7 83.1q-0.8 1.3-2 2.1-1.3 0.9-2.7 1.2-1.5 0.3-2.9 0.1-1.5-0.3-2.8-1.1l-62.8-39.8q-1.2-0.8-2.1-2-0.8-1.2-1.2-2.7-0.3-1.4 0-2.9 0.2-1.5 1-2.7z"/><path class="b" d="m489.3 194.8c2.2-17.4 16.5-35.4 33.9-53.4q0.8-1.2 1.9-2 1.2-0.8 2.5-1.1 1.4-0.3 2.8-0.1 1.3 0.3 2.5 1l54 34.2q1.2 0.7 2 1.9 0.8 1.1 1.1 2.5 0.3 1.4 0.1 2.7-0.3 1.4-1 2.6l-46.9 74q-0.8 1.2-1.9 2-1.2 0.8-2.5 1.1-1.4 0.3-2.8 0-1.3-0.2-2.5-0.9l-33.5-21.2c-3.4-2.2-6.4-5.1-8.8-8.5-2.4-3.3-4-7.1-4.9-11.2-0.9-4-1-8.1-0.3-12.2 0.7-4 2.1-7.9 4.3-11.4z"/><path class="d" d="m554.6 211.2l-42.2-26.5c-0.6-0.5-1.1-1.1-1.3-1.9-0.2-0.8 0-1.6 0.4-2.3 0.4-0.6 1.1-1.1 1.9-1.3 0.7-0.2 1.6 0 2.2 0.4l42.2 26.6c0.6 0.4 1.1 1 1.3 1.8 0.2 0.8 0 1.6-0.4 2.3-0.4 0.6-1.1 1.1-1.9 1.3-0.7 0.2-1.5 0-2.2-0.4z"/><path class="d" d="m530.4 176.6l-9.2-5.8c-0.7-0.4-1.2-1.1-1.3-1.9-0.2-0.7-0.1-1.6 0.3-2.2 0.5-0.7 1.1-1.2 1.9-1.3 0.8-0.2 1.6-0.1 2.3 0.3l9.2 5.9c0.7 0.4 1.2 1.1 1.4 1.8 0.1 0.8 0 1.6-0.4 2.3-0.5 0.7-1.1 1.1-1.9 1.3-0.8 0.2-1.6 0.1-2.3-0.4z"/><path class="d" d="m540.6 233.4l-42.2-26.5c-0.6-0.4-1.1-1.1-1.3-1.9-0.2-0.7 0-1.6 0.4-2.2 0.4-0.7 1.1-1.2 1.9-1.3 0.7-0.2 1.5-0.1 2.2 0.3l42.2 26.6c0.6 0.4 1.1 1.1 1.3 1.9 0.2 0.7 0 1.5-0.4 2.2-0.4 0.7-1.1 1.2-1.9 1.3-0.7 0.2-1.6 0.1-2.2-0.4z"/><path class="d" d="m547.6 222.3l-42.2-26.5c-0.6-0.4-1.1-1.1-1.3-1.9-0.2-0.8 0-1.6 0.4-2.2 0.4-0.7 1.1-1.2 1.9-1.4 0.7-0.1 1.6 0 2.2 0.4l42.2 26.6c0.6 0.4 1.1 1.1 1.3 1.8 0.2 0.8 0 1.6-0.4 2.3-0.4 0.7-1.1 1.1-1.9 1.3-0.7 0.2-1.5 0.1-2.2-0.4z"/><circle class="d" cx="592.7" cy="176.4" r="12.5"/><path class="d" d="m482.6 333h-131.8c-0.8 0-1.5-0.3-2.1-0.9-0.5-0.5-0.8-1.2-0.8-2 0-0.7 0.3-1.4 0.8-2 0.6-0.5 1.3-0.8 2.1-0.8h131.8c0.7 0 1.5 0.3 2 0.8 0.5 0.6 0.8 1.3 0.8 2 0 0.8-0.3 1.5-0.8 2-0.5 0.6-1.3 0.9-2 0.9z"/><path class="a" d="m549.3 359h-198.5c-0.8 0-1.5-0.3-2.1-0.9-0.5-0.5-0.8-1.2-0.8-2 0-0.7 0.3-1.5 0.8-2 0.6-0.5 1.3-0.8 2.1-0.8h198.5c0.8 0 1.5 0.3 2 0.8 0.6 0.5 0.9 1.3 0.9 2 0 0.8-0.3 1.5-0.9 2-0.5 0.6-1.2 0.9-2 0.9z"/><path class="a" d="m551.3 380.1c0.6 0.5 0.9 1.3 0.9 2 0 0.8-0.3 1.5-0.9 2-0.5 0.6-1.2 0.9-2 0.9h-198.5c-0.8 0-1.5-0.3-2.1-0.9-0.5-0.5-0.8-1.2-0.8-2 0-0.7 0.3-1.5 0.8-2 0.6-0.5 1.3-0.8 2.1-0.8h198.5c0.8 0 1.5 0.3 2 0.8z"/><path class="a" d="m549.3 410.9h-198.5c-0.8 0-1.5-0.3-2.1-0.8-0.5-0.5-0.8-1.2-0.8-2 0-0.8 0.3-1.5 0.8-2 0.6-0.5 1.3-0.8 2.1-0.8h198.5c0.8 0 1.5 0.3 2 0.8 0.6 0.5 0.9 1.3 0.9 2 0 0.8-0.3 1.5-0.9 2-0.5 0.5-1.2 0.8-2 0.8z"/><path class="g" d="m191.9 478.3c-1.2 2.7-3.8 4.5-6.7 4.7-2.9 0.3-5.7-1-7.4-3.4-1.6-2.4-1.9-5.5-0.6-8.2l3.6-51.6 16.3 1.2-6 49.2c1.7 2.4 2 5.5 0.8 8.1z"/><path class="f" d="m218 354.2c1.8 1.2 3.2 2.8 4.2 4.7 1.1 1.9 1.6 4 1.7 6.2 0 2.1-0.4 4.3-1.3 6.2l-12.9 26.8c0 0-3.2 1.7-7 3.2-3.7 1.5-0.7 2.3 2.5 5.6 3.2 3.2-3.2 0-5.2 2.6-2 2.6 3.9 20.5 3.9 20.5 0 0-26.7-3.5-28.3-5.1-1.6-1.6 2.9-2.3-0.7-4.5-3.5-2.3 0 0 2.6-1.3 2.6-1.3 1.6-1.6 0.7-5.2-0.8-2.6 12.4-36.3 19.3-53.6q0.8-2.1 2.3-3.8 1.5-1.8 3.5-2.9 2-1.2 4.2-1.6 2.3-0.5 4.5-0.1c2.2 0.2 4.2 1 6 2.3z"/><path class="g" d="m235.4 686.5v-34.3h13.2l-4.3 34.3h-8.9z"/><path class="h" d="m235.1 684.8h2.4l9.3-3.8 5 3.8c1.4 0 2.8 0.3 4.1 0.8 1.3 0.6 2.5 1.4 3.5 2.3 0.9 1 1.7 2.2 2.3 3.5 0.5 1.3 0.8 2.7 0.8 4.1v0.3h-27.4z"/><path class="g" d="m92.6 627.3l31.3-14 5.3 11.9-33 10.2-3.6-8.1z"/><path class="h" d="m94 626.3l1 2.2 7.3 6.9-1.4 6.1c0.5 1.3 0.8 2.7 0.9 4.1 0 1.4-0.2 2.8-0.7 4.1-0.5 1.3-1.3 2.5-2.2 3.5-1 1-2.1 1.8-3.4 2.4l-0.3 0.1-11.2-24.9z"/><circle class="g" cx="226.8" cy="314" r="17"/><path class="h" d="m256.9 469.1c0 0-4.2 25.1 0.3 24.1 4.5-1 0.1 5.3 0.1 5.3 0 0 5.4 5.6 0.1 10.4-5.3 4.8 1 6.5 1 6.5l10.4 70.5c0 0-8.8 61.2-13.4 65.2-4.5 4-3.5 6.1-1.6 11 1.9 4.8-4.5 8-4.5 8l-18.5-0.5 7.7-54.8-15.8-61.7-15.6 45.1c0 0-60 26.5-62 26.5q-1.4 0-2.8 0.3-1.4 0.3-2.7 0.9-1.3 0.5-2.5 1.2-1.1 0.7-2.2 1.7c-3 3-21.4 4-21.4 4l-7.1-16.2 82.9-42.1c0 0 6.6-46.4-1.7-62.8-8.3-16.4 5.3-42.6 5.3-42.6l64 2"/><path class="f" d="m241.7 352.2l5.8 15.6 5.8 82 7.1 28.4c1.1 4.1-54.3 7.8-69.1 6.1-14.9-1.6-2.1-27.4 4-33.5 6.1-6.1 1.1-3.1-2-6.1-3-3.1 2-2.1 3.1-3.1 0.3-0.3-0.6-5.4-2-12.5q-1.6-8.7-2.1-17.5-0.4-8.8 0.3-17.6 0.7-8.8 2.7-17.5 1.9-8.6 4.9-16.9c0.4-1.1 0.6-1.9 0.3-2.2-2-1.8 2-2.2 4.9-4.5 3-2.2 4.2 0.2 2.2-2.8-2.1-3.1 7.2-2.5 7.2-2.5l4.2-6.9 23.6 1.5z"/><path class="g" d="m247.2 493.4c-0.4 2.9-2.2 5.4-4.9 6.6-2.7 1.1-5.8 0.7-8.1-1-2.3-1.8-3.6-4.6-3.2-7.5l-12.8-50.2 15.8-4 9.9 48.6c2.3 1.7 3.6 4.6 3.3 7.5z"/><path class="f" d="m232.7 367.3c2 0.6 3.9 1.7 5.5 3.2 1.6 1.5 2.8 3.3 3.5 5.3 0.7 2 1 4.2 0.7 6.4l-3.7 29.5c0 0-2.6 2.5-5.7 5.1-3 2.6 0.1 2.5 4.1 4.6 4.1 2-3 1-4.1 4.1-1 3.1 10.2 18.2 10.2 18.2 0 0-26.4 5.1-28.4 4.1-2.1-1 2-3-2.1-4.1-4-1 0 0 2.1-2 2-2 1-2-1-5.1-1.6-2.2 0.3-38.4 1.4-56.9q0.1-2.3 1-4.4 0.8-2.2 2.3-3.9 1.6-1.7 3.5-2.8 2-1.2 4.3-1.6c2.1-0.4 4.3-0.3 6.4 0.3z"/><path class="h" d="m231.9 330.4q-0.8 0.6-1.6 1.1-0.8 0.6-1.7 1.1-0.9 0.5-1.8 1-0.9 0.4-1.8 0.9-0.9 0.4-1.9 0.6-0.9 0.3-2 0.4-1 0-2 0-1-0.1-1.9-0.4-1-0.3-1.9-0.8-0.9-0.5-1.6-1.2-0.8-0.7-1.3-1.6-0.6-0.8-1-1.8c-0.9-2.6-8.7-5.5-7.2-7.8q0.3-0.4 0.5-0.7 0.3-0.4 0.5-0.8 0.2-0.3 0.4-0.7 0.2-0.4 0.4-0.8 0.2-0.4 0.2-0.9 0-0.4-0.2-0.8-0.2-0.4-0.5-0.7-0.3-0.3-0.7-0.5-0.4-0.1-0.7 0-0.4 0.1-0.7 0.2-0.3 0.2-0.5 0.5-0.2 0.3-0.4 0.6-0.1 0.3-0.2 0.7-0.1 0.3-0.1 0.7-0.1 0.3-0.1 0.7 0 0.3 0.1 0.7-0.6-0.5-1-1.1-0.4-0.6-0.5-1.4-0.2-0.7-0.1-1.4 0-0.7 0.3-1.4l-2.6-1.3c2.3-0.9 10.9-4.5 9-6-1.6-1.3-6.9-5.4-6.3-6.9q0.3-0.6 0.6-1.1 0.3-0.5 0.6-1 0.4-0.5 0.8-0.9 0.4-0.5 0.8-0.9c2.3-2.3 4.8-4.8 8-5.5 2.8-0.6 5.6 0.3 8.3 1.1 2.7 0.7 5.6 1.4 8.3 0.5 2.6-1 4.6-4.2 3.3-6.7q0.7 0 1.5 0.2 0.7 0.2 1.4 0.6 0.6 0.5 1.1 1 0.5 0.6 0.8 1.3l0.5-4.2q0.7 0.2 1.5 0.5 0.7 0.3 1.4 0.6 0.7 0.4 1.3 0.9 0.6 0.4 1.2 0.9c1.5 1.5 2.1 4 0.8 5.7-1.4 1.8-4.5 2.1-5.3 4.2-0.7 1.9 0.8 3.8 2.1 5.4 1.4 1.5 2.5 3.9 1.1 5.4-1.1 1.2-3.1 0.8-4.7 1.2-2.5 0.7-4 3.3-4.3 5.8q0 0.9 0 1.9 0 0.9 0.1 1.9 0 0.9 0.2 1.8 0.1 1 0.3 1.9 0.1 0.9 0.2 1.9 0 0.9-0.2 1.9-0.1 0.9-0.4 1.8-0.3 0.9-0.8 1.7"/><path class="c" d="m242.7 319.9c-1.7 0-3.6-0.7-3.6-2.4v-11c0-1.8 1.9-1.6 3.6-1.6 4.4-2.9 8 1.4 8.2 7.1-0.1 6.1-3.5 10-8.2 7.9z"/><path class="d" d="m241.8 303.6q0.7 0.3 1.2 0.8 0.6 0.6 0.9 1.3 0.3 0.7 0.3 1.5c-2.1 2.9-1.8 6.1 0 9.6q0 0.7-0.3 1.4-0.3 0.7-0.9 1.3-0.5 0.5-1.2 0.8-0.7 0.3-1.5 0.3h-5.5q-0.8 0-1.5-0.3-0.7-0.3-1.2-0.8-0.6-0.6-0.9-1.3-0.3-0.7-0.3-1.4l-6.8-5.6-18.1 0.3c-0.6 0-1.3-0.3-1.8-0.8-0.4-0.5-0.7-1.1-0.7-1.8 0-0.7 0.3-1.3 0.7-1.8 0.5-0.5 1.2-0.7 1.8-0.7 5.7-3.2 9.5-3.2 19.3-1.5 0.4-1.7 7.6-1.6 9.5-1.6h5.5q0.8 0 1.5 0.3z"/></svg>