<svg version="1.2" xmlns="http://www.w3.org/2000/svg" viewBox="0 0 744 540" width="744" height="540">
	<title>undraw_education_f8ru-svg</title>
	<style>
		.s0 { fill: #f2f2f2 } 
		.s1 { fill: #6c63ff } 
		.s2 { fill: #cccccc } 
		.s3 { fill: #ffb6b6 } 
		.s4 { fill: #2f2e41 } 
		.s5 { fill: #3f3d56 } 
		.s6 { fill: #ffb8b8 } 
		.s7 { opacity: .2;fill: #000000 } 
	</style>
	<path id="Layer" class="s0" d="m474.1 404.3v130h-325.7c-37.1 0-67.3-29.2-67.3-65c0-35.9 30.2-65 67.3-65z"/>
	<path id="Layer" class="s1" d="m482.1 533.3q0 1-0.4 1.9q-0.3 0.9-1.1 1.6q-0.7 0.7-1.6 1.1q-0.9 0.4-1.9 0.4h-334.5c-18.2 0-35.6-7.2-48.4-20.1c-12.9-12.8-20.1-30.2-20.1-48.4c0-18.2 7.2-35.6 20.1-48.5c12.8-12.8 30.2-20 48.4-20h334.5c1.3 0 2.6 0.5 3.5 1.5c1 0.9 1.5 2.2 1.5 3.5c0 1.3-0.5 2.6-1.5 3.5c-0.9 1-2.2 1.5-3.5 1.5h-334.5c-15.5 0-30.4 6.1-41.4 17.1c-10.9 11-17.1 25.9-17.1 41.4c0 15.5 6.2 30.4 17.1 41.4c11 10.9 25.9 17.1 41.4 17.1h334.5q1 0 1.9 0.4q0.9 0.3 1.6 1.1q0.8 0.7 1.1 1.6q0.4 0.9 0.4 1.9z"/>
	<path id="Layer" class="s2" d="m474.1 434.3h-350q-0.4 0-0.7-0.3q-0.3-0.3-0.3-0.7q0-0.4 0.3-0.7q0.3-0.3 0.7-0.3h350q0.4 0 0.7 0.3q0.3 0.3 0.3 0.7q0 0.4-0.3 0.7q-0.3 0.3-0.7 0.3z"/>
	<path id="Layer" class="s2" d="m474.1 458.3h-350q-0.4 0-0.7-0.3q-0.3-0.3-0.3-0.7q0-0.4 0.3-0.7q0.3-0.3 0.7-0.3h350q0.4 0 0.7 0.3q0.3 0.3 0.3 0.7q0 0.4-0.3 0.7q-0.3 0.3-0.7 0.3z"/>
	<path id="Layer" class="s2" d="m474.1 482.3h-350q-0.4 0-0.7-0.3q-0.3-0.3-0.3-0.7q0-0.4 0.3-0.7q0.3-0.3 0.7-0.3h350q0.4 0 0.7 0.3q0.3 0.3 0.3 0.7q0 0.4-0.3 0.7q-0.3 0.3-0.7 0.3z"/>
	<path id="Layer" class="s2" d="m474.1 506.3h-350q-0.4 0-0.7-0.3q-0.3-0.3-0.3-0.7q0-0.4 0.3-0.7q0.3-0.3 0.7-0.3h350q0.4 0 0.7 0.3q0.3 0.3 0.3 0.7q0 0.4-0.3 0.7q-0.3 0.3-0.7 0.3z"/>
	<path id="Layer" class="s0" d="m725.8 428.8l-81.5 101.2l-253.6-204.4c-28.9-23.2-34.2-64.9-11.7-92.8c22.5-27.9 64.3-31.7 93.2-8.4z"/>
	<path id="Layer" class="s2" d="m649.1 538.2q-0.6 0.8-1.5 1.3q-0.8 0.5-1.8 0.6q-1 0.1-2-0.2q-0.9-0.3-1.7-0.9l-260.5-209.9c-14.1-11.4-23.2-27.9-25.1-46c-1.9-18.1 3.4-36.2 14.8-50.3c11.4-14.2 27.9-23.2 46-25.1c18-2 36.1 3.3 50.3 14.7l260.4 209.9c1.1 0.8 1.7 2 1.9 3.4c0.1 1.3-0.3 2.6-1.1 3.6c-0.8 1.1-2 1.7-3.4 1.9c-1.3 0.1-2.6-0.3-3.6-1.1l-260.5-209.9c-12.1-9.7-27.5-14.3-43-12.6c-15.4 1.6-29.5 9.4-39.3 21.5c-9.7 12-14.2 27.5-12.6 42.9c1.7 15.5 9.4 29.6 21.5 39.3l260.5 209.9q0.7 0.6 1.2 1.5q0.5 0.9 0.6 1.9q0.1 0.9-0.2 1.9q-0.3 1-0.9 1.7z"/>
	<path id="Layer" class="s2" d="m707 452.1l-272.5-219.6q-0.3-0.2-0.4-0.7q0-0.4 0.2-0.7q0.3-0.3 0.7-0.4q0.4 0 0.7 0.3l272.6 219.6q0.3 0.2 0.3 0.6q0.1 0.4-0.2 0.8q-0.2 0.3-0.7 0.3q-0.4 0.1-0.7-0.2z"/>
	<path id="Layer" class="s2" d="m692 470.8l-272.6-219.6q-0.3-0.3-0.4-0.7q0-0.4 0.3-0.7q0.2-0.3 0.6-0.4q0.4 0 0.8 0.3l272.5 219.5q0.3 0.3 0.4 0.7q0 0.4-0.2 0.8q-0.3 0.3-0.7 0.3q-0.4 0.1-0.7-0.2z"/>
	<path id="Layer" class="s2" d="m676.9 489.5l-272.5-219.6q-0.4-0.3-0.4-0.7q-0.1-0.4 0.2-0.7q0.3-0.3 0.7-0.4q0.4 0 0.7 0.2l272.5 219.6q0.4 0.3 0.4 0.7q0.1 0.4-0.2 0.7q-0.3 0.4-0.7 0.4q-0.4 0-0.7-0.2z"/>
	<path id="Layer" class="s2" d="m661.8 508.2l-272.5-219.6q-0.3-0.3-0.4-0.7q0-0.4 0.2-0.7q0.3-0.3 0.7-0.4q0.4 0 0.8 0.2l272.5 219.6q0.3 0.3 0.4 0.7q0 0.4-0.3 0.7q-0.2 0.3-0.6 0.4q-0.4 0-0.8-0.2z"/>
	<path id="Layer" class="s2" d="m743 539.3h-742q-0.4 0-0.7-0.3q-0.3-0.3-0.3-0.7q0-0.4 0.3-0.7q0.3-0.3 0.7-0.3h742q0.4 0 0.7 0.3q0.3 0.3 0.3 0.7q0 0.4-0.3 0.7q-0.3 0.3-0.7 0.3z"/>
	<path id="Layer" class="s3" d="m221.6 390.8h-9.4l-4.5-36.4h13.9v36.4z"/>
	<path id="Layer" class="s3" d="m373.7 356.4l-6.4 6.9l-29.6-21.5l9.4-10.1l26.6 24.7z"/>
	<path id="Layer" class="s4" d="m382 360.9l-20.7 22.2l-0.3-0.3c-1.1-1-2-2.3-2.7-3.7c-0.6-1.4-1-3-1-4.5c-0.1-1.6 0.2-3.1 0.7-4.6c0.6-1.4 1.4-2.7 2.4-3.9l0.7-6.9l10.2-4.7l1.8-1.9z"/>
	<path id="Layer copy" class="s4" d="m223.1 402.8l-30.4 0.7v-0.4c0-1.5 0.3-3.1 0.8-4.5c0.6-1.4 1.4-2.8 2.5-3.9c1.1-1.1 2.3-2 3.8-2.6c1.4-0.7 2.9-1 4.5-1l5.4-4.4l10.4 4l2.7-0.1z"/>
	<path id="Layer" class="s4" d="m359.8 336l-10 20.8l-61.1-40.4l-8.9-12.1l-29.1-39.8l-11.9 18.8l-8.2 19.7q-2 1.3-3.7 3q-1.7 1.8-2.9 3.8q-1.3 2.1-2.1 4.3q-0.8 2.3-1 4.7l-0.4 3.5l5.2 46.8l-19.8 6.1l-11.3-62.9l3.7-13.6l3.8-19.2l19.3-60.4h51.5l29.6 62.9l2.2 12.8l8.3 9.6z"/>
	<path id="Layer" class="s5" d="m252.6 120.1l8.7 6.6l10.5 3.3c0 0 4.3 60.8 8.2 64.7c3.9 3.9 0.4 4 1.1 9.1c0.8 5.1 2.7 15.4 2.7 15.4c-26.3 14-49 14.3-67.2-2q-0.2-0.7-0.1-1.5q0.1-0.8 0.4-1.5q0.4-0.7 0.9-1.2q0.6-0.5 1.3-0.9c3.4-1.8-3.1-10.2-0.4-11.6c2.8-1.4-1.1-13.6-1.1-13.6l2.6-25.4l-2.1-4.1l5-24.8l8.5-3.2l3.4-8.2z"/>
	<path id="Layer" class="s3" d="m258 228.3c0-1.1 0.2-2.2 0.6-3.2c0.5-1 1.1-1.9 1.9-2.6c0.9-0.8 1.8-1.3 2.9-1.7c1-0.3 2.1-0.4 3.2-0.2l12.3-23.8l6.8 12.1l-12.7 20.8c-0.4 1.8-1.4 3.4-2.9 4.5c-1.5 1.1-3.3 1.6-5.2 1.4c-1.8-0.1-3.5-1-4.8-2.3c-1.3-1.4-2-3.1-2.1-5z"/>
	<path id="Layer" class="s5" d="m269.1 213.5l14.7-32.1l-4.2-5.6q-2.8-3.7-5.1-7.7q-2.4-4-4.3-8.2q-1.8-4.2-3.2-8.6q-1.4-4.5-2.2-9q-0.4-1.9-0.1-3.8q0.3-1.9 1.3-3.6q0.9-1.7 2.3-3q1.4-1.3 3.2-2l0.1-0.1l0.1 0.1q1.8 0.6 3.5 1.4q1.7 0.9 3.2 2q1.5 1.2 2.8 2.6q1.3 1.3 2.3 2.9c1.3 1.9 3.4 5.8 5.8 10.6q0.5 1 1.1 2.1q1.3 2.6 2.6 5.3c5.8 11.8 11.7 24.6 11.8 24.8l0.1 0.2l-26.3 40.7z"/>
	<path id="Layer" class="s3" d="m188.4 66.6c0.8 0.9 1.3 1.8 1.6 2.9c0.3 1.1 0.4 2.2 0.2 3.3c-0.2 1-0.6 2.1-1.2 3c-0.6 0.9-1.4 1.7-2.4 2.2l5.5 26.2l-12.9-5.1l-3.2-24.1c-0.9-1.6-1.1-3.5-0.6-5.3c0.4-1.8 1.5-3.4 3.1-4.4c1.5-1 3.4-1.5 5.2-1.2c1.8 0.2 3.5 1.1 4.7 2.5z"/>
	<path id="Layer" class="s5" d="m189.2 85.1l8.7 34.2l6.9 1.7q4.5 1.1 8.8 2.7q4.3 1.7 8.4 3.8q4.2 2.1 8 4.6q3.8 2.6 7.4 5.6q1.4 1.3 2.4 2.9q0.9 1.7 1.3 3.6q0.4 1.9 0.1 3.8q-0.3 1.9-1.2 3.6l-0.1 0.1h-0.1q-1.8 0.7-3.6 1.1q-1.9 0.4-3.7 0.4q-1.9 0.1-3.8-0.2q-1.9-0.2-3.7-0.8c-3.5-1.1-12.5-5.1-21.4-9.3c-1-0.5-3.6 1.2-4.6 0.8c-1.4-0.7-1.2-3.5-2.6-4.2c-8.1-3.9-14.7-7.1-14.9-7.2l-0.2-0.1l-5.2-48.1z"/>
	<circle id="Layer" class="s3" cx="243.4" cy="100.2" r="17.2"/>
	<path id="Layer" class="s4" d="m226.3 88.7c1.4-4.1 8.5-6.9 19.8-7.3c11.4-0.4 14.3 13 14.3 13c7.6 6.2-8.1 22.7-8.9 22.1l0.4-3.1c0.6-5.1 3-9.2-0.1-14.5h-2.9q-5.7 1.1-11.4 2.2l4.5-3.9l-0.2-0.2q-0.7 0.3-1.4 0.6q-0.8 0.3-1.5 0.6q-0.8 0.2-1.6 0.4q-0.8 0.1-1.6 0.2c-2.4 0.2-5.1-0.8-6.2-2.9q-0.1-0.2-0.2-0.5q-0.1-0.2-0.2-0.4q-0.1-0.3-0.1-0.5q0-0.3-0.1-0.5c-3.2 1.3-4.7 5.3-4.7 5.3c0 0 0.7-6.5 2.1-10.6z"/>
	<path id="Layer" class="s6" d=""/>
	<path id="Layer" class="s1" d="m244.6 94.4q-2.4-0.4-4.7-0.9q-2.3-0.6-4.6-1.4q-2.2-0.8-4.4-1.9q-2.2-1-4.2-2.3q-0.2-0.1-0.4-0.3q-0.2-0.3-0.3-0.5q-0.2-0.3-0.2-0.6q-0.1-0.2 0-0.5l2.1-15.9q0-0.4 0.2-0.7q0.2-0.4 0.5-0.6q0.3-0.2 0.7-0.3q0.4-0.1 0.8-0.1l35.3 4.6q0.4 0.1 0.7 0.3q0.3 0.2 0.6 0.5q0.2 0.3 0.3 0.7q0.1 0.4 0.1 0.8l-2.1 15.8q-0.1 0.3-0.2 0.6q-0.1 0.2-0.3 0.4q-0.2 0.3-0.4 0.4q-0.2 0.2-0.5 0.3q-2.3 0.7-4.7 1.1q-2.3 0.5-4.7 0.7q-2.4 0.2-4.8 0.1q-2.4 0-4.8-0.3z"/>
	<path id="Layer" class="s1" d="m246.3 81.5q-0.1 0-0.2 0q-0.1 0-0.2-0.1q-0.1 0-0.2 0q-0.1-0.1-0.1-0.1l-26.5-15.5q-0.5-0.3-0.7-0.9q-0.3-0.5-0.2-1.1q0.1-0.6 0.5-1q0.4-0.5 1-0.6l29.3-7q0.2 0 0.4 0q0.2 0 0.4 0q0.1 0 0.3 0.1q0.2 0 0.3 0.1l26.2 14.3q0.6 0.2 0.9 0.8q0.2 0.5 0.2 1.1q-0.1 0.6-0.5 1.1q-0.4 0.4-1 0.6l-29.1 8.2q-0.1 0-0.2 0q-0.1 0-0.2 0q-0.1 0-0.2 0q-0.1 0-0.2 0z"/>
	<circle id="Layer" class="s5" cx="229" cy="86.7" r="3"/>
	<path id="Layer" class="s7" d="m276.8 71.5q0.1 0 0.3-0.1q0.1-0.1 0.2-0.2q0.1-0.1 0.2-0.2q0.1 0.4 0.1 0.7q0 0.4-0.2 0.7q-0.1 0.4-0.4 0.6q-0.3 0.3-0.7 0.4l-29.1 8.1q-0.2 0.1-0.4 0.1q-0.1 0-0.3 0q-0.2 0-0.4-0.1q-0.1 0-0.3-0.1l-26.4-15.5q-0.3-0.2-0.6-0.5q-0.2-0.3-0.2-0.7q-0.1-0.3 0-0.7q0.1-0.4 0.3-0.7q0 0.1 0.1 0.3q0.1 0.1 0.2 0.2q0.1 0.1 0.2 0.2q0.1 0.1 0.2 0.2l26.4 15.4q0.2 0.1 0.4 0.2q0.1 0 0.3 0.1q0.2 0 0.4 0q0.1 0 0.3-0.1l29.2-8.2q0.1 0 0.2-0.1z"/>
	<path id="Layer" class="s5" d="m229.1 86.6q-0.1 0-0.1-0.1q-0.1-0.1-0.1-0.1q0-0.1 0-0.2l1.9-14.6q0-0.1 0-0.2q0 0 0.1-0.1q0-0.1 0.1-0.2q0 0 0.1-0.1q0.1 0 0.2-0.1q0 0 0.1 0q0.1 0 0.2-0.1q0.1 0 0.2 0.1l15-3.4q0.2 0 0.3 0.2q0.1 0.1 0.1 0.3q0 0.2-0.2 0.3q-0.1 0.1-0.3 0.1l-15.1 3.3l-1.9 14.6q0 0.1 0 0.2q-0.1 0-0.1 0.1q-0.1 0-0.2 0.1q-0.1 0-0.2 0q0 0-0.1-0.1z"/>
</svg>