<svg id="ORNAMENT_4" data-name="ORNAMENT 4" xmlns="http://www.w3.org/2000/svg" viewBox="0 0 500 500"><defs><style>.cls-1{fill:#e9f3ff;}.cls-2{fill:#404b7c;}.cls-3{fill:#ecbdbb;}.cls-4{fill:#9ab3da;}.cls-5{fill:#fff;}.cls-6{fill:#f68d88;}</style></defs><title>Report</title><circle class="cls-1" cx="90.25" cy="270" r="7.88"/><circle class="cls-1" cx="70.63" cy="259.88" r="2.25"/><circle class="cls-1" cx="329.25" cy="111.29" r="3.38"/><circle class="cls-1" cx="259.25" cy="47.63" r="5.5"/><circle class="cls-1" cx="273.41" cy="56.47" r="1.85"/><circle class="cls-1" cx="235.46" cy="36.93" r="1.55"/><circle class="cls-1" cx="141.31" cy="48.75" r="4.38"/><circle class="cls-1" cx="127.41" cy="40.74" r="1.91"/><path class="cls-2" d="M226.25,49.33a0.5,0.5,0,0,1-.5-0.5V45.5a0.5,0.5,0,0,1,1,0v3.33A0.5,0.5,0,0,1,226.25,49.33Z"/><path class="cls-2" d="M231.81,51.56h-3.33a0.5,0.5,0,1,1,0-1h3.33A0.5,0.5,0,0,1,231.81,51.56Z"/><path class="cls-2" d="M226.25,57.13a0.5,0.5,0,0,1-.5-0.5V53.3a0.5,0.5,0,1,1,1,0v3.33A0.5,0.5,0,0,1,226.25,57.13Z"/><path class="cls-2" d="M224,51.56h-3.33a0.5,0.5,0,0,1,0-1H224A0.5,0.5,0,1,1,224,51.56Z"/><path class="cls-2" d="M162.14,276.22a0.5,0.5,0,0,1-.5-0.5V272.4a0.5,0.5,0,0,1,1,0v3.33A0.5,0.5,0,0,1,162.14,276.22Z"/><path class="cls-2" d="M167.7,278.46h-3.33a0.5,0.5,0,0,1,0-1h3.33A0.5,0.5,0,1,1,167.7,278.46Z"/><path class="cls-2" d="M162.14,284a0.5,0.5,0,0,1-.5-0.5v-3.33a0.5,0.5,0,0,1,1,0v3.33A0.5,0.5,0,0,1,162.14,284Z"/><path class="cls-2" d="M159.91,278.46h-3.33a0.5,0.5,0,0,1,0-1h3.33A0.5,0.5,0,0,1,159.91,278.46Z"/><path class="cls-2" d="M65.06,234.93a0.5,0.5,0,0,1-.5-0.5V231.1a0.5,0.5,0,0,1,1,0v3.33A0.5,0.5,0,0,1,65.06,234.93Z"/><path class="cls-2" d="M70.63,237.16H67.3a0.5,0.5,0,1,1,0-1h3.33A0.5,0.5,0,0,1,70.63,237.16Z"/><path class="cls-2" d="M65.06,242.73a0.5,0.5,0,0,1-.5-0.5V238.9a0.5,0.5,0,1,1,1,0v3.33A0.5,0.5,0,0,1,65.06,242.73Z"/><path class="cls-2" d="M62.83,237.16H59.5a0.5,0.5,0,0,1,0-1h3.33A0.5,0.5,0,1,1,62.83,237.16Z"/><path class="cls-2" d="M271,263.7a0.5,0.5,0,0,1-.5-0.5v-3.33a0.5,0.5,0,0,1,1,0v3.33A0.5,0.5,0,0,1,271,263.7Z"/><path class="cls-2" d="M276.56,265.94h-3.33a0.5,0.5,0,1,1,0-1h3.33A0.5,0.5,0,0,1,276.56,265.94Z"/><path class="cls-2" d="M271,271.5a0.5,0.5,0,0,1-.5-0.5v-3.33a0.5,0.5,0,1,1,1,0V271A0.5,0.5,0,0,1,271,271.5Z"/><path class="cls-2" d="M268.77,265.94h-3.33a0.5,0.5,0,0,1,0-1h3.33A0.5,0.5,0,1,1,268.77,265.94Z"/><path class="cls-2" d="M321.33,95.37a0.5,0.5,0,0,1-.5-0.5V91.54a0.5,0.5,0,0,1,1,0v3.33A0.5,0.5,0,0,1,321.33,95.37Z"/><path class="cls-2" d="M326.9,97.6h-3.33a0.5,0.5,0,0,1,0-1h3.33A0.5,0.5,0,0,1,326.9,97.6Z"/><path class="cls-2" d="M321.33,103.17a0.5,0.5,0,0,1-.5-0.5V99.34a0.5,0.5,0,0,1,1,0v3.33A0.5,0.5,0,0,1,321.33,103.17Z"/><path class="cls-2" d="M319.1,97.6h-3.33a0.5,0.5,0,0,1,0-1h3.33A0.5,0.5,0,0,1,319.1,97.6Z"/><path class="cls-1" d="M57,42.12a35.13,35.13,0,1,0,49.67,0A35.12,35.12,0,0,0,57,42.12ZM94.13,79.22a17.33,17.33,0,1,1,0-24.52A17.33,17.33,0,0,1,94.13,79.22Z"/><path class="cls-3" d="M81.87,33.85V47.64A19.33,19.33,0,1,1,62.55,67H48.76A33.12,33.12,0,1,0,81.87,33.85Z"/><rect class="cls-4" x="188.03" y="244.33" width="17.18" height="229.34"/><polygon class="cls-2" points="188.03 244.34 205.22 244.34 205.22 260.79 188.03 262.38 188.03 244.34"/><polygon class="cls-4" points="156.49 244.34 149.19 266 79.22 473.68 62.03 473.68 131.44 267.65 139.29 244.34 156.49 244.34"/><polygon class="cls-2" points="139.29 244.34 156.49 244.34 149.19 266 131.44 267.65 139.29 244.34"/><polygon class="cls-4" points="331.21 473.68 314.04 473.68 241.19 257.44 236.76 244.34 253.96 244.34 257.85 255.88 331.21 473.68"/><polygon class="cls-2" points="257.85 255.88 241.19 257.44 236.76 244.34 253.96 244.34 257.85 255.88"/><rect class="cls-1" x="85.04" y="73.96" width="223" height="172"/><rect class="cls-4" x="82.38" y="71.58" width="228.5" height="8"/><rect class="cls-4" x="82.38" y="240.33" width="228.5" height="8"/><path class="cls-2" d="M154.36,69.25h84.53a2.52,2.52,0,0,1,2.52,2.52v9.84A6.39,6.39,0,0,1,235,88H158.23a6.39,6.39,0,0,1-6.39-6.39V71.77A2.52,2.52,0,0,1,154.36,69.25Z"/><circle class="cls-5" cx="159.34" cy="77.5" r="2.69"/><circle class="cls-5" cx="233.91" cy="77.5" r="2.69"/><path class="cls-4" d="M180.41,64.5h32.44a1,1,0,0,1,1,1v3.78a0,0,0,0,1,0,0H179.44a0,0,0,0,1,0,0V65.47A1,1,0,0,1,180.41,64.5Z"/><path class="cls-3" d="M259.24,138.45l-28.17,28.17a39.86,39.86,0,0,1,0-56.34Z"/><path class="cls-5" d="M299.08,138.45H259.24V98.63A39.84,39.84,0,0,1,299.08,138.45Z"/><path class="cls-4" d="M299.08,138.45a39.84,39.84,0,0,1-68,28.17l28.17-28.17h39.84Z"/><path class="cls-2" d="M259.24,98.63v39.83l-28.17-28.17A39.75,39.75,0,0,1,259.24,98.63Z"/><rect class="cls-1" x="227.17" y="130.75" width="14.88" height="5.12" rx="0.75" ry="0.75"/><rect class="cls-1" x="227.17" y="139" width="14.88" height="5.12" rx="0.75" ry="0.75"/><rect class="cls-5" x="253.75" y="189" width="35.63" height="6.63" rx="1.44" ry="1.44"/><rect class="cls-5" x="264.75" y="204.13" width="24.63" height="6.63" rx="1.44" ry="1.44"/><rect class="cls-5" x="278.63" y="219.25" width="10.75" height="6.63" rx="1.44" ry="1.44"/><rect class="cls-4" x="97" y="215.87" width="20.38" height="15.38" rx="2.94" ry="2.94"/><rect class="cls-4" x="125.5" y="215.88" width="84.56" height="15.38" rx="2.94" ry="2.94"/><rect class="cls-3" x="96.04" y="111.96" width="22.8" height="76"/><rect class="cls-3" x="141.65" y="127.16" width="22.8" height="15.2"/><rect class="cls-3" x="164.45" y="142.36" width="22.8" height="15.2"/><rect class="cls-3" x="164.45" y="172.76" width="22.8" height="15.2"/><path class="cls-2" d="M210.06,112.46H96a0.5,0.5,0,0,1,0-1h114A0.5,0.5,0,0,1,210.06,112.46Z"/><path class="cls-2" d="M210.06,127.66H96a0.5,0.5,0,0,1,0-1h114A0.5,0.5,0,0,1,210.06,127.66Z"/><path class="cls-2" d="M210.06,142.86H96a0.5,0.5,0,0,1,0-1h114A0.5,0.5,0,0,1,210.06,142.86Z"/><path class="cls-2" d="M210.06,158.06H96a0.5,0.5,0,0,1,0-1h114A0.5,0.5,0,0,1,210.06,158.06Z"/><path class="cls-2" d="M210.06,173.26H96a0.5,0.5,0,1,1,0-1h114A0.5,0.5,0,0,1,210.06,173.26Z"/><path class="cls-2" d="M210.06,188.46H96a0.5,0.5,0,0,1,0-1h114A0.5,0.5,0,0,1,210.06,188.46Z"/><line class="cls-5" x1="96.04" y1="187.96" x2="96.04" y2="111.96"/><path class="cls-2" d="M96,188.46a0.5,0.5,0,0,1-.5-0.5V112a0.5,0.5,0,0,1,1,0v76A0.5,0.5,0,0,1,96,188.46Z"/><line class="cls-5" x1="118.85" y1="187.96" x2="118.85" y2="111.96"/><path class="cls-2" d="M118.85,188.46a0.5,0.5,0,0,1-.5-0.5V112a0.5,0.5,0,0,1,1,0v76A0.5,0.5,0,0,1,118.85,188.46Z"/><line class="cls-5" x1="141.65" y1="187.96" x2="141.65" y2="111.96"/><path class="cls-2" d="M141.65,188.46a0.5,0.5,0,0,1-.5-0.5V112a0.5,0.5,0,0,1,1,0v76A0.5,0.5,0,0,1,141.65,188.46Z"/><line class="cls-5" x1="164.45" y1="187.96" x2="164.45" y2="111.96"/><path class="cls-2" d="M164.45,188.46a0.5,0.5,0,0,1-.5-0.5V112a0.5,0.5,0,0,1,1,0v76A0.5,0.5,0,0,1,164.45,188.46Z"/><line class="cls-5" x1="187.26" y1="187.96" x2="187.26" y2="111.96"/><path class="cls-2" d="M187.26,188.46a0.5,0.5,0,0,1-.5-0.5V112a0.5,0.5,0,1,1,1,0v76A0.5,0.5,0,0,1,187.26,188.46Z"/><line class="cls-5" x1="210.06" y1="187.96" x2="210.06" y2="111.96"/><path class="cls-2" d="M210.06,188.46a0.5,0.5,0,0,1-.5-0.5V112a0.5,0.5,0,0,1,1,0v76A0.5,0.5,0,0,1,210.06,188.46Z"/><rect class="cls-2" x="96.04" y="103.88" width="114.02" height="8.08"/><path class="cls-2" d="M210.06,112.46H96a0.5,0.5,0,0,1-.5-0.5v-8.08a0.5,0.5,0,0,1,.5-0.5h114a0.5,0.5,0,0,1,.5.5V112A0.5,0.5,0,0,1,210.06,112.46Zm-113.52-1h113v-7.08h-113v7.08Z"/><circle class="cls-3" cx="95.38" cy="90.5" r="3.5"/><circle class="cls-3" cx="110.13" cy="90.5" r="3.5"/><circle class="cls-3" cx="124.88" cy="90.5" r="3.5"/><rect class="cls-2" x="227.63" y="201.62" width="7.63" height="7.63" rx="1.25" ry="1.25"/><path class="cls-5" d="M224.38,205.94H206.13a0.5,0.5,0,0,1-.46-0.3l-10.37-23.31a0.5,0.5,0,0,1,.91-0.41l10.24,23h17.93A0.5,0.5,0,0,1,224.38,205.94Z"/><path class="cls-5" d="M152.38,205.94H141.13a0.5,0.5,0,0,1,0-1h10.75V135.87a0.5,0.5,0,0,1,1,0v69.57A0.5,0.5,0,0,1,152.38,205.94Z"/><rect class="cls-2" x="129.31" y="201.62" width="7.63" height="7.63" rx="1.25" ry="1.25"/><path class="cls-3" d="M395.29,436.29l-0.86,4.89c-0.77,4.51-1.81,10.53-1.81,10.69s-4.92,1.67-4.92,1.67l-5.16-2,0.56-8,0.52-7.37Z"/><path class="cls-2" d="M395.29,436.29l-0.86,4.89c-2.63.55-7.39,1.57-11.33,2.39l0.52-7.37Z"/><path class="cls-2" d="M382.13,449.63a19.85,19.85,0,0,0,11.67.33s10.5,7.58,17.17,10,13,4.17,13,14.67H376S374.54,458.21,382.13,449.63Z"/><path class="cls-4" d="M402.21,462A0.49,0.49,0,0,1,402,462c-6.06-3-13.76-9-13.84-9.05a0.5,0.5,0,1,1,.62-0.79c0.08,0.06,7.7,6,13.66,8.95A0.5,0.5,0,0,1,402.21,462Z"/><path class="cls-6" d="M400.75,468.13s2.38-7.62,7.63-10.25c0,0,8.88,3,12.63,5.13s4,6.75,4,11.63H375.13v-6.5h25.63Z"/><path class="cls-6" d="M433,251.63s-14.67,95-17.34,108.33-17.33,78.67-17.33,78.67a86.68,86.68,0,0,1-19.33-1c0-1,5.5-71.17,5.83-77.5,0.19-3.6-.54-27.74-1.2-48.2-0.34-10.34-.66-19.74-0.83-25.07-0.09-2.67-.14-4.32-0.14-4.56,0-1.67-2.64-41.4,11.67-56.67S434.38,223.63,433,251.63Z"/><path class="cls-3" d="M402,378.6a6,6,0,0,1-.68,0c-2.35-.27-4.38-1.91-5.72-4.62a18.37,18.37,0,0,1,2.12-18.31c1.92-2.33,4.26-3.47,6.62-3.19s4.38,1.91,5.72,4.62a17.13,17.13,0,0,1,1.4,9.44h0a17.13,17.13,0,0,1-3.52,8.87A7.85,7.85,0,0,1,402,378.6Zm1.66-25.2a6.89,6.89,0,0,0-5.17,2.87,17.38,17.38,0,0,0-2,17.23c1.18,2.39,2.94,3.84,4.93,4.07s4-.77,5.73-2.83a16.11,16.11,0,0,0,3.3-8.35h0a16.11,16.11,0,0,0-1.31-8.88c-1.18-2.39-2.94-3.84-4.93-4.07A4.74,4.74,0,0,0,403.71,353.4Z"/><path class="cls-3" d="M385,434.13h0a0.5,0.5,0,0,1-.45-0.54c0.06-.61,5.66-60.72,5.66-67.62s2-77.76,2-78.47a0.52,0.52,0,0,1,.51-0.49,0.5,0.5,0,0,1,.49.51c0,0.71-2,71.53-2,78.44s-5.44,65.24-5.67,67.71A0.5,0.5,0,0,1,385,434.13Z"/><path class="cls-2" d="M394.88,278s-0.91,16.1-11.2,34c-0.34-10.34-.66-19.74-0.83-25.07l3.95-1.23S393.26,280.79,394.88,278Z"/><path class="cls-3" d="M315.06,426.54s-2.34,9.59-3,12.27c-1.16,4.43-2.7,10.34-2.76,10.48s3.79,3.55,3.79,3.55l5.53,0.31,2.78-7.49,5.2-13.87Z"/><path class="cls-2" d="M315.06,426.54s-2.34,9.59-3,12.27c2.17,1.59,6.08,4.48,9.33,6.85l5.2-13.87Z"/><path class="cls-2" d="M321.23,448.68s-7.33,2.17-13.33.33c0,0-10.5,7.58-17.17,10s-13,4.17-13,14.67h47.92S326.56,457.13,321.23,448.68Z"/><path class="cls-4" d="M300.5,460.63a0.5,0.5,0,0,1-.25-0.93,81.46,81.46,0,0,0,11.17-8.13,0.5,0.5,0,1,1,.66.75,82.65,82.65,0,0,1-11.33,8.24A0.51,0.51,0,0,1,300.5,460.63Z"/><path class="cls-6" d="M300.94,467.18s-2.37-7.62-7.62-10.25c0,0-8.87,3-12.62,5.13s-4,6.75-4,11.63h49.88v-6.5H300.94Z"/><path class="cls-6" d="M308.63,434.5l18.13,5s25.88-78.87,26.13-79.62,33.92-74.25,33.92-74.25,0.6-34.77,1.25-44c1-14.17-23.42-37.75-36.92,1s-26,110.75-28.25,118.25S308.63,434.5,308.63,434.5Z"/><path class="cls-3" d="M331.84,371.45a6,6,0,0,1-1.39-.16c-2.3-.55-4.12-2.42-5.13-5.26a18.37,18.37,0,0,1,4.27-17.93c2.18-2.09,4.65-2.93,7-2.39s4.12,2.42,5.13,5.26a17.13,17.13,0,0,1,.27,9.54h0a17.12,17.12,0,0,1-4.55,8.39A8.19,8.19,0,0,1,331.84,371.45Zm3.33-24.9a7.23,7.23,0,0,0-4.88,2.27,17.38,17.38,0,0,0-4,16.87c0.89,2.52,2.46,4.16,4.42,4.63s4.1-.29,6-2.14a16.12,16.12,0,0,0,4.26-7.9h0a16.12,16.12,0,0,0-.24-9c-0.89-2.52-2.46-4.16-4.42-4.63A4.93,4.93,0,0,0,335.17,346.55Z"/><path class="cls-3" d="M386.79,286.13a0.51,0.51,0,0,1-.23-0.05,0.5,0.5,0,0,1-.27-0.45V240.46a0.5,0.5,0,1,1,1,0v44.17c1.83-1.39,6.25-4.88,7.13-6.87s2.09-29.1,2.46-39.32a0.49,0.49,0,0,1,.52-0.48,0.5,0.5,0,0,1,.48.52c-0.14,3.78-1.37,37-2.54,39.68s-8,7.67-8.25,7.87A0.5,0.5,0,0,1,386.79,286.13Z"/><path class="cls-3" d="M323.38,434.46l-0.15,0a0.5,0.5,0,0,1-.33-0.63l24-77.33,27.69-62.89a0.5,0.5,0,1,1,.92.4l-27.67,62.83-24,77.28A0.5,0.5,0,0,1,323.38,434.46Z"/><path class="cls-4" d="M451.33,220.33a7.89,7.89,0,0,1-4.46,3.8C435.26,228.38,428,212.38,422,198.24c-2.69-6.33-5.76-12.52-8.67-18.7-3.58-7.62-6.94-15.24-9.07-23.17-3.88-14.37,10.24-20.25,15.62-16.25A158.82,158.82,0,0,1,441.63,178C448.58,195.7,455.46,212.49,451.33,220.33Z"/><path class="cls-2" d="M451.33,220.33a7.89,7.89,0,0,1-4.46,3.8C435.26,228.38,428,212.38,422,198.24c-2.69-6.33-5.76-12.52-8.67-18.7,3.14,0,5.22.08,5.22,0.08S438.73,204,451.33,220.33Z"/><path class="cls-3" d="M311.38,160.75l-8.5-8.12-1-8.62s-20.12-20.06-21.56-20.75-2.56,1-1.31,2.69,9.31,12.13,9.31,12.13l-4.44,11.5s5.06,6.44,7.06,7.69,6.31,1.38,6.31,1.38l9.13,11.06Z"/><path class="cls-3" d="M286.13,135.88c-3.32.3-2.37,4.33-2.37,4.33a3.66,3.66,0,0,0-1.62,4.38,2.93,2.93,0,0,0-1.42,3.38c0.46,2.54,4.5,6.13,6.92,6s2.33-3.12,2.33-3.12,2.38-.46,2.13-4.08a3.25,3.25,0,0,0,1.75-3.54C293.42,140.58,288,135.71,286.13,135.88Z"/><path class="cls-2" d="M288.51,154.19a0.5,0.5,0,0,1-.22-1c1.2-.58,1.16-2.42,1.16-2.44a0.5,0.5,0,0,1,.41-0.5c0.07,0,1.94-.45,1.72-3.56a0.5,0.5,0,0,1,.3-0.49,2.75,2.75,0,0,0,1.46-3c-0.3-1.86-3.71-5.3-6-6.51a0.5,0.5,0,0,1,.46-0.89c2.31,1.2,6.17,4.85,6.55,7.24A3.76,3.76,0,0,1,292.6,147c0.08,2.83-1.42,3.83-2.15,4.15a3.53,3.53,0,0,1-1.71,3A0.49,0.49,0,0,1,288.51,154.19Z"/><path class="cls-2" d="M288.67,150.71a0.49,0.49,0,0,1-.19,0,13,13,0,0,1-5.91-4.92,0.5,0.5,0,0,1,.86-0.5,12.24,12.24,0,0,0,5.43,4.5A0.5,0.5,0,0,1,288.67,150.71Z"/><path class="cls-2" d="M290.83,146.88a0.5,0.5,0,0,1-.23-0.05,20.07,20.07,0,0,1-6.55-5.61,0.5,0.5,0,0,1,.81-0.58,19.43,19.43,0,0,0,6.2,5.3A0.5,0.5,0,0,1,290.83,146.88Z"/><path class="cls-3" d="M289.17,144.33c-0.24-.38,8-5,8.83-5.33s4.83,4.58,5.17,5.17-0.29,8.46-.29,8.46-3.29,1.88-6.12,0-0.33-7.21-.33-7.21S291.38,147.92,289.17,144.33Z"/><path class="cls-2" d="M296,152.36a0.5,0.5,0,0,1-.42-0.22c-1.16-1.73-.54-4.35,0-5.82-2.08.68-5.17,0.89-6.79-1.72a0.59,0.59,0,0,1-.06-0.43c0.23-.85,6.68-4.37,7.42-4.77a0.5,0.5,0,0,1,.48.88,73.17,73.17,0,0,0-6.78,4.08c2,2.72,6.22.7,6.41,0.61a0.5,0.5,0,0,1,.67.66s-1.82,4-.48,6a0.5,0.5,0,0,1-.14.69A0.5,0.5,0,0,1,296,152.36Z"/><polygon class="cls-5" points="302.63 176.63 297 170 307.29 155 312.92 161 302.63 176.63"/><path class="cls-4" d="M368.38,166.79a215.79,215.79,0,0,1-22.85,31.54c-5.7,6.53-10.4,11-12,11-3.67,0-33.84-31-33.84-31l12.75-19.84,18.67,18.17s12.8-27.8,20.25-34.25c5-4.34,12.63-2.36,16.95,3.31C372,150.57,373.3,158.16,368.38,166.79Z"/><path class="cls-2" d="M368.38,166.79a215.79,215.79,0,0,1-22.85,31.54c2.89-13.38,6.4-27.63,6.47-28,4.6-20.78,10.31-26.11,16.33-24.69C372,150.57,373.3,158.16,368.38,166.79Z"/><circle class="cls-2" cx="307.94" cy="178.67" r="2.13"/><path class="cls-2" d="M330.37,195.63a0.5,0.5,0,0,1-.49-0.4c-1.38-6.64.46-16.76,0.54-17.19a0.5,0.5,0,1,1,1,.18c0,0.1-1.88,10.36-.54,16.81a0.5,0.5,0,0,1-.39.59h-0.1Z"/><path class="cls-4" d="M424.38,210.13c-0.5-5-4.5-70-4.5-70s-24.75-12.5-39.25-10.5-29.25,12.75-29.25,12.75c-5,27.5,4.75,54.5,3,68.5s-14.75,45.5-14.75,45.5A72.1,72.1,0,0,0,378.2,271c2.86-4.81,13-21.36,13-21.36l15.64,18.25a106.7,106.7,0,0,0,32-15S424.88,215.13,424.38,210.13Z"/><path class="cls-2" d="M352.45,187.83a0.5,0.5,0,0,1-.49-0.43c-1.55-10.77-3.91-27-1.42-43a0.5,0.5,0,1,1,1,.15c-2.27,14.62-.62,28.55,1.42,42.72a0.5,0.5,0,0,1-.42.57h-0.07Z"/><path class="cls-2" d="M423.92,204.45a0.5,0.5,0,0,1-.5-0.47c-0.94-13.79-2.91-45.48-3.71-58.46a0.5,0.5,0,0,1,.47-0.53,0.49,0.49,0,0,1,.53.47c0.8,13,2.77,44.66,3.71,58.45a0.5,0.5,0,0,1-.46.53h0Z"/><polygon class="cls-2" points="356.88 232.13 354.96 238.88 374.04 243.88 376.04 237.04 356.88 232.13"/><polygon class="cls-2" points="419.92 230.28 422.24 236.9 403.5 243.05 401.09 236.35 419.92 230.28"/><path class="cls-2" d="M390.13,249a0.5,0.5,0,0,1-.36-0.15l-5-5.19a0.5,0.5,0,0,1-.13-0.44c0-.19,3.5-19.77,3.74-51.35a0.5,0.5,0,0,1,.5-0.5h0a0.5,0.5,0,0,1,.5.5c-0.23,29.74-3.31,48.87-3.71,51.27l4.82,5A0.5,0.5,0,0,1,390.13,249Z"/><path class="cls-2" d="M381.88,126.5s-6.37,1.25-17.37,7.25A56.84,56.84,0,0,0,356,151.29l12.5,2.5-5.67,11,26,25.83L408.21,163l-7-12.83,12.17-2.33s-5.83-12.37-9-15.54S386.88,125.83,381.88,126.5Z"/><path class="cls-5" d="M381.63,129.81c-3.65.73-11.08,4-14.82,5.75,2,7.42,10.85,36.12,21.74,49.9,0,0,8.53-34.9,12.19-52.37C395.92,131.75,385.43,129.05,381.63,129.81Z"/><path class="cls-2" d="M392.74,168c-0.77-5.19-3-18.94-6.2-28.24l-3.73-.79-2.6,1.63a175.24,175.24,0,0,0-1.65,27.52c3,6.53,6.37,12.75,10,17.31C388.54,185.46,390.39,177.88,392.74,168Z"/><path class="cls-4" d="M380.87,147.63a0.5,0.5,0,0,1,0-1,51.83,51.83,0,0,1,6.14-.25,0.5,0.5,0,0,1,.47.53,0.49,0.49,0,0,1-.53.47,52.45,52.45,0,0,0-6,.25h0Z"/><path class="cls-5" d="M383.67,140.46a41.14,41.14,0,0,0-10,7.33s-1.17-17.83,8.25-19.58,12,17.08,12,17.08S391.5,142.79,383.67,140.46Z"/><path class="cls-4" d="M373.67,148.29a0.5,0.5,0,0,1-.5-0.47c0-.38-0.57-9.39,2.6-15.28a0.5,0.5,0,1,1,.88.47c-2.4,4.47-2.56,11.05-2.52,13.64a40.61,40.61,0,0,1,9.32-6.65,0.49,0.49,0,0,1,.36,0,33.22,33.22,0,0,1,9.4,4.11c-0.51-2.7-2-9.08-5-12.76a0.5,0.5,0,1,1,.77-0.64c4.11,5,5.41,14.14,5.46,14.53a0.5,0.5,0,0,1-.85.42s-2.43-2.41-9.85-4.65a41.79,41.79,0,0,0-9.7,7.15A0.5,0.5,0,0,1,373.67,148.29Z"/><rect class="cls-3" x="383.03" y="162.18" width="7.39" height="42.92" rx="1.83" ry="1.83" transform="translate(65.63 -99.52) rotate(16.01)"/><path class="cls-6" d="M419.52,172.63L412,198.7l-3.34,11.65a1.84,1.84,0,0,1-2.27,1.26L399,209.47l-18-5.18a1.82,1.82,0,0,1-1.25-2.26l10.82-37.73a1.84,1.84,0,0,1,2.27-1.26l25.49,7.31A1.85,1.85,0,0,1,419.52,172.63Z"/><path class="cls-2" d="M412,198.7l-3.34,11.65a1.84,1.84,0,0,1-2.27,1.26L399,209.47l-4.21-11.85Z"/><circle class="cls-4" cx="401.18" cy="181.8" r="3.63" transform="translate(115.8 517.29) rotate(-73.99)"/><path class="cls-3" d="M406.75,192.63l-6.81-2.56s-2.56-13-3.25-15.25-2.94-.81-3.12,1.13-0.5,7-.5,7L384,178.38c-1.25-.62-2.87.88-2.37,3.06,0,0-2.19.56-1.62,4a3.34,3.34,0,0,0-1.06,4.13s-1.94,1.69-.31,4.81c0,0,8.06,5.38,10.75,6.38s6.94,0,6.94,0,8.81,4.44,8.81,4.25S406.75,192.63,406.75,192.63Z"/><path class="cls-2" d="M388.92,185.79a0.5,0.5,0,0,1-.23-0.06l-5.83-3a0.5,0.5,0,0,1,.46-0.89l5.83,3A0.5,0.5,0,0,1,388.92,185.79Z"/><path class="cls-2" d="M387.33,189.42a0.49,0.49,0,0,1-.23-0.06l-5.67-2.92a0.5,0.5,0,1,1,.46-0.89l5.67,2.92A0.5,0.5,0,0,1,387.33,189.42Z"/><path class="cls-2" d="M385.88,193.58a0.5,0.5,0,0,1-.25-0.07l-5.27-3.1a0.5,0.5,0,1,1,.51-0.86l5.27,3.1A0.5,0.5,0,0,1,385.88,193.58Z"/><path class="cls-5" d="M413.75,193.19l-7.25-2.69A101.79,101.79,0,0,0,402,208s10.38,4.38,10.31,4.13S413.75,193.19,413.75,193.19Z"/><path class="cls-4" d="M412.5,191c0.11-.36,25.25,9,33.25,14.25s10.63,22-4.25,21.5S407,213.88,407,213.88,408.13,205.63,412.5,191Z"/><path class="cls-2" d="M425.68,223.59a0.5,0.5,0,0,1-.18,0,118.39,118.39,0,0,1-18.77-9.26,0.5,0.5,0,0,1-.23-0.49c0-.08,1.18-8.46,5.52-23a0.53,0.53,0,0,1,.32-0.33c1-.34,26.27,9.44,33.69,14.31a0.5,0.5,0,1,1-.55.84c-7.43-4.88-29.41-13.17-32.62-14.1a177.34,177.34,0,0,0-5.31,22.05,117.78,117.78,0,0,0,18.31,9A0.5,0.5,0,0,1,425.68,223.59Z"/><circle class="cls-2" cx="413.69" cy="211.38" r="2.13"/><path class="cls-3" d="M385.35,135.32a7.23,7.23,0,0,1-6.37.5l-1.27-9-1.4-9.91,8.9-7.64,0.08-.07v5.72Z"/><path class="cls-2" d="M385.3,114.89c-0.41,4-2,9.6-7.59,11.9l-1.4-9.91,8.9-7.64c0,0.21.06,0.39,0.08,0.55a7.32,7.32,0,0,1,.06.82A22.53,22.53,0,0,1,385.3,114.89Z"/><path class="cls-3" d="M366.38,107.75s-2.75-2.44-4.75-.37,1.5,7.88,6.88,7.25Z"/><path class="cls-2" d="M366.88,112.38a0.5,0.5,0,0,1-.4-0.2,6.49,6.49,0,0,0-3.52-2.68,0.5,0.5,0,0,1,.16-1c0.08,0,2.1.35,4.15,3.07A0.5,0.5,0,0,1,366.88,112.38Z"/><path class="cls-3" d="M371.29,92.63c-7.87.9-7.58,12.5-5.08,20.58s10.42,12.08,16.17,4.42S387.38,90.79,371.29,92.63Z"/><path class="cls-2" d="M385.36,118.74l-0.06-9.58-2.17-.23,0.25-5.93s-6.13,1.37-5.06-6.19c0,0-6.25,10-14,10.62S349.56,100,350.51,97.18s4.9-.5,5.22-0.32c-0.46-.48-9.38-9.67-5.54-16.43,3.94-6.93,19.06,2,27.88,7.5,1.35,0.84,2.66,1.61,3.91,2.33-1-1.67-2.44-4.36-3.73-7.2-2.12-4.69,5.5-4.32,6.94,8.94,0,0,4.19-7.82,7.56-6.44,2.84,1.15-1.12,5.79-5.12,7.91,4,2.37,6.83,4.47,7.5,7.53C396.24,106.13,385.36,118.74,385.36,118.74Z"/><path class="cls-3" d="M384.25,105.92a4.31,4.31,0,0,1,4.63-3.33c3.92,0.21,3.17,9-4.75,8.67Z"/><path class="cls-2" d="M385.29,109.25h-0.1a0.5,0.5,0,0,1-.4-0.59c0-.15.77-3.79,4.21-4.6a0.5,0.5,0,0,1,.23,1c-2.82.67-3.45,3.79-3.46,3.82A0.5,0.5,0,0,1,385.29,109.25Z"/><path class="cls-2" d="M388.25,108.54a0.5,0.5,0,0,1-.49-0.41,3.31,3.31,0,0,0-1.25-1.85,0.5,0.5,0,1,1,.59-0.81,4.27,4.27,0,0,1,1.65,2.47,0.5,0.5,0,0,1-.4.58h-0.09Z"/><path class="cls-2" d="M378.87,103.86s-2-2.8-4.16-1.24a0.77,0.77,0,0,0-.79-0.6c-0.61.09-.35,2-0.35,2A13.32,13.32,0,0,1,378.87,103.86Z"/><path class="cls-2" d="M365,105.92s0.53-3.12,2.25-2.05a0.72,0.72,0,0,1,.51-0.6c0.69,0,.63,1.78.63,1.78A5.61,5.61,0,0,0,365,105.92Z"/><ellipse class="cls-2" cx="376.1" cy="108.63" rx="1.3" ry="1.61" transform="translate(-14.08 76.84) rotate(-11.45)"/><circle class="cls-5" cx="375.71" cy="108.13" r="0.35" transform="translate(-13.99 76.75) rotate(-11.45)"/><ellipse class="cls-2" cx="368.59" cy="110.15" rx="1.3" ry="1.61" transform="translate(-14.53 75.38) rotate(-11.45)"/><circle class="cls-5" cx="368.2" cy="109.65" r="0.35" transform="translate(-14.44 75.29) rotate(-11.45)"/><path class="cls-2" d="M372.24,115.91a1.72,1.72,0,0,1-1.62-.9c-0.61-1.14.41-2.17,1-2.56a0.5,0.5,0,0,1,.53.85s-1,.63-0.68,1.23c0.41,0.76,1.7.15,1.71,0.14a0.5,0.5,0,0,1,.43.9A3.4,3.4,0,0,1,372.24,115.91Z"/><path class="cls-2" d="M376.21,112.77a4.11,4.11,0,1,1,1.76-.4A4.1,4.1,0,0,1,376.21,112.77Zm0-7.21a3.1,3.1,0,1,0,2.81,1.77A3.09,3.09,0,0,0,376.2,105.56Z"/><path class="cls-2" d="M367.44,114.3a4.1,4.1,0,1,1,1.75-.4A4.11,4.11,0,0,1,367.44,114.3Zm0-7.21a3.11,3.11,0,1,0,1,.18A3.09,3.09,0,0,0,367.43,107.09Z"/><path class="cls-2" d="M373.46,118.28a3.24,3.24,0,0,1-.42,0,0.5,0.5,0,0,1-.43-0.56,0.49,0.49,0,0,1,.56-0.43c0.11,0,2.79.32,4.74-2.73a0.5,0.5,0,0,1,.84.54A6.28,6.28,0,0,1,373.46,118.28Z"/><path class="cls-1" d="M369.94,30.28V46.71a4.9,4.9,0,0,1-4.9,4.91H354.89V62.26L344.26,51.63h-26a4.91,4.91,0,0,1-4.91-4.91V30.28a4.91,4.91,0,0,1,4.91-4.91H365A4.9,4.9,0,0,1,369.94,30.28Z"/><rect class="cls-4" x="321.63" y="31.75" width="18.13" height="3.63" rx="1.19" ry="1.19"/><rect class="cls-4" x="321.63" y="39.63" width="31" height="3.63" rx="1.19" ry="1.19"/><path class="cls-4" d="M396.38,68.62V85a4.9,4.9,0,0,0,4.9,4.91h10.15v10.63L422.06,90h26A4.91,4.91,0,0,0,452.94,85V68.62A4.91,4.91,0,0,0,448,63.71H401.28A4.9,4.9,0,0,0,396.38,68.62Z"/><circle class="cls-1" cx="407.87" cy="76.85" r="3.5"/><circle class="cls-1" cx="424.66" cy="76.85" r="3.5"/><circle class="cls-1" cx="441.44" cy="76.85" r="3.5"/></svg>