<?xml version="1.0" encoding="utf-8"?>
<!-- Generator: Adobe Illustrator 25.2.3, SVG Export Plug-In . SVG Version: 6.00 Build 0)  -->
<svg version="1.1" xmlns="http://www.w3.org/2000/svg" xmlns:xlink="http://www.w3.org/1999/xlink" x="0px" y="0px"
	 viewBox="0 0 600 600" style="enable-background:new 0 0 600 600;" xml:space="preserve">
<style type="text/css">
	.st0{fill:#FFFFFF;stroke:#262424;stroke-width:2;stroke-linecap:round;stroke-linejoin:round;stroke-miterlimit:10;}
	.st1{fill:#88C0C2;}
	.st2{fill:#DE9244;}
	.st3{fill:none;stroke:#262424;stroke-width:2;stroke-linecap:round;stroke-linejoin:round;stroke-miterlimit:10;}
	.st4{fill:#FFFFFF;}
	.st5{fill:#262424;}
</style>
<g id="EXPLORER">
	<g>
		<path class="st0" d="M161.8430176,381.8007812c-22.6762695,0-41.125-18.4482422-41.125-41.125V133.4134064
			c0-22.6767578,18.4487305-41.1254883,41.125-41.1254883h276.3139648c22.6767578,0,41.125,18.4487305,41.125,41.1254883
			v207.2623749c0,22.6767578-18.4482422,41.125-41.125,41.125H161.8430176z"/>
		<path class="st1" d="M234.7871857,132.1287079h-77.4653625c-4.1995544,0-7.6039581-3.4044037-7.6039581-7.6039505v-0.0000153
			c0-4.1995468,3.4044037-7.6039505,7.6039581-7.6039505h77.4653625c4.1995392,0,7.6039429,3.4044037,7.6039429,7.6039505v0.0000153
			C242.3911285,128.7243042,238.9867249,132.1287079,234.7871857,132.1287079z"/>
		<path class="st2" d="M442.6782837,132.1287079L442.6782837,132.1287079c-4.1995544,0-7.6039734-3.4044037-7.6039734-7.6039505
			v-0.0000153c0-4.1995468,3.4044189-7.6039505,7.6039734-7.6039505l0,0c4.1995544,0,7.6039429,3.4044037,7.6039429,7.6039505
			v0.0000153C450.2822266,128.7243042,446.8778381,132.1287079,442.6782837,132.1287079z"/>
		<path class="st2" d="M400.3812561,132.1287079h-0.0000305c-4.1995239,0-7.6039429-3.4044037-7.6039429-7.6039505v-0.0000153
			c0-4.1995468,3.4044189-7.6039505,7.6039429-7.6039505h0.0000305c4.1995544,0,7.6039429,3.4044037,7.6039429,7.6039505v0.0000153
			C407.985199,128.7243042,404.5808105,132.1287079,400.3812561,132.1287079z"/>
		<path class="st2" d="M358.0842285,132.1287079h-0.0000305c-4.1995239,0-7.6039429-3.4044037-7.6039429-7.6039505v-0.0000153
			c0-4.1995468,3.4044189-7.6039505,7.6039429-7.6039505h0.0000305c4.1995544,0,7.6039429,3.4044037,7.6039429,7.6039505v0.0000153
			C365.6881714,128.7243042,362.283783,132.1287079,358.0842285,132.1287079z"/>
		<path class="st3" d="M207.6277466,365.8007812h-45.7844849"/>
		<path class="st3" d="M463.2822266,157.4467773v183.2280273c0,13.8544922-11.2714844,25.1259766-25.125,25.1259766H222.271347"/>
		<path class="st1" d="M438.1569214,352.8005981H161.8431854c-6.6966248,0-12.1253204-5.4286804-12.1253204-12.1253052V157.4465485
			c0-6.6966248,5.4286957-12.1253052,12.1253204-12.1253052h276.3137207c6.6966248,0,12.1253052,5.4286804,12.1253052,12.1253052
			V340.675293C450.2822266,347.3719177,444.8535461,352.8005981,438.1569214,352.8005981z"/>
	</g>
</g>
<g id="TABLE">
	<g>
		<path class="st0" d="M430.9981689,293.1188049h-20.2662354c-4.0354919,0-7.3069153-3.2714233-7.3069153-7.3069153v-0.0000305
			c0-4.0354919,3.2714233-7.3069153,7.3069153-7.3069153h20.2662354c4.0354919,0,7.3069153,3.2714233,7.3069153,7.3069153v0.0000305
			C438.3050842,289.8473816,435.0336609,293.1188049,430.9981689,293.1188049z"/>
		<path class="st0" d="M430.9981689,318.7879944h-48.0348511c-4.0354919,0-7.3069153-3.2714233-7.3069153-7.3069153l0,0
			c0-4.0355225,3.2714233-7.3069458,7.3069153-7.3069458h48.0348511c4.0354919,0,7.3069153,3.2714233,7.3069153,7.3069458l0,0
			C438.3050842,315.516571,435.0336609,318.7879944,430.9981689,318.7879944z"/>
		<g>
			<path class="st0" d="M432.0720825,258.5395203h-33.7360229c-2.4114685,0-4.366333-1.9548645-4.366333-4.3663177v-68.9652863
				c0-2.4114532,1.9548645-4.366333,4.366333-4.366333h33.7360229c2.4114685,0,4.366333,1.9548798,4.366333,4.366333v68.9652863
				C436.4384155,256.5846558,434.483551,258.5395203,432.0720825,258.5395203z"/>
			<path class="st1" d="M422.6167908,199.0198059h-14.8254395c-2.4114685,0-4.366333-1.9548798-4.366333-4.366333v-0.0000153
				c0-2.4114532,1.9548645-4.366333,4.366333-4.366333h14.8254395c2.4114685,0,4.366333,1.9548798,4.366333,4.366333v0.0000153
				C426.9831238,197.0649261,425.0282593,199.0198059,422.6167908,199.0198059z"/>
			<path class="st1" d="M422.6167908,216.1287079h-14.8254395c-2.4114685,0-4.366333-1.9548645-4.366333-4.366333l0,0
				c0-2.4114685,1.9548645-4.366333,4.366333-4.366333h14.8254395c2.4114685,0,4.366333,1.9548645,4.366333,4.366333l0,0
				C426.9831238,214.1738434,425.0282593,216.1287079,422.6167908,216.1287079z"/>
			<circle class="st2" cx="415.204071" cy="237.8922882" r="11.7790565"/>
		</g>
	</g>
</g>
<g id="INTEGRATION_4">
	<g>
		<g>
			<path class="st0" d="M365.5345764,186.1760712l74.8313293-74.8318405h67.8548889
				c2.2091064,0,3.9999695-1.790863,3.9999695-3.9999924c0-2.209137-1.790863-3.9999924-3.9999695-3.9999924l-69.5117188-0.0000076
				c-1.0533447,0-2.0836487,0.4267426-2.8284607,1.1715775l-76.0029297,76.0034103
				c-1.5621033,1.5621033-1.5621033,4.0947876,0.0000305,5.6568909c1.5621033,1.562088,4.0947876,1.5620728,5.6568909-0.0000305
				L365.5345764,186.1760712z"/>
		</g>
		<g>
			<circle class="st1" cx="547.9336548" cy="107.3444748" r="28.2772274"/>
			<circle class="st0" cx="547.9336548" cy="107.3444748" r="14.186058"/>
		</g>
	</g>
</g>
<g id="INTEGRATION_3">
	<g>
		<g>
			<path class="st0" d="M234.4654236,186.1760712l-74.8313293-74.8318405H91.7792053
				c-2.2091064,0-3.9999695-1.790863-3.9999695-3.9999924c0-2.209137,1.790863-3.9999924,3.9999695-3.9999924l69.5117188-0.0000076
				c1.0533447,0,2.0836487,0.4267426,2.8284607,1.1715775l76.0029297,76.0034103
				c1.5621033,1.5621033,1.5621033,4.0947876-0.0000305,5.6568909c-1.5621033,1.562088-4.0947876,1.5620728-5.6568909-0.0000305
				L234.4654236,186.1760712z"/>
		</g>
		<g>
			<circle class="st1" cx="52.0663719" cy="107.3444748" r="28.2772274"/>
		</g>
		<path class="st0" d="M66.8117218,111.1533203l-10.9365005,10.9365005c-2.103569,2.103569-5.5141296,2.103569-7.6176987,0
			l-10.9364967-10.9365005c-2.103569-2.103569-2.103569-5.5141296,0-7.6176987l10.9364967-10.9364929
			c2.103569-2.103569,5.5141296-2.103569,7.6176987,0l10.9365005,10.9364929
			C68.9152908,105.6391907,68.9152908,109.0497513,66.8117218,111.1533203z"/>
	</g>
</g>
<g id="INTEGRATION_2">
	<g>
		<g>
			<path class="st0" d="M234.4654236,307.2138977l-74.8313293,74.8318176H91.7792053c-2.2091064,0-3.9999695,1.790863-3.9999695,4
				s1.790863,4,3.9999695,4h69.5117188c1.0533447,0,2.0836487-0.4267273,2.8284607-1.1715698l76.0029297-76.003418
				c1.5621033-1.5621033,1.5621033-4.0947876-0.0000305-5.6568909c-1.5621033-1.5620728-4.0947876-1.5620728-5.6568909,0.0000305
				L234.4654236,307.2138977z"/>
		</g>
		<g>
			<g>
				<circle class="st1" cx="52.0663719" cy="386.0454712" r="28.2772274"/>
			</g>
			<path class="st0" d="M38.9465752,381.473938v9.1430664c0,1.8583984,0.991436,3.575592,2.6008377,4.5047913l7.9181213,4.5715332
				c1.6094055,0.9291687,3.5922737,0.9291687,5.2016792,0l7.9181175-4.5715332
				c1.6094017-0.9291992,2.6008415-2.6463928,2.6008415-4.5047913v-9.1430664c0-1.8583679-0.9914398-3.575592-2.6008415-4.5047607
				l-7.9181175-4.5715332c-1.6094055-0.9291992-3.5922737-0.9291992-5.2016792,0l-7.9181213,4.5715332
				C39.9380112,377.8983459,38.9465752,379.6155701,38.9465752,381.473938z"/>
		</g>
	</g>
</g>
<g id="GEAR">
	<g>
		<path class="st3" d="M284.423645,328.5667419c-0.2999573-0.057373-0.5993958-0.116394-0.8982544-0.1770935L276.0629883,326.875
			 M382.8790283,237.9400635c0.3032532,2.8934631,0.4559326,5.8175507,0.4559326,8.7498779
			c0,5.5693359-0.5517578,11.1157227-1.6396484,16.4858398l-1.5136719,7.4707031l-16.5849609,1.1342773
			c-0.2832031,0.71875-0.5791016,1.4321289-0.8876953,2.1411133l10.9287109,12.5415039l-4.2255859,6.3540039
			c-6.1728516,9.28125-14.0087891,17.1171875-23.2890625,23.2900391l-6.3574219,4.2275391l-12.5341797-10.9326172
			c-0.7080078,0.3076172-1.4208984,0.6035156-2.1396484,0.8876953L323.9472656,326.875l-7.4619141,1.5146484
			c-5.3613281,1.0888672-10.90625,1.640625-16.4804688,1.640625c-3.32547,0-6.6403503-0.1963806-9.9119568-0.5860291
			 M380.1796875,222.7485352l1.5146484,7.4619141"/>
		<path class="st2" d="M371.894989,261.1900024c0.9500122-4.6900024,1.4400024-9.5400391,1.4400024-14.5
			c0-4.960022-0.4899902-9.8099976-1.4400024-14.4899902l-15.6399536-1.0800171
			c-1.2900391-4.6500244-3.1400146-9.0800171-5.4700317-13.1900024l10.2999878-11.8200073
			c-5.3999634-8.1199951-12.3800049-15.0999756-20.5-20.5l-11.8200073,10.2999878
			c-4.1099854-2.3300171-8.539978-4.1799927-13.1899414-5.4699707l-1.0800171-15.6400146
			c-4.6799927-0.9500122-9.5300293-1.4400024-14.4899902-1.4400024c-4.960022,0-9.8099976,0.4899902-14.4900513,1.4400024
			l-1.0799561,15.6400146c-4.6600342,1.289978-9.0800171,3.1399536-13.1900024,5.4699707l-11.8200073-10.2999878
			c-8.1199951,5.3900146-15.0999756,12.3699951-20.5100098,20.5l10.3099976,11.8200073
			c-2.3399658,4.1099854-4.1900024,8.539978-5.4699707,13.1900024l-15.6500244,1.0800171
			c-0.9500122,4.6799927-1.4400024,9.5299683-1.4400024,14.4899902c0,4.9599609,0.4899902,9.8099976,1.4400024,14.5
			l15.6500244,1.0700073c1.2799683,4.6599731,3.1300049,9.0799561,5.4699707,13.1999512l-10.3099976,11.8200073
			c5.4000244,8.1199951,12.3800049,15.1000366,20.5,20.5l11.8300171-10.3099976
			c4.1099854,2.3400269,8.5299683,4.1900024,13.1900024,5.4700317l1.0799561,15.6499634
			c4.6800537,0.9500122,9.5300293,1.4400024,14.4900513,1.4400024c4.9599609,0,9.8099976-0.4899902,14.4899902-1.4400024
			l1.0800171-15.6499634c4.6499634-1.2800293,9.0799561-3.1300049,13.1899414-5.4700317l11.8200073,10.3099976
			c8.1199951-5.3999634,15.1000366-12.3800049,20.5-20.5l-10.2999878-11.8200073
			c2.3300171-4.1199951,4.1799927-8.539978,5.4700317-13.1999512L371.894989,261.1900024z M300.0050354,266.2099609
			c-10.7800293,0-19.5200195-8.7399902-19.5200195-19.5199585c0-10.7700195,8.7399902-19.5100098,19.5200195-19.5100098
			c10.7799683,0,19.5099487,8.7399902,19.5099487,19.5100098
			C319.5149841,257.4699707,310.7850037,266.2099609,300.0050354,266.2099609z"/>
		<circle class="st0" cx="300" cy="246.6949768" r="8.3143187"/>
	</g>
</g>
<g id="INTEGRATION_1">
	<g>
		<g>
			<g>
				<circle class="st2" cx="52.0663719" cy="246.6949768" r="28.2772274"/>
			</g>
			<path class="st0" d="M59.7996445,259.8147888H44.3331032c-2.9748993,0-5.386528-2.4116516-5.386528-5.3865356v-15.4665527
				c0-2.974884,2.4116287-5.3865204,5.386528-5.3865204h15.4665413c2.9748955,0,5.386528,2.4116364,5.386528,5.3865204v15.4665527
				C65.1861725,257.4031372,62.7745399,259.8147888,59.7996445,259.8147888z"/>
		</g>
		<path class="st0" d="M203.0623474,250.6949768H91.7792206c-2.2091293,0-3.9999847-1.790863-3.9999847-4l0,0
			c0-2.209137,1.7908554-4,3.9999847-4h111.2831268c2.209137,0,4,1.790863,4,4l0,0
			C207.0623474,248.9041138,205.2714844,250.6949768,203.0623474,250.6949768z"/>
	</g>
</g>
<g id="ORNAMENT">
	<g>
		<path class="st2" d="M316.3102112,480.2757874c-3.5747986,0-6.8059082,1.4512939-9.14328,3.7886658
			c-2.3450317,2.3373718-3.7886658,5.5760803-3.7886658,9.14328c0-3.5671997-1.4436646-6.8059082-3.7886963-9.14328
			c-2.3373718-2.3373718-5.5684204-3.7886658-9.14328-3.7886658c3.5748596,0,6.8059082-1.4513245,9.14328-3.7886963
			c2.3450317-2.3373718,3.7886963-5.5760803,3.7886963-9.14328c0,3.5671997,1.443634,6.8059082,3.7886658,9.14328
			C309.504303,478.8244629,312.7354126,480.2757874,316.3102112,480.2757874z"/>
		<path class="st1" d="M551.7752075,204.5546875c-3.5748291,0-6.8059082,1.4512787-9.1432495,3.7886505
			c-2.3450317,2.3373718-3.7886963,5.5760803-3.7886963,9.14328c0-3.5671997-1.4436646-6.8059082-3.7886963-9.14328
			c-2.3373413-2.3373718-5.5684204-3.7886505-9.1432495-3.7886505c3.5748291,0,6.8059082-1.4513397,9.1432495-3.7887115
			c2.3450317-2.3373718,3.7886963-5.5760651,3.7886963-9.1432648c0,3.5671997,1.4436646,6.8058929,3.7886963,9.1432648
			C544.9692993,203.1033478,548.2003784,204.5546875,551.7752075,204.5546875z"/>
		<path class="st2" d="M83.0729294,444.1128845c-1.9010239,0-3.619278,0.771759-4.8622513,2.01474
			c-1.2470474,1.242981-2.0147476,2.965271-2.0147476,4.8622437c0-1.8969727-0.7677307-3.6192627-2.0147705-4.8622437
			c-1.242981-1.242981-2.9612045-2.01474-4.8622513-2.01474c1.9010468,0,3.6192703-0.7717896,4.8622513-2.0147705
			c1.2470398-1.242981,2.0147705-2.965271,2.0147705-4.8622742c0,1.8970032,0.7677002,3.6192932,2.0147476,4.8622742
			C79.4536514,443.341095,81.1719055,444.1128845,83.0729294,444.1128845z"/>
		<path class="st1" d="M94.5051422,180.8415985c-2.7956772,0-5.3225708,1.1349792-7.1505127,2.9629211
			c-1.8339233,1.8279572-2.9629211,4.3607788-2.9629211,7.150528c0-2.7897491-1.1290359-5.3225708-2.9629593-7.150528
			c-1.8279495-1.8279419-4.354805-2.9629211-7.1505203-2.9629211c2.7957153,0,5.3225708-1.1350098,7.1505203-2.9629517
			c1.8339233-1.8279419,2.9629593-4.3607788,2.9629593-7.1505127c0,2.7897339,1.1289978,5.3225708,2.9629211,7.1505127
			C89.1825714,179.7065887,91.709465,180.8415985,94.5051422,180.8415985z"/>
		<path class="st1" d="M272.3267212,431.8812866c-1.787384,0-3.4029541,0.725647-4.5716248,1.8943481
			c-1.1725159,1.1686707-1.8943176,2.7880249-1.8943176,4.5716248c0-1.7835999-0.7218628-3.4029541-1.8943481-4.5716248
			c-1.1687012-1.1687012-2.7842407-1.8943481-4.5716553-1.8943481c1.7874146,0,3.4029541-0.725647,4.5716553-1.8943481
			c1.1724854-1.1686707,1.8943481-2.7880249,1.8943481-4.5716248c0,1.7835999,0.7218018,3.4029541,1.8943176,4.5716248
			C268.9237671,431.1556396,270.5393372,431.8812866,272.3267212,431.8812866z"/>
		<path class="st2" d="M57.0983162,309.9647827c-1.3909798,0-2.6482277,0.5646973-3.5577164,1.4741821
			c-0.9124641,0.9094849-1.4741936,2.1697083-1.4741936,3.5577393c0-1.388031-0.5617485-2.6482544-1.4742088-3.5577393
			c-0.9094887-0.9094849-2.1667175-1.4741821-3.5577164-1.4741821c1.3909988,0,2.6482277-0.5647278,3.5577164-1.4742126
			c0.9124603-0.9094849,1.4742088-2.1696777,1.4742088-3.5577087c0,1.388031,0.5617294,2.6482239,1.4741936,3.5577087
			C54.4500885,309.4000549,55.7073364,309.9647827,57.0983162,309.9647827z"/>
		<circle class="st1" cx="358.6156006" cy="431.3468628" r="3.8801591"/>
		<circle class="st2" cx="552.2428589" cy="288.9603882" r="3.1659524"/>
	</g>
</g>
<g id="LEFT_UPPER_ARM">
	<g>
		<path class="st2" d="M529.7920532,313.3076477c14.4400024,0.6152039,42.0328979,48.0360107,54.2124634,70.3061829
			c3.6204834,6.6199646,2.3308105,14.8448181-3.131897,20.0496521l-0.000061,0.0000305
			c-7.1203613,6.7843018-18.5368042,5.9588013-24.6071167-1.7793274l-39.2223511-49.9986572
			C517.0430908,351.8855286,500.7550354,312.0705261,529.7920532,313.3076477z"/>
	</g>
</g>
<g id="RIGHT_UPPER_ARM">
	<path class="st2" d="M448.9121094,312.5932922c-18.0780029,5.5034485-41.931366,97.7928467-41.931366,97.7928467
		c-4.4361877,24.8408813,23.9004517,28.0396118,31.1150513,11.4001465l32.8137207-75.0329895
		C470.9095154,346.7532959,476.7156677,304.1290894,448.9121094,312.5932922z"/>
</g>
<g id="RIGHT_ARM">
	<path class="st2" d="M406.9807434,410.3861389l1.2667847,60.6974792h26.8916626l2.956604-49.2973328
		C442.2871399,395.4158325,412.0420227,392.2654724,406.9807434,410.3861389z"/>
</g>
<g id="RIGHT_THIGH">
	<g>
		<path class="st1" d="M447.2178345,449.5940552l-69.724762,32.2274475
			c-7.3269348,3.3865662-12.0178223,10.7224426-12.0178223,18.7941895v0.0000305
			c0,13.2962646,12.3538818,23.1459961,25.3161316,20.1845703l101.5749512-23.2062378v-51.8019714h-45.6237488
			L447.2178345,449.5940552z"/>
		<path class="st3" d="M482.8613892,445.7920837v16.6027222c0,3.0018005,1.4499207,5.8187256,3.8928528,7.5631409
			l5.6120911,4.0073242v18.7575073"/>
		<polyline class="st3" points="398.5049438,483.5606384 459.5742493,455.7722778 459.5742493,447.4554443 		"/>
	</g>
</g>
<g id="BODY">
	<g>
		<path class="st2" d="M529.7920532,313.3076477c0,0-21.7327576-6.3370972-77.2276001-1.5608826
			c0,0-10.0991211,15.8345642-12.5941467,51.4781494c-2.7909241,39.8700562-4.8311157,90.4118347-4.8311157,90.4118347h105.9859924
			C541.1251831,453.6367493,546.8499146,391.3188171,529.7920532,313.3076477z"/>
		<path class="st3" d="M450.6001282,315.5102539c-3.0670776,6.5820923-8.8290405,21.9888916-10.6298218,47.7146606
			c-0.7907104,11.2958069-1.5211792,23.4482422-2.1620483,35.0651855"/>
		<path class="st3" d="M538.8432617,368.9093018c-1.7911377-16.3827209-4.5107422-34.4090881-8.574646-53.3988342"/>
		<g>
			<path class="st0" d="M508.9779358,314.1662292c-3.6360474,8.4579468-10.4680176,11.8822327-14.7420044,13.2235718
				c-1.0986938-6.0317993-4.1269531-13.6170349-4.1269531-13.6170349c-3.3643494,4.6310425-5.1427917,10.755249-5.5808105,13.54953
				c-10.8927002-2.9945068-12.1345215-13.4668274-12.1345215-13.4668274
				c1.3303528-10.4939575,10.3553467-18.3956299,18.1000977-18.1324768
				C507.6119385,296.3045959,508.9779358,314.1662292,508.9779358,314.1662292z"/>
		</g>
	</g>
</g>
<g id="LEFT_THIGH">
	<g>
		<path class="st1" d="M492.366333,497.5940552h20.3864746c14.3787231,0,26.4689941-10.7884521,28.1000366-25.0744019
			l11.3546753-99.4542542c1.3509521-11.8328552-7.9035034-22.20401-19.8132324-22.20401l0,0
			c-9.0874023,0-17.0255737,6.1436462-19.3046265,14.9406128l-20.7233276,88.0128174V497.5940552z"/>
		<line class="st3" x1="492.366333" y1="457.5837708" x2="492.366333" y2="493.2781677"/>
	</g>
</g>
<g id="RIGHT_CALF">
	<g>
		<polygon class="st0" points="507.5837097,497.4063721 507.5837097,509.6629333 479.0688782,512.6143188 479.0688782,495.9995728 
					"/>
		<g>
			<polygon class="st1" points="501.7505188,515.7545166 501.7505188,492.1687622 540.2173462,486.2891541 540.2173462,520.2693481 
							"/>
			<polygon class="st3" points="501.7505188,515.7545166 501.7505188,492.1687622 540.2173462,486.2891541 540.2173462,520.2693481 
							"/>
			<line class="st3" x1="506.5341492" y1="508.506958" x2="525.7816772" y2="508.506958"/>
			<line class="st3" x1="506.5341492" y1="499.4178772" x2="525.7816772" y2="499.4178772"/>
			<path class="st0" d="M520.9839478,503.4158325v0.0000305c0,10.7711487,8.7316895,19.5028992,19.5028687,19.5028992h2.4677124
				v-39.0058594h-2.4677124C529.7156372,483.9129028,520.9839478,492.6446533,520.9839478,503.4158325z"/>
		</g>
		<path class="st1" d="M481.6699829,490.9400024v26.3800049l-94.4599609,4.1399536
			c-5.0599976,0.2200317-9.8000488-1.3999634-13.5400391-4.2999878c-4.2699585-3.289978-7.2399902-8.2399902-7.8999634-13.9899902
			l-0.2900391-2.5499878v-2.0300293c0-3.8200073,1.3300171-7.2999878,3.5599976-10.039978
			c3.1900024-3.9700317,8.25-6.3599854,13.7700195-5.9000244L481.6699829,490.9400024z"/>
		<path class="st4" d="M391.7800293,502.039978c0,8.4899902-6.8800049,15.3699951-15.3700562,15.3699951
			c-0.9400024,0-1.8499756-0.0800171-2.7399902-0.25c-4.2699585-3.289978-7.2399902-8.2399902-7.8999634-13.9899902
			l-0.2900391-2.5499878v-2.0300293c0-3.8200073,1.3300171-7.2999878,3.5599976-10.039978
			c2.1900024-1.210022,4.7000122-1.8900146,7.3699951-1.8900146
			C384.9000244,486.6599731,391.7800293,493.5499878,391.7800293,502.039978z"/>
		<path class="st3" d="M382.8451843,521.1907349c-3.3971863-0.5745239-6.5353394-1.9837646-9.1752014-4.0307617
			c-4.2699585-3.289978-7.2399902-8.2399902-7.8999634-13.9899902l-0.2900391-2.5499878v-2.0300293
			c0-3.8200073,1.3300171-7.2999878,3.5599976-10.039978c3.1900024-3.9700317,8.25-6.3599854,13.7700195-5.9000244
			l98.8599854,8.2900391"/>
		<line class="st3" x1="474.0098877" y1="492.7227783" x2="474.0098877" y2="514.1088867"/>
	</g>
</g>
<g id="LEFT_CALF">
	<g>
		<g>
			<polygon class="st0" points="542.048645,489.2772217 529.7920532,489.2772217 526.8406982,460.7623901 543.4554443,460.7623901 
							"/>
			<path class="st1" d="M521.7989502,466.5621948h26.3800049l4.1399536-94.4599609
				c0.2200317-5.0599976-1.3999634-9.8000488-4.2999878-13.5400391c-3.289978-4.2699585-8.2399902-7.2399902-13.9899902-7.8999634
				l-2.5499878-0.2900391h-2.0300293c-3.8200073,0-7.2999878,1.3300171-10.039978,3.5599976
				c-3.9700317,3.1900024-6.3599854,8.25-5.9000244,13.7700195L521.7989502,466.5621948z"/>
			<path class="st4" d="M532.8989258,376.6722412c8.4899902,0,15.3699951-6.8800049,15.3699951-15.3700562
				c0-0.9400024-0.0800171-1.8499756-0.25-2.7399902c-3.289978-4.2699585-8.2399902-7.2399902-13.9899902-7.8999634
				l-2.5499878-0.2900391h-2.0300293c-3.8200073,0-7.2999878,1.3300171-10.039978,3.5599976
				c-1.210022,2.1900024-1.8900146,4.7000122-1.8900146,7.3699951
				C517.5189209,369.7922363,524.4089355,376.6722412,532.8989258,376.6722412z"/>
			<path class="st3" d="M548.0189209,358.5621948c-3.289978-4.2699585-8.2399902-7.2399902-13.9899902-7.8999634
				l-2.5499878-0.2900391h-2.0300293c-3.8200073,0-7.2999878,1.3300171-10.039978,3.5599976
				c-3.9700317,3.1900024-6.3599854,8.25-5.9000244,13.7700195l8.2900391,98.8599854h25.2802734"/>
			<line class="st3" x1="524.6831665" y1="458.9020996" x2="544.9678345" y2="458.9020996"/>
		</g>
		<g>
			<polygon class="st1" points="524.6831665,480.2757874 548.2689209,480.2757874 554.1484985,518.7425537 520.168335,518.7425537 
							"/>
			<polygon class="st3" points="524.6831665,480.2757874 548.2689209,480.2757874 554.1484985,518.7425537 520.168335,518.7425537 
							"/>
			<line class="st3" x1="531.9306641" y1="485.0594177" x2="531.9306641" y2="504.3069458"/>
			<line class="st3" x1="541.0197754" y1="485.0594177" x2="541.0197754" y2="504.3069458"/>
			<path class="st0" d="M537.0218506,499.5091858h-0.000061c-10.7711182,0-19.5028687,8.7317505-19.5028687,19.5028992v2.4677124
				h39.0058594v-2.4677124C556.5247803,508.2409363,547.7930298,499.5091858,537.0218506,499.5091858z"/>
		</g>
	</g>
</g>
<g id="NECK">
	<path class="st0" d="M497.6237488,308.0891113c-2.2531433,1.3128662-4.6158142,2.1217957-7.098999,2.3762207
		c-2.4826965-0.2290649-4.8382263-1.0732422-7.098999-2.3762207v-19.1287231h14.197998V308.0891113z"/>
</g>
<g id="HEAD">
	<g>
		<path class="st0" d="M501.2646179,282.7642822c0.5553894-4.9057312,3.4241028-8.8335266,6.4493408-8.6065674
			c0.6156921,0.0462036,1.2294006,0.260437,1.8126526,0.7119446c3.3327637,2.5800781-0.138855,16.229187-8.8172913,12.7993774
			L501.2646179,282.7642822z"/>
		<path class="st0" d="M478.7155762,282.7642822c-0.5553894-4.9057312-3.4241028-8.8335266-6.4493408-8.6065674
			c-0.6156616,0.0462036-1.2294006,0.260437-1.8126526,0.7119446c-3.3327637,2.5800781,0.138855,16.229187,8.8172913,12.7993774
			L478.7155762,282.7642822z"/>
		<path class="st0" d="M504.0291748,280.4659729c0,4.34198-3.0333252,13.6869507-14.0390625,14.4960327
			c-11.0057678-0.809082-14.0390625-10.1540527-14.0390625-14.4960327c0-4.3533936-3.6641235-21.9264526,14.0390625-21.9264526
			C507.6932678,258.5395203,504.0291748,276.1125793,504.0291748,280.4659729z"/>
		<path class="st5" d="M504.8361206,280.6821289l-1.375824,0.1191406l0.8819275-6.6529236
			c0,0-4.8864441,1.090271-5.3076782-1.5950012c0,0-0.5466919-2.7732849,0.506073-8.7652588
			c0,0-6.3358765,1.4322815-10.6490479,1.4322815c-12.9679565,0-15.6519165-8.5921021-14.6537476-12.9937592
			c0.0063782-0.0281219,0.0128479-0.0562439,0.0194092-0.0843658c1.5270386-6.447403,3.9002686-1.8030548,3.9002686-1.8030548
			s1.29422-5.1878815,4.0378113-5.4236755c2.7547607-0.2338867,3.3687134,6.5811462,3.3687134,6.5811462
			s5.6757202-1.9398651,14.1097412,0.0900574c10.2874756,2.4760284,6.0891113,8.2974396,6.0891113,8.2974396
			S515.8425903,262.1015625,504.8361206,280.6821289z"/>
		<path class="st5" d="M478.1503906,256.2896729c-8.1470947,2.8414307-8.1764526,12.04953-2.5133972,23.7227783h1.5030212
			l-0.9388123-5.4089966c0,0,6.7778015-0.0485535,4.265564-12.3860168L478.1503906,256.2896729z"/>
	</g>
</g>
<g id="LAPTOP">
	<path class="st0" d="M479.534668,475.2574158h-87.4455566c-4.1995544,0-7.6039734-3.4043884-7.6039734-7.6039429v-58.4554443
		c0-4.1995544,3.4044189-7.6039734,7.6039734-7.6039734h87.4455566c4.1995239,0,7.6039429,3.4044189,7.6039429,7.6039734v58.4554443
		C487.1386108,471.8530273,483.7341919,475.2574158,479.534668,475.2574158z"/>
</g>
<g id="LEFT_ARM">
	<g>
		<g>
			<g>
				<path class="st2" d="M586.1102905,392.2654724l0.0001221,0.0100098
					c0.1166992,12.5194702-10.9312744,19.2227173-21.4636841,15.790802
					c-3.7213745-1.1954041-7.3745117-3.661438-10.4411621-7.5829773
					c-13.0153809-16.609436-27.4805908-44.9858093-27.4805908-44.9858093l17.8950806-15.6274719
					c0,0,36.9362793,31.6070251,40.7270508,46.6923523C585.855957,388.5776672,586.0936279,390.4755554,586.1102905,392.2654724z"/>
				<path class="st4" d="M586.1102905,392.2654724l0.0001221,0.0100098
					c0.1166992,12.5194702-10.9312744,19.2227173-21.4636841,15.790802c-1.2689209-2.01828-2.0011597-4.4015808-2.0249634-6.9514465
					c-0.0687866-7.3796997,5.8551636-13.4251709,13.244812-13.4940796
					C579.9564209,387.5826416,583.6333618,389.3884583,586.1102905,392.2654724z"/>
				<path class="st3" d="M586.1102905,392.2654724l0.0001221,0.0100098
					c0.1166992,12.5194702-10.9312744,19.2227173-21.4636841,15.790802"/>
			</g>
			<path class="st3" d="M571.9415894,366.4297485c-11.9312134-13.395813-27.3187256-26.5646667-27.3187256-26.5646667
				l-17.9021606,15.6317139c0,0,11.0205688,21.6083374,22.4712524,38.1494141"/>
		</g>
		<g>
			<path class="st0" d="M544.0494995,345.3366394c0,0-9.6237793-8.3762512-19.7821655-8.1980286
				c-3.2124023,0.056366-13.5445557,8.3762512-16.2178345,12.1188049
				c-2.6732483,3.7425842-2.3168335,11.2277222,0.534668,14.2574463c2.8514709,3.0296936,4.8118896-1.0693054,4.8118896-1.0693054
				s-0.7128906,4.8118591,7.1287231,6.2376099c7.8415527,1.4257507,12.2969971-4.098999,12.4752197-10.6930542
				C533,357.9901123,543.1583862,359.0594177,544.0494995,345.3366394z"/>
			<path class="st3" d="M513.2827759,359.0594177c0,0-0.3067017-3.5154419,0.2973022-6.1329346
				c0.6040649-2.6175232,5.6377563-5.4364014,5.6377563-5.4364014"/>
		</g>
	</g>
</g>
<g id="PLANT">
	<g>
		<g>
			<path class="st0" d="M168.0055389,490.2243958c0,0-32.5330658-27.7615662-27.8890839-79.7947083
				C176.1621552,448.2413635,168.0055389,490.2243958,168.0055389,490.2243958z"/>
			<path class="st1" d="M168.0055389,490.2243958c0,0-40.2395554-14.4873352-54.2658081-64.809082
				C160.8140564,448.0653076,168.0055389,490.2243958,168.0055389,490.2243958z"/>
			<path class="st0" d="M168.0055389,490.2243958c0,0,32.5330658-27.7615662,27.8890839-79.7947083
				C159.8489227,448.2413635,168.0055389,490.2243958,168.0055389,490.2243958z"/>
			<path class="st1" d="M168.0055389,490.2243958c0,0,40.2395477-14.4873352,54.2658081-64.809082
				C175.1970215,448.0653076,168.0055389,490.2243958,168.0055389,490.2243958z"/>
			<path class="st1" d="M168.0055389,490.2243958c0,0-21.5516815-36.9408875,0-84.5280762
				C189.5572205,453.2835083,168.0055389,490.2243958,168.0055389,490.2243958z"/>
		</g>
		<path class="st2" d="M207.6277466,471.0836182c0,36.6705017-20.0871277,54.076355-20.0871277,54.076355h-39.0814362
			c0,0-20.0758514-17.4058533-20.0758514-54.076355H207.6277466z"/>
	</g>
</g>
</svg>
