<svg version="1.2" xmlns="http://www.w3.org/2000/svg" viewBox="0 0 570 512" width="570" height="512"><style>.a{fill:#3f3d56}.b{fill:#e6e6e6}.c{fill:#6c63ff}.d{fill:#fff}.e{fill:#f50057}</style><path class="a" d="m565 195.7q-0.1 0-0.2 0 0 0-0.1-0.1-0.1 0-0.1 0-0.1-0.1-0.2-0.1l-276.5-192.6q-0.7-0.4-1.4-0.7-0.7-0.2-1.5-0.2-0.8 0-1.5 0.2-0.7 0.3-1.4 0.7l-274.5 192.6q-0.4 0.2-0.8 0.2-0.4-0.1-0.6-0.5-0.3-0.3-0.2-0.7 0.1-0.4 0.4-0.6l274.6-192.6q0.9-0.7 1.9-1 1-0.3 2.1-0.3 1.1 0 2.1 0.3 1 0.3 1.9 1l276.6 192.6q0.2 0.1 0.3 0.5 0.1 0.3 0.1 0.6-0.1 0.3-0.4 0.5-0.3 0.2-0.6 0.2z"/><path class="b" d="m23.3 202.5l262-194.2 264 208-250.5 148.5-136-31-139.5-131.3z"/><path class="c" d="m174.3 456.5h-129.5c-1.6 0-3.1-0.6-4.3-1.7-1.1-1.2-1.7-2.7-1.7-4.3 0-1.6 0.6-3.2 1.7-4.3 1.2-1.1 2.7-1.8 4.3-1.8h129.5c1.6 0 3.1 0.7 4.2 1.8 1.2 1.1 1.8 2.7 1.8 4.3 0 1.6-0.6 3.1-1.8 4.3-1.1 1.1-2.6 1.7-4.2 1.7z"/><path class="c" d="m91.3 430.5h-46.5c-1.6 0-3.1-0.6-4.3-1.7-1.1-1.2-1.7-2.7-1.7-4.3 0-1.6 0.6-3.2 1.7-4.3 1.2-1.1 2.7-1.8 4.3-1.8h46.5c1.6 0 3.1 0.7 4.2 1.8 1.2 1.1 1.8 2.7 1.8 4.3 0 1.6-0.6 3.1-1.8 4.3-1.1 1.1-2.6 1.7-4.2 1.7z"/><path class="d" d="m289 310.7q-0.4 0-0.8-0.1-0.3 0-0.7-0.1-0.4-0.1-0.7-0.2-0.4-0.1-0.7-0.2l-161.6-67.1v-209.8q0-1.4 0.5-2.7 0.6-1.3 1.6-2.3 0.9-1 2.2-1.5 1.3-0.5 2.7-0.5h310q1.4 0 2.7 0.5 1.3 0.5 2.2 1.5 1 1 1.6 2.3 0.5 1.3 0.5 2.7v210l-0.3 0.1-156.3 66.8q-0.3 0.1-0.7 0.2-0.4 0.1-0.7 0.2-0.4 0.1-0.8 0.1-0.4 0.1-0.7 0.1z"/><path fill-rule="evenodd" class="a" d="m289 311.2q-0.4 0-0.8-0.1-0.4 0-0.8-0.1-0.4-0.1-0.8-0.2-0.3-0.1-0.7-0.2l-161.9-67.2v-210.2q0-1.5 0.6-2.9 0.5-1.4 1.6-2.4 1.1-1.1 2.4-1.7 1.4-0.5 2.9-0.5h310q1.5 0 2.9 0.5 1.3 0.6 2.4 1.7 1.1 1 1.6 2.4 0.6 1.4 0.6 2.9v210.3l-156.9 67q-0.4 0.2-0.7 0.3-0.4 0.1-0.8 0.2-0.4 0.1-0.8 0.1-0.4 0.1-0.8 0.1zm-163-69.2l160.7 66.7q0.5 0.2 1.1 0.4 0.6 0.1 1.2 0.1 0.6 0 1.2-0.2 0.6-0.1 1.1-0.3l155.7-66.5v-209q0-1.1-0.4-2.1-0.4-1-1.2-1.8-0.8-0.8-1.8-1.2-1-0.4-2.1-0.4h-310q-1.1 0-2.1 0.4-1 0.4-1.8 1.2-0.8 0.8-1.2 1.8-0.4 1-0.4 2.1z"/><path fill-rule="evenodd" class="a" d="m565.7 194.2q1.3 0.5 2.2 1.5 1 1 1.6 2.3 0.5 1.3 0.5 2.7v304q0 1.4-0.5 2.7-0.6 1.2-1.6 2.2-0.9 1-2.2 1.5-1.3 0.6-2.7 0.6h-556q-1.4 0-2.7-0.6-1.3-0.5-2.2-1.5-1-1-1.6-2.2-0.5-1.3-0.5-2.7v-304q0-1.4 0.5-2.7 0.6-1.3 1.6-2.3 0.9-1 2.2-1.5 1.3-0.5 2.7-0.5h0.2l0.2 0.1 117.6 48.8 162 67.2q0.5 0.2 1 0.3 0.5 0.1 1 0.1 0.5 0 1-0.1 0.5-0.1 0.9-0.3l157.1-67.1 114.8-49h0.2q1.4 0 2.7 0.5zm2.3 6.5q0-1-0.4-1.9-0.3-0.9-1-1.6-0.7-0.7-1.6-1.1-0.8-0.4-1.8-0.4l-115.2 49.2-156.3 66.7q-0.6 0.3-1.3 0.4-0.7 0.2-1.4 0.2-0.7 0-1.4-0.2-0.7-0.1-1.3-0.4l-161.3-66.9-118.2-49q-1 0-1.8 0.4-0.9 0.4-1.6 1.1-0.7 0.7-1 1.6-0.4 0.9-0.4 1.9v304q0 1 0.4 1.9 0.4 0.9 1.1 1.6 0.7 0.7 1.6 1.1 0.9 0.4 1.9 0.4h556q1 0 1.9-0.4 0.9-0.4 1.6-1.1 0.7-0.7 1.1-1.6 0.4-0.9 0.4-1.9z"/><circle class="e" cx="289.6" cy="159.1" r="96.6"/><path class="d" d="m263 138.3l5.7-5.7 47.4 47.4-5.7 5.6z"/><path class="d" d="m310.4 132.6l5.7 5.7-47.4 47.3-5.7-5.6z"/><path class="d" d="m263 138.3l5.7-5.7 47.4 47.4-5.7 5.6z"/><path class="d" d="m310.4 132.6l5.7 5.7-47.4 47.3-5.7-5.6z"/></svg>