<svg version="1.2" xmlns="http://www.w3.org/2000/svg" viewBox="0 0 980 700" width="980" height="700"><style>.A{fill:#ccc}.B{fill:#f50057}.C{fill:#f2f2f2}.D{fill:#3f3d56}.E{fill:#fff}.F{fill:#e6e6e6}.G{fill:#ffb6b6}.H{fill:#e4e4e4}.I{fill:#2f2e41}</style><path class="A" d="m889.9 315c1.7 1.7 2.7 4 2.7 6.5c0 2.4-1 4.7-2.7 6.5c-1.7 1.7-4.1 2.7-6.5 2.7h-15l-2.7 220c0 2.5-1 4.8-2.7 6.5c-1.7 1.8-4.1 2.7-6.5 2.7c-2.4 0-4.8-0.9-6.5-2.7c-1.7-1.7-2.7-4-2.7-6.5l-42.5-220h-461.2l-0.1 220c0 2.5-1 4.8-2.7 6.5c-1.7 1.8-4.1 2.7-6.5 2.7c-2.5 0-4.8-0.9-6.5-2.7c-1.8-1.7-2.7-4-2.7-6.5v-220h-16.3c-2.4 0-4.8-1-6.5-2.7c-1.7-1.8-2.7-4.1-2.7-6.5c0-2.5 1-4.8 2.7-6.5c1.7-1.8 4.1-2.7 6.5-2.7h574.6c2.4 0 4.8 0.9 6.5 2.7z"/><path class="B" d="m259.1 3.1h7.7v12.3h-7.7z"/><path class="B" d="m833.8 199.9h7.7v12.4h-7.7z"/><path class="B" d="m299.2 0h7.7v12.3h-7.7z"/><path class="B" d="m299.2 37h7.7v12.4h-7.7z"/><path class="B" d="m314.6 18.5h7.8v12.4h-7.8z"/><path class="B" d="m314.6 38.6h7.8v12.3h-7.8z"/><path class="B" d="m299.2 77.2h7.7v12.3h-7.7z"/><path class="B" d="m314.6 97.2h7.8v12.4h-7.8z"/><path class="B" d="m299.2 172.8h7.7v12.4h-7.7z"/><path class="B" d="m259.1 23.1h7.7v12.4h-7.7z"/><path class="B" d="m259.1 216h7.7v12.4h-7.7z"/><path class="B" d="m259.1 256.2h7.7v12.3h-7.7z"/><path class="B" d="m256 44.8h10.8v1.5h-10.8z"/><path class="B" d="m297.7 63.3h10.8v1.5h-10.8z"/><path class="B" d="m256 143.5h10.8v1.6h-10.8z"/><path class="B" d="m256 160.5h10.8v1.5h-10.8z"/><path class="B" d="m297.7 259.3h10.8v1.5h-10.8z"/><path class="B" d="m259.1 58.6h7.7v12.4h-7.7v-3.1h3.1v-6.2h-3.1v-3.1z"/><path class="B" d="m427 264h7.7v12.3h-7.7v-3h3.1v-6.2h-3.1v-3.1z"/><path class="B" d="m314.6 57.1h7.8v12.3h-7.8v-3h3.1v-6.2h-3.1v-3.1z"/><path class="B" d="m314.6 117.3h7.8v12.3h-7.8v-3.1h3.1v-6.1h-3.1v-3.1z"/><path class="B" d="m314.6 137.3h7.8v12.4h-7.8v-3.1h3.1v-6.2h-3.1v-3.1z"/><path class="B" d="m314.6 75.6h7.8v12.4h-7.8v-3.1h3.1v-6.2h-3.1v-3.1z"/><path class="B" d="m299.2 18.5h7.7v12.4h-7.7v-3.1h3.1v-6.2h-3.1v-3.1z"/><path class="B" d="m299.2 117.3h7.7v12.3h-7.7z"/><path class="B" d="m299.2 154.3h7.7v12.4h-7.7z"/><path class="B" d="m299.2 135.8h7.7v12.3h-7.7v-3h3.1v-6.2h-3.1v-3.1z"/><path class="B" d="m427 284.1h7.7v12.3h-7.7v-3.1h3.1v-6.2h-3.1v-3z"/><path class="B" d="m427 364.3h7.7v12.4h-7.7z"/><path class="B" d="m427 344.2h7.7v12.4h-7.7v-3.1h3.1v-6.2h-3.1v-3.1z"/><path class="B" d="m427 404.4h7.7v12.4h-7.7z"/><path class="B" d="m427 384.4h7.7v12.3h-7.7v-3.1h3.1v-6.1h-3.1v-3.1z"/><path class="B" d="m285.3 217.6h7.7v12.3h-7.7z"/><path class="B" d="m299.2 214.5h7.7v12.4h-7.7z"/><path class="B" d="m427 424.5h7.7v12.3h-7.7v-3h3.1v-6.2h-3.1v-3.1z"/><path class="B" d="m833.8 199.9h7.7v12.4h-7.7z"/><path class="B" d="m427 264h7.7v12.3h-7.7v-3h3.1v-6.2h-3.1v-3.1z"/><path class="B" d="m427 284.1h7.7v12.3h-7.7v-3.1h3.1v-6.2h-3.1v-3z"/><path class="B" d="m427 364.3h7.7v12.4h-7.7z"/><path class="B" d="m427 344.2h7.7v12.4h-7.7v-3.1h3.1v-6.2h-3.1v-3.1z"/><path class="B" d="m427 404.4h7.7v12.4h-7.7z"/><path class="B" d="m427 384.4h7.7v12.3h-7.7v-3.1h3.1v-6.1h-3.1v-3.1z"/><path class="B" d="m427 424.5h7.7v12.3h-7.7v-3h3.1v-6.2h-3.1v-3.1z"/><path class="B" d="m833.8 237h7.7v12.3h-7.7v-3.1h3v-6.2h-3v-3z"/><path class="B" d="m833.8 257h7.7v12.4h-7.7v-3.1h3v-6.2h-3v-3.1z"/><path class="B" d="m285.3 0h7.7v12.3h-7.7z"/><path class="B" d="m285.3 97.2h7.7v12.4h-7.7z"/><path class="B" d="m285.3 37h7.7v12.4h-7.7v-3.1h3.1v-6.2h-3.1v-3.1z"/><path class="B" d="m285.3 57.1h7.7v12.3h-7.7v-3h3.1v-6.2h-3.1v-3.1z"/><path class="B" d="m285.3 77.2h7.7v12.3h-7.7v-3.1h3.1v-6.2h-3.1v-3z"/><path class="B" d="m285.3 137.3h7.7v12.4h-7.7z"/><path class="B" d="m285.3 117.3h7.7v12.3h-7.7v-3.1h3.1v-6.1h-3.1v-3.1z"/><path class="B" d="m285.3 177.5h7.7v12.3h-7.7z"/><path class="B" d="m285.3 157.4h7.7v12.4h-7.7v-3.1h3.1v-6.2h-3.1v-3.1z"/><path class="B" d="m285.3 197.5h7.7v12.4h-7.7v-3.1h3.1v-6.2h-3.1v-3.1z"/><path class="B" d="m314.6 197.5h7.8v12.4h-7.8v-3.1h3.1v-6.2h-3.1v-3.1z"/><path class="B" d="m393.3 18.5h7.8v12.4h-7.8z"/><path class="B" d="m393.3 38.6h7.8v12.3h-7.8z"/><path class="B" d="m393.3 97.2h7.8v12.4h-7.8z"/><path class="B" d="m393.3 57.1h7.8v12.3h-7.8v-3h3.1v-6.2h-3.1v-3.1z"/><path class="B" d="m393.3 117.3h7.8v12.3h-7.8v-3.1h3.1v-6.1h-3.1v-3.1z"/><path class="B" d="m393.3 137.3h7.8v12.4h-7.8v-3.1h3.1v-6.2h-3.1v-3.1z"/><path class="B" d="m393.3 75.6h7.8v12.4h-7.8v-3.1h3.1v-6.2h-3.1v-3.1z"/><path class="B" d="m393.3 197.5h7.8v12.4h-7.8v-3.1h3.1v-6.2h-3.1v-3.1z"/><path class="B" d="m285.3 257.7h7.7v12.4h-7.7z"/><path class="B" d="m299.2 234.6h7.7v12.3h-7.7z"/><path class="B" d="m299.2 273.1h7.7v12.4h-7.7z"/><path class="B" d="m285.3 237.7h7.7v12.3h-7.7v-3.1h3.1v-6.2h-3.1v-3z"/><path class="B" d="m370.2 0h7.7v12.3h-7.7z"/><path class="B" d="m370.2 97.2h7.7v12.4h-7.7z"/><path class="B" d="m370.2 37h7.7v12.4h-7.7v-3.1h3.1v-6.2h-3.1v-3.1z"/><path class="B" d="m370.2 57.1h7.7v12.3h-7.7v-3h3.1v-6.2h-3.1v-3.1z"/><path class="B" d="m370.2 77.2h7.7v12.3h-7.7v-3.1h3.1v-6.2h-3.1v-3z"/><path class="B" d="m370.2 137.3h7.7v12.4h-7.7z"/><path class="B" d="m370.2 117.3h7.7v12.3h-7.7v-3.1h3.1v-6.1h-3.1v-3.1z"/><path class="B" d="m370.2 177.5h7.7v12.3h-7.7z"/><path class="B" d="m370.2 157.4h7.7v12.4h-7.7v-3.1h3.1v-6.2h-3.1v-3.1z"/><path class="B" d="m370.2 217.6h7.7v12.3h-7.7z"/><path class="B" d="m370.2 197.5h7.7v12.4h-7.7v-3.1h3.1v-6.2h-3.1v-3.1z"/><path class="B" d="m370.2 257.7h7.7v12.4h-7.7z"/><path class="B" d="m370.2 237.7h7.7v12.3h-7.7v-3.1h3.1v-6.2h-3.1v-3z"/><path class="B" d="m407.2 0h7.8v12.3h-7.8z"/><path class="B" d="m407.2 97.2h7.8v12.4h-7.8z"/><path class="B" d="m407.2 37h7.8v12.4h-7.8v-3.1h3.1v-6.2h-3.1v-3.1z"/><path class="B" d="m407.2 57.1h7.8v12.3h-7.8v-3h3.1v-6.2h-3.1v-3.1z"/><path class="B" d="m407.2 77.2h7.8v12.3h-7.8v-3.1h3.1v-6.2h-3.1v-3z"/><path class="B" d="m407.2 137.3h7.8v12.4h-7.8z"/><path class="B" d="m407.2 117.3h7.8v12.3h-7.8v-3.1h3.1v-6.1h-3.1v-3.1z"/><path class="B" d="m407.2 177.5h7.8v12.3h-7.8z"/><path class="B" d="m407.2 157.4h7.8v12.4h-7.8v-3.1h3.1v-6.2h-3.1v-3.1z"/><path class="B" d="m407.2 217.6h7.8v12.3h-7.8z"/><path class="B" d="m407.2 197.5h7.8v12.4h-7.8v-3.1h3.1v-6.2h-3.1v-3.1z"/><path class="B" d="m407.2 257.7h7.8v12.4h-7.8z"/><path class="B" d="m407.2 237.7h7.8v12.3h-7.8v-3.1h3.1v-6.2h-3.1v-3z"/><path class="B" d="m259.1 97.2h7.7v12.4h-7.7v-3.1h3.1v-6.2h-3.1v-3.1z"/><path class="B" d="m259.1 175.9h7.7v12.4h-7.7v-3.1h3.1v-6.2h-3.1v-3.1z"/><path class="B" d="m259.1 196h7.7v12.3h-7.7v-3.1h3.1v-6.1h-3.1v-3.1z"/><path class="B" d="m259.1 236.1h7.7v12.4h-7.7v-3.1h3.1v-6.2h-3.1v-3.1z"/><path class="B" d="m339.3 3.1h7.7v12.3h-7.7z"/><path class="B" d="m339.3 23.1h7.7v12.4h-7.7z"/><path class="B" d="m336.2 44.8h10.8v1.5h-10.8z"/><path class="B" d="m336.2 143.5h10.8v1.6h-10.8z"/><path class="B" d="m336.2 160.5h10.8v1.5h-10.8z"/><path class="B" d="m339.3 58.6h7.7v12.4h-7.7v-3.1h3.1v-6.2h-3.1v-3.1z"/><path class="B" d="m339.3 97.2h7.7v12.4h-7.7v-3.1h3.1v-6.2h-3.1v-3.1z"/><path class="B" d="m339.3 175.9h7.7v12.4h-7.7v-3.1h3.1v-6.2h-3.1v-3.1z"/><path class="B" d="m427.3 137.3h7.7v12.4h-7.7z"/><path class="B" d="m427.3 157.4h7.7v12.4h-7.7z"/><path class="B" d="m424.2 179h10.8v1.6h-10.8z"/><path class="B" d="m427.3 192.9h7.7v12.3h-7.7v-3h3.1v-6.2h-3.1v-3.1z"/><path class="B" d="m427.3 231.5h7.7v12.3h-7.7v-3.1h3.1v-6.1h-3.1v-3.1z"/><path class="B" d="m452 3.1h7.7v12.3h-7.7z"/><path class="B" d="m478.2 0h7.7v12.3h-7.7z"/><path class="B" d="m492.1 0h7.7v12.3h-7.7z"/><path class="B" d="m492.1 37h7.7v12.4h-7.7z"/><path class="B" d="m507.5 18.5h7.8v12.4h-7.8z"/><path class="B" d="m507.5 38.6h7.8v12.3h-7.8z"/><path class="B" d="m492.1 77.2h7.7v12.3h-7.7z"/><path class="B" d="m507.5 97.2h7.8v12.4h-7.8z"/><path class="B" d="m492.1 172.8h7.7v12.4h-7.7z"/><path class="B" d="m478.2 97.2h7.7v12.4h-7.7z"/><path class="B" d="m452 23.1h7.7v12.4h-7.7z"/><path class="B" d="m452 216h7.7v12.4h-7.7z"/><path class="B" d="m452 256.2h7.7v12.3h-7.7z"/><path class="B" d="m448.9 44.8h10.8v1.5h-10.8z"/><path class="B" d="m490.6 63.3h10.8v1.5h-10.8z"/><path class="B" d="m448.9 143.5h10.8v1.6h-10.8z"/><path class="B" d="m448.9 160.5h10.8v1.5h-10.8z"/><path class="B" d="m490.6 259.3h10.8v1.5h-10.8z"/><path class="B" d="m452 58.6h7.7v12.4h-7.7v-3.1h3.1v-6.2h-3.1v-3.1z"/><path class="B" d="m478.2 37h7.7v12.4h-7.7v-3.1h3.1v-6.2h-3.1v-3.1z"/><path class="B" d="m507.5 57.1h7.8v12.3h-7.8v-3h3.1v-6.2h-3.1v-3.1z"/><path class="B" d="m507.5 117.3h7.8v12.3h-7.8v-3.1h3.1v-6.1h-3.1v-3.1z"/><path class="B" d="m507.5 137.3h7.8v12.4h-7.8v-3.1h3.1v-6.2h-3.1v-3.1z"/><path class="B" d="m507.5 75.6h7.8v12.4h-7.8v-3.1h3.1v-6.2h-3.1v-3.1z"/><path class="B" d="m492.1 18.5h7.7v12.4h-7.7v-3.1h3.1v-6.2h-3.1v-3.1z"/><path class="B" d="m492.1 117.3h7.7v12.3h-7.7z"/><path class="B" d="m492.1 154.3h7.7v12.4h-7.7z"/><path class="B" d="m492.1 135.8h7.7v12.3h-7.7v-3h3.1v-6.2h-3.1v-3.1z"/><path class="B" d="m478.2 57.1h7.7v12.3h-7.7v-3h3.1v-6.2h-3.1v-3.1z"/><path class="B" d="m478.2 77.2h7.7v12.3h-7.7v-3.1h3.1v-6.2h-3.1v-3z"/><path class="B" d="m478.2 137.3h7.7v12.4h-7.7z"/><path class="B" d="m478.2 117.3h7.7v12.3h-7.7v-3.1h3.1v-6.1h-3.1v-3.1z"/><path class="B" d="m478.2 177.5h7.7v12.3h-7.7z"/><path class="B" d="m478.2 157.4h7.7v12.4h-7.7v-3.1h3.1v-6.2h-3.1v-3.1z"/><path class="B" d="m478.2 217.6h7.7v12.3h-7.7z"/><path class="B" d="m492.1 214.5h7.7v12.4h-7.7z"/><path class="B" d="m478.2 197.5h7.7v12.4h-7.7v-3.1h3.1v-6.2h-3.1v-3.1z"/><path class="B" d="m507.5 197.5h7.8v12.4h-7.8v-3.1h3.1v-6.2h-3.1v-3.1z"/><path class="B" d="m586.2 18.5h7.8v12.4h-7.8z"/><path class="B" d="m586.2 38.6h7.8v12.3h-7.8z"/><path class="B" d="m586.2 97.2h7.8v12.4h-7.8z"/><path class="B" d="m586.2 57.1h7.8v12.3h-7.8v-3h3.1v-6.2h-3.1v-3.1z"/><path class="B" d="m586.2 117.3h7.8v12.3h-7.8v-3.1h3.1v-6.1h-3.1v-3.1z"/><path class="B" d="m586.2 137.3h7.8v12.4h-7.8v-3.1h3.1v-6.2h-3.1v-3.1z"/><path class="B" d="m586.2 75.6h7.8v12.4h-7.8v-3.1h3.1v-6.2h-3.1v-3.1z"/><path class="B" d="m586.2 197.5h7.8v12.4h-7.8v-3.1h3.1v-6.2h-3.1v-3.1z"/><path class="B" d="m478.2 257.7h7.7v12.4h-7.7z"/><path class="B" d="m492.1 234.6h7.7v12.3h-7.7z"/><path class="B" d="m492.1 273.1h7.7v12.4h-7.7z"/><path class="B" d="m478.2 237.7h7.7v12.3h-7.7v-3.1h3.1v-6.2h-3.1v-3z"/><path class="B" d="m563.1 0h7.7v12.3h-7.7z"/><path class="B" d="m563.1 97.2h7.7v12.4h-7.7z"/><path class="B" d="m563.1 37h7.7v12.4h-7.7v-3.1h3.1v-6.2h-3.1v-3.1z"/><path class="B" d="m563.1 57.1h7.7v12.3h-7.7v-3h3.1v-6.2h-3.1v-3.1z"/><path class="B" d="m563.1 77.2h7.7v12.3h-7.7v-3.1h3.1v-6.2h-3.1v-3z"/><path class="B" d="m563.1 137.3h7.7v12.4h-7.7z"/><path class="B" d="m563.1 117.3h7.7v12.3h-7.7v-3.1h3.1v-6.1h-3.1v-3.1z"/><path class="B" d="m563.1 177.5h7.7v12.3h-7.7z"/><path class="B" d="m563.1 157.4h7.7v12.4h-7.7v-3.1h3.1v-6.2h-3.1v-3.1z"/><path class="B" d="m563.1 217.6h7.7v12.3h-7.7z"/><path class="B" d="m563.1 197.5h7.7v12.4h-7.7v-3.1h3.1v-6.2h-3.1v-3.1z"/><path class="B" d="m563.1 257.7h7.7v12.4h-7.7z"/><path class="B" d="m563.1 237.7h7.7v12.3h-7.7v-3.1h3.1v-6.2h-3.1v-3z"/><path class="B" d="m600.1 0h7.8v12.3h-7.8z"/><path class="B" d="m600.1 97.2h7.8v12.4h-7.8z"/><path class="B" d="m600.1 37h7.8v12.4h-7.8v-3.1h3.1v-6.2h-3.1v-3.1z"/><path class="B" d="m600.1 57.1h7.8v12.3h-7.8v-3h3.1v-6.2h-3.1v-3.1z"/><path class="B" d="m600.1 77.2h7.8v12.3h-7.8v-3.1h3.1v-6.2h-3.1v-3z"/><path class="B" d="m600.1 137.3h7.8v12.4h-7.8z"/><path class="B" d="m600.1 117.3h7.8v12.3h-7.8v-3.1h3.1v-6.1h-3.1v-3.1z"/><path class="B" d="m600.1 177.5h7.8v12.3h-7.8z"/><path class="B" d="m600.1 157.4h7.8v12.4h-7.8v-3.1h3.1v-6.2h-3.1v-3.1z"/><path class="B" d="m600.1 217.6h7.8v12.3h-7.8z"/><path class="B" d="m600.1 197.5h7.8v12.4h-7.8v-3.1h3.1v-6.2h-3.1v-3.1z"/><path class="B" d="m600.1 257.7h7.8v12.4h-7.8z"/><path class="B" d="m600.1 237.7h7.8v12.3h-7.8v-3.1h3.1v-6.2h-3.1v-3z"/><path class="B" d="m452 97.2h7.7v12.4h-7.7v-3.1h3.1v-6.2h-3.1v-3.1z"/><path class="B" d="m452 175.9h7.7v12.4h-7.7v-3.1h3.1v-6.2h-3.1v-3.1z"/><path class="B" d="m452 196h7.7v12.3h-7.7v-3.1h3.1v-6.1h-3.1v-3.1z"/><path class="B" d="m452 236.1h7.7v12.4h-7.7v-3.1h3.1v-6.2h-3.1v-3.1z"/><path class="B" d="m532.2 3.1h7.8v12.3h-7.8z"/><path class="B" d="m532.2 23.1h7.8v12.4h-7.8z"/><path class="B" d="m529.1 44.8h10.9v1.5h-10.9z"/><path class="B" d="m529.1 143.5h10.9v1.6h-10.9z"/><path class="B" d="m529.1 160.5h10.9v1.5h-10.9z"/><path class="B" d="m532.2 58.6h7.8v12.4h-7.8v-3.1h3.1v-6.2h-3.1v-3.1z"/><path class="B" d="m532.2 97.2h7.8v12.4h-7.8v-3.1h3.1v-6.2h-3.1v-3.1z"/><path class="B" d="m532.2 175.9h7.8v12.4h-7.8v-3.1h3.1v-6.2h-3.1v-3.1z"/><path class="B" d="m620.2 137.3h7.7v12.4h-7.7z"/><path class="B" d="m620.2 157.4h7.7v12.4h-7.7z"/><path class="B" d="m617.1 179h10.8v1.6h-10.8z"/><path class="B" d="m620.2 192.9h7.7v12.3h-7.7v-3h3.1v-6.2h-3.1v-3.1z"/><path class="B" d="m620.2 231.5h7.7v12.3h-7.7v-3.1h3.1v-6.1h-3.1v-3.1z"/><path class="B" d="m644.9 3.1h7.7v12.3h-7.7z"/><path class="B" d="m671.1 0h7.7v12.3h-7.7z"/><path class="B" d="m685 0h7.7v12.3h-7.7z"/><path class="B" d="m685 37h7.7v12.4h-7.7z"/><path class="B" d="m700.4 18.5h7.8v12.4h-7.8z"/><path class="B" d="m700.4 38.6h7.8v12.3h-7.8z"/><path class="B" d="m685 77.2h7.7v12.3h-7.7z"/><path class="B" d="m700.4 97.2h7.8v12.4h-7.8z"/><path class="B" d="m685 172.8h7.7v12.4h-7.7z"/><path class="B" d="m671.1 97.2h7.7v12.4h-7.7z"/><path class="B" d="m644.9 23.1h7.7v12.4h-7.7z"/><path class="B" d="m644.9 216h7.7v12.4h-7.7z"/><path class="B" d="m644.9 256.2h7.7v12.3h-7.7z"/><path class="B" d="m641.8 44.8h10.8v1.5h-10.8z"/><path class="B" d="m683.5 63.3h10.8v1.5h-10.8z"/><path class="B" d="m641.8 143.5h10.8v1.6h-10.8z"/><path class="B" d="m641.8 160.5h10.8v1.5h-10.8z"/><path class="B" d="m683.5 259.3h10.8v1.5h-10.8z"/><path class="B" d="m644.9 58.6h7.7v12.4h-7.7v-3.1h3.1v-6.2h-3.1v-3.1z"/><path class="B" d="m671.1 37h7.7v12.4h-7.7v-3.1h3.1v-6.2h-3.1v-3.1z"/><path class="B" d="m700.4 57.1h7.8v12.3h-7.8v-3h3.1v-6.2h-3.1v-3.1z"/><path class="B" d="m700.4 117.3h7.8v12.3h-7.8v-3.1h3.1v-6.1h-3.1v-3.1z"/><path class="B" d="m700.4 137.3h7.8v12.4h-7.8v-3.1h3.1v-6.2h-3.1v-3.1z"/><path class="B" d="m700.4 75.6h7.8v12.4h-7.8v-3.1h3.1v-6.2h-3.1v-3.1z"/><path class="B" d="m685 18.5h7.7v12.4h-7.7v-3.1h3.1v-6.2h-3.1v-3.1z"/><path class="B" d="m685 117.3h7.7v12.3h-7.7z"/><path class="B" d="m685 154.3h7.7v12.4h-7.7z"/><path class="B" d="m685 135.8h7.7v12.3h-7.7v-3h3.1v-6.2h-3.1v-3.1z"/><path class="B" d="m671.1 57.1h7.7v12.3h-7.7v-3h3.1v-6.2h-3.1v-3.1z"/><path class="B" d="m671.1 77.2h7.7v12.3h-7.7v-3.1h3.1v-6.2h-3.1v-3z"/><path class="B" d="m671.1 137.3h7.7v12.4h-7.7z"/><path class="B" d="m671.1 117.3h7.7v12.3h-7.7v-3.1h3.1v-6.1h-3.1v-3.1z"/><path class="B" d="m671.1 177.5h7.7v12.3h-7.7z"/><path class="B" d="m671.1 157.4h7.7v12.4h-7.7v-3.1h3.1v-6.2h-3.1v-3.1z"/><path class="B" d="m671.1 217.6h7.7v12.3h-7.7z"/><path class="B" d="m685 214.5h7.7v12.4h-7.7z"/><path class="B" d="m671.1 197.5h7.7v12.4h-7.7v-3.1h3.1v-6.2h-3.1v-3.1z"/><path class="B" d="m700.4 197.5h7.8v12.4h-7.8v-3.1h3.1v-6.2h-3.1v-3.1z"/><path class="B" d="m779.1 18.5h7.8v12.4h-7.8z"/><path class="B" d="m779.1 38.6h7.8v12.3h-7.8z"/><path class="B" d="m779.1 97.2h7.8v12.4h-7.8z"/><path class="B" d="m779.1 57.1h7.8v12.3h-7.8v-3h3.1v-6.2h-3.1v-3.1z"/><path class="B" d="m779.1 117.3h7.8v12.3h-7.8v-3.1h3.1v-6.1h-3.1v-3.1z"/><path class="B" d="m779.1 137.3h7.8v12.4h-7.8v-3.1h3.1v-6.2h-3.1v-3.1z"/><path class="B" d="m779.1 75.6h7.8v12.4h-7.8v-3.1h3.1v-6.2h-3.1v-3.1z"/><path class="B" d="m779.1 197.5h7.8v12.4h-7.8v-3.1h3.1v-6.2h-3.1v-3.1z"/><path class="B" d="m671.1 257.7h7.7v12.4h-7.7z"/><path class="B" d="m685 234.6h7.7v12.3h-7.7z"/><path class="B" d="m685 273.1h7.7v12.4h-7.7z"/><path class="B" d="m671.1 237.7h7.7v12.3h-7.7v-3.1h3.1v-6.2h-3.1v-3z"/><path class="B" d="m756 0h7.7v12.3h-7.7z"/><path class="B" d="m756 97.2h7.7v12.4h-7.7z"/><path class="B" d="m756 37h7.7v12.4h-7.7v-3.1h3.1v-6.2h-3.1v-3.1z"/><path class="B" d="m756 57.1h7.7v12.3h-7.7v-3h3.1v-6.2h-3.1v-3.1z"/><path class="B" d="m756 77.2h7.7v12.3h-7.7v-3.1h3.1v-6.2h-3.1v-3z"/><path class="B" d="m756 137.3h7.7v12.4h-7.7z"/><path class="B" d="m756 117.3h7.7v12.3h-7.7v-3.1h3.1v-6.1h-3.1v-3.1z"/><path class="B" d="m756 177.5h7.7v12.3h-7.7z"/><path class="B" d="m756 157.4h7.7v12.4h-7.7v-3.1h3.1v-6.2h-3.1v-3.1z"/><path class="B" d="m756 217.6h7.7v12.3h-7.7z"/><path class="B" d="m756 197.5h7.7v12.4h-7.7v-3.1h3.1v-6.2h-3.1v-3.1z"/><path class="B" d="m756 257.7h7.7v12.4h-7.7z"/><path class="B" d="m756 237.7h7.7v12.3h-7.7v-3.1h3.1v-6.2h-3.1v-3z"/><path class="B" d="m793 0h7.8v12.3h-7.8z"/><path class="B" d="m834 278.1h7.7v12.4h-7.7z"/><path class="B" d="m793 37h7.8v12.4h-7.8v-3.1h3.1v-6.2h-3.1v-3.1z"/><path class="B" d="m834 238h7.7v12.3h-7.7v-3h3.1v-6.2h-3.1v-3.1z"/><path class="B" d="m834 258.1h7.7v12.3h-7.7v-3.1h3.1v-6.2h-3.1v-3z"/><path class="B" d="m793 137.3h7.8v12.4h-7.8z"/><path class="B" d="m834 298.2h7.7v12.3h-7.7v-3.1h3.1v-6.1h-3.1v-3.1z"/><path class="B" d="m793 97.2h7.8v12.4h-7.8z"/><path class="B" d="m793 57.1h7.8v12.3h-7.8v-3h3.1v-6.2h-3.1v-3.1z"/><path class="B" d="m793 77.2h7.8v12.3h-7.8v-3.1h3.1v-6.2h-3.1v-3z"/><path class="B" d="m793 117.3h7.8v12.3h-7.8v-3.1h3.1v-6.1h-3.1v-3.1z"/><path class="B" d="m793 177.5h7.8v12.3h-7.8z"/><path class="B" d="m793 157.4h7.8v12.4h-7.8v-3.1h3.1v-6.2h-3.1v-3.1z"/><path class="B" d="m793 217.6h7.8v12.3h-7.8z"/><path class="B" d="m793 197.5h7.8v12.4h-7.8v-3.1h3.1v-6.2h-3.1v-3.1z"/><path class="B" d="m793 257.7h7.8v12.4h-7.8z"/><path class="B" d="m793 237.7h7.8v12.3h-7.8v-3.1h3.1v-6.2h-3.1v-3z"/><path class="B" d="m644.9 97.2h7.7v12.4h-7.7v-3.1h3.1v-6.2h-3.1v-3.1z"/><path class="B" d="m644.9 175.9h7.7v12.4h-7.7v-3.1h3.1v-6.2h-3.1v-3.1z"/><path class="B" d="m644.9 196h7.7v12.3h-7.7v-3.1h3.1v-6.1h-3.1v-3.1z"/><path class="B" d="m644.9 236.1h7.7v12.4h-7.7v-3.1h3.1v-6.2h-3.1v-3.1z"/><path class="B" d="m725.1 3.1h7.8v12.3h-7.8z"/><path class="B" d="m725.1 23.1h7.8v12.4h-7.8z"/><path class="B" d="m722 44.8h10.9v1.5h-10.9z"/><path class="B" d="m722 143.5h10.9v1.6h-10.9z"/><path class="B" d="m722 160.5h10.9v1.5h-10.9z"/><path class="B" d="m725.1 58.6h7.8v12.4h-7.8v-3.1h3.1v-6.2h-3.1v-3.1z"/><path class="B" d="m725.1 97.2h7.8v12.4h-7.8v-3.1h3.1v-6.2h-3.1v-3.1z"/><path class="B" d="m725.1 175.9h7.8v12.4h-7.8v-3.1h3.1v-6.2h-3.1v-3.1z"/><path class="B" d="m813.1 137.3h7.7v12.4h-7.7z"/><path class="B" d="m813.1 157.4h7.7v12.4h-7.7z"/><path class="B" d="m810 179h10.8v1.6h-10.8z"/><path class="B" d="m813.1 192.9h7.7v12.3h-7.7v-3h3.1v-6.2h-3.1v-3.1z"/><path class="B" d="m813.1 231.5h7.7v12.3h-7.7v-3.1h3.1v-6.1h-3.1v-3.1z"/><path class="C" d="m408.4 271.3v38.9h-97.6c-5.2 0.2-10.2-1.7-14-5.2c-3.7-3.5-6-8.4-6.2-13.6c-0.1-5.1 1.7-10.2 5.3-13.9c3.5-3.8 8.4-6.1 13.5-6.2q0.7-0.1 1.4 0z"/><path class="B" d="m150.1 3.1h7.7v12.3h-7.7z"/><path class="B" d="m176.3 0h7.7v12.3h-7.7z"/><path class="B" d="m190.2 0h7.7v12.3h-7.7z"/><path class="B" d="m190.2 37h7.7v12.4h-7.7z"/><path class="B" d="m205.6 18.5h7.8v12.4h-7.8z"/><path class="B" d="m205.6 38.6h7.8v12.3h-7.8z"/><path class="B" d="m190.2 77.2h7.7v12.3h-7.7z"/><path class="B" d="m205.6 97.2h7.8v12.4h-7.8z"/><path class="B" d="m190.2 172.8h7.7v12.4h-7.7z"/><path class="B" d="m176.3 97.2h7.7v12.4h-7.7z"/><path class="B" d="m150.1 23.1h7.7v12.4h-7.7z"/><path class="B" d="m150.1 216h7.7v12.4h-7.7z"/><path class="B" d="m150.1 256.2h7.7v12.3h-7.7z"/><path class="B" d="m150.1 276.2h7.7v12.4h-7.7z"/><path class="B" d="m147 44.8h10.8v1.5h-10.8z"/><path class="B" d="m188.7 63.3h10.8v1.5h-10.8z"/><path class="B" d="m147 143.5h10.8v1.6h-10.8z"/><path class="B" d="m147 160.5h10.8v1.5h-10.8z"/><path class="B" d="m188.7 259.3h10.8v1.5h-10.8z"/><path class="B" d="m176.3 296.3h10.8v1.5h-10.8z"/><path class="B" d="m150.1 58.6h7.7v12.4h-7.7v-3.1h3.1v-6.2h-3.1v-3.1z"/><path class="B" d="m176.3 37h7.7v12.4h-7.7v-3.1h3.1v-6.2h-3.1v-3.1z"/><path class="B" d="m205.6 57.1h7.8v12.3h-7.8v-3h3.1v-6.2h-3.1v-3.1z"/><path class="B" d="m205.6 117.3h7.8v12.3h-7.8v-3.1h3.1v-6.1h-3.1v-3.1z"/><path class="B" d="m205.6 137.3h7.8v12.4h-7.8v-3.1h3.1v-6.2h-3.1v-3.1z"/><path class="B" d="m205.6 75.6h7.8v12.4h-7.8v-3.1h3.1v-6.2h-3.1v-3.1z"/><path class="B" d="m190.2 18.5h7.7v12.4h-7.7v-3.1h3.1v-6.2h-3.1v-3.1z"/><path class="B" d="m190.2 117.3h7.7v12.3h-7.7z"/><path class="B" d="m190.2 154.3h7.7v12.4h-7.7z"/><path class="B" d="m190.2 135.8h7.7v12.3h-7.7v-3h3.1v-6.2h-3.1v-3.1z"/><path class="B" d="m176.3 57.1h7.7v12.3h-7.7v-3h3.1v-6.2h-3.1v-3.1z"/><path class="B" d="m176.3 77.2h7.7v12.3h-7.7v-3.1h3.1v-6.2h-3.1v-3z"/><path class="B" d="m176.3 137.3h7.7v12.4h-7.7z"/><path class="B" d="m176.3 117.3h7.7v12.3h-7.7v-3.1h3.1v-6.1h-3.1v-3.1z"/><path class="B" d="m176.3 177.5h7.7v12.3h-7.7z"/><path class="B" d="m176.3 157.4h7.7v12.4h-7.7v-3.1h3.1v-6.2h-3.1v-3.1z"/><path class="B" d="m176.3 217.6h7.7v12.3h-7.7z"/><path class="B" d="m190.2 214.5h7.7v12.4h-7.7z"/><path class="B" d="m176.3 197.5h7.7v12.4h-7.7v-3.1h3.1v-6.2h-3.1v-3.1z"/><path class="B" d="m205.6 197.5h7.8v12.4h-7.8v-3.1h3.1v-6.2h-3.1v-3.1z"/><path class="B" d="m176.3 257.7h7.7v12.4h-7.7z"/><path class="B" d="m190.2 234.6h7.7v12.3h-7.7z"/><path class="B" d="m176.3 310.2h7.7v12.3h-7.7z"/><path class="B" d="m190.2 273.1h7.7v12.4h-7.7z"/><path class="B" d="m176.3 237.7h7.7v12.3h-7.7v-3.1h3.1v-6.2h-3.1v-3z"/><path class="B" d="m176.3 331.8h7.7v12.3h-7.7v-3.1h3.1v-6.1h-3.1v-3.1z"/><path class="B" d="m190.2 310.2h7.7v12.3h-7.7v-3.1h3.1v-6.1h-3.1v-3.1z"/><path class="B" d="m190.2 330.2h7.7v12.4h-7.7v-3.1h3.1v-6.2h-3.1v-3.1z"/><path class="B" d="m150.1 97.2h7.7v12.4h-7.7v-3.1h3.1v-6.2h-3.1v-3.1z"/><path class="B" d="m150.1 175.9h7.7v12.4h-7.7v-3.1h3.1v-6.2h-3.1v-3.1z"/><path class="B" d="m150.1 196h7.7v12.3h-7.7v-3.1h3.1v-6.1h-3.1v-3.1z"/><path class="B" d="m150.1 236.1h7.7v12.4h-7.7v-3.1h3.1v-6.2h-3.1v-3.1z"/><path class="B" d="m150.1 293.2h7.7v12.4h-7.7v-3.1h3.1v-6.2h-3.1v-3.1z"/><path class="B" d="m150.1 310.2h7.7v12.3h-7.7v-3.1h3.1v-6.1h-3.1v-3.1z"/><path class="B" d="m834.1 0h7.7v12.3h-7.7z"/><path class="B" d="m834.1 20.1h7.7v12.3h-7.7z"/><path class="B" d="m831 41.7h10.8v1.5h-10.8z"/><path class="B" d="m831 140.4h10.8v1.6h-10.8z"/><path class="B" d="m831 157.4h10.8v1.6h-10.8z"/><path class="B" d="m834.1 55.6h7.7v12.3h-7.7v-3.1h3.1v-6.2h-3.1v-3z"/><path class="B" d="m834.1 94.1h7.7v12.4h-7.7v-3.1h3.1v-6.2h-3.1v-3.1z"/><path class="B" d="m834.1 172.8h7.7v12.4h-7.7v-3.1h3.1v-6.2h-3.1v-3.1z"/><path class="B" d="m833.8 199.9h7.7v12.4h-7.7z"/><path class="B" d="m833.8 199.9h7.7v12.4h-7.7z"/><path class="B" d="m834.1 0h7.7v12.3h-7.7z"/><path class="B" d="m834.1 20.1h7.7v12.3h-7.7z"/><path class="B" d="m831 41.7h10.8v1.5h-10.8z"/><path class="B" d="m831 140.4h10.8v1.6h-10.8z"/><path class="B" d="m831 157.4h10.8v1.6h-10.8z"/><path class="B" d="m834.1 55.6h7.7v12.3h-7.7v-3.1h3.1v-6.2h-3.1v-3z"/><path class="B" d="m834.1 94.1h7.7v12.4h-7.7v-3.1h3.1v-6.2h-3.1v-3.1z"/><path class="B" d="m834.1 172.8h7.7v12.4h-7.7v-3.1h3.1v-6.2h-3.1v-3.1z"/><path class="B" d="m232 203h7.7v12.3h-7.7z"/><path class="B" d="m232 203h7.7v12.3h-7.7z"/><path class="B" d="m232 300.2h7.7v12.4h-7.7z"/><path class="B" d="m232 240h7.7v12.4h-7.7v-3.1h3.1v-6.2h-3.1v-3.1z"/><path class="B" d="m232 260.1h7.7v12.3h-7.7v-3h3.1v-6.2h-3.1v-3.1z"/><path class="B" d="m232 280.2h7.7v12.3h-7.7v-3.1h3.1v-6.2h-3.1v-3z"/><path class="B" d="m232 340.3h7.7v12.4h-7.7z"/><path class="B" d="m232 320.3h7.7v12.3h-7.7v-3.1h3.1v-6.1h-3.1v-3.1z"/><path class="B" d="m232 380.5h7.7v12.3h-7.7z"/><path class="B" d="m232 360.4h7.7v12.4h-7.7v-3.1h3.1v-6.2h-3.1v-3.1z"/><path class="B" d="m232 400.5h7.7v12.4h-7.7v-3.1h3.1v-6.2h-3.1v-3.1z"/><path class="B" d="m232 300.2h7.7v12.4h-7.7z"/><path class="B" d="m232 240h7.7v12.4h-7.7v-3.1h3.1v-6.2h-3.1v-3.1z"/><path class="B" d="m232 260.1h7.7v12.3h-7.7v-3h3.1v-6.2h-3.1v-3.1z"/><path class="B" d="m232 280.2h7.7v12.3h-7.7v-3.1h3.1v-6.2h-3.1v-3z"/><path class="B" d="m232 340.3h7.7v12.4h-7.7z"/><path class="B" d="m232 320.3h7.7v12.3h-7.7v-3.1h3.1v-6.1h-3.1v-3.1z"/><path class="B" d="m232 380.5h7.7v12.3h-7.7z"/><path class="B" d="m232 360.4h7.7v12.4h-7.7v-3.1h3.1v-6.2h-3.1v-3.1z"/><path class="B" d="m232 400.5h7.7v12.4h-7.7v-3.1h3.1v-6.2h-3.1v-3.1z"/><path class="B" d="m232.3 3.1h7.7v12.3h-7.7z"/><path class="B" d="m232.3 23.1h7.7v12.4h-7.7z"/><path class="B" d="m229.2 44.8h10.8v1.5h-10.8z"/><path class="B" d="m229.2 143.5h10.8v1.6h-10.8z"/><path class="B" d="m229.2 160.5h10.8v1.5h-10.8z"/><path class="B" d="m232.3 58.6h7.7v12.4h-7.7v-3.1h3.1v-6.2h-3.1v-3.1z"/><path class="B" d="m232.3 97.2h7.7v12.4h-7.7v-3.1h3.1v-6.2h-3.1v-3.1z"/><path class="B" d="m232.3 175.9h7.7v12.4h-7.7v-3.1h3.1v-6.2h-3.1v-3.1z"/><path class="B" d="m232 203h7.7v12.3h-7.7z"/><path class="B" d="m232 203h7.7v12.3h-7.7z"/><path class="B" d="m232 300.2h7.7v12.4h-7.7z"/><path class="B" d="m232 240h7.7v12.4h-7.7v-3.1h3.1v-6.2h-3.1v-3.1z"/><path class="B" d="m232 260.1h7.7v12.3h-7.7v-3h3.1v-6.2h-3.1v-3.1z"/><path class="B" d="m232 280.2h7.7v12.3h-7.7v-3.1h3.1v-6.2h-3.1v-3z"/><path class="B" d="m232 340.3h7.7v12.4h-7.7z"/><path class="B" d="m232 320.3h7.7v12.3h-7.7v-3.1h3.1v-6.1h-3.1v-3.1z"/><path class="B" d="m232 380.5h7.7v12.3h-7.7z"/><path class="B" d="m232 360.4h7.7v12.4h-7.7v-3.1h3.1v-6.2h-3.1v-3.1z"/><path class="B" d="m232 400.5h7.7v12.4h-7.7v-3.1h3.1v-6.2h-3.1v-3.1z"/><path class="B" d="m232 300.2h7.7v12.4h-7.7z"/><path class="B" d="m232 240h7.7v12.4h-7.7v-3.1h3.1v-6.2h-3.1v-3.1z"/><path class="B" d="m232 260.1h7.7v12.3h-7.7v-3h3.1v-6.2h-3.1v-3.1z"/><path class="B" d="m232 280.2h7.7v12.3h-7.7v-3.1h3.1v-6.2h-3.1v-3z"/><path class="B" d="m232 340.3h7.7v12.4h-7.7z"/><path class="B" d="m232 320.3h7.7v12.3h-7.7v-3.1h3.1v-6.1h-3.1v-3.1z"/><path class="B" d="m232 380.5h7.7v12.3h-7.7z"/><path class="B" d="m232 360.4h7.7v12.4h-7.7v-3.1h3.1v-6.2h-3.1v-3.1z"/><path class="B" d="m232 400.5h7.7v12.4h-7.7v-3.1h3.1v-6.2h-3.1v-3.1z"/><path class="B" d="m232.3 3.1h7.7v12.3h-7.7z"/><path class="B" d="m232.3 23.1h7.7v12.4h-7.7z"/><path class="B" d="m229.2 44.8h10.8v1.5h-10.8z"/><path class="B" d="m229.2 143.5h10.8v1.6h-10.8z"/><path class="B" d="m229.2 160.5h10.8v1.5h-10.8z"/><path class="B" d="m232.3 58.6h7.7v12.4h-7.7v-3.1h3.1v-6.2h-3.1v-3.1z"/><path class="B" d="m232.3 97.2h7.7v12.4h-7.7v-3.1h3.1v-6.2h-3.1v-3.1z"/><path class="B" d="m232.3 175.9h7.7v12.4h-7.7v-3.1h3.1v-6.2h-3.1v-3.1z"/><path class="B" d="m410.8 309.9q0 0.3-0.1 0.6q-0.1 0.3-0.3 0.5q-0.3 0.2-0.5 0.3q-0.3 0.1-0.6 0.1h-100.2c-5.5 0-10.7-2.1-14.5-6c-3.9-3.8-6-9.1-6-14.5c0-5.4 2.1-10.7 6-14.5c3.8-3.9 9-6 14.5-6h100.2c0.4 0 0.8 0.1 1.1 0.4c0.2 0.3 0.4 0.7 0.4 1.1c0 0.4-0.2 0.7-0.4 1c-0.3 0.3-0.7 0.5-1.1 0.5h-100.2c-4.7 0-9.1 1.8-12.4 5.1c-3.3 3.3-5.1 7.8-5.1 12.4c0 4.6 1.8 9.1 5.1 12.4c3.3 3.3 7.7 5.1 12.4 5.1h100.2q0.3 0 0.6 0.1q0.2 0.2 0.5 0.4q0.2 0.2 0.3 0.5q0.1 0.2 0.1 0.5z"/><path class="A" d="m408.4 280.3h-104.9q-0.1 0-0.2-0.1q-0.1-0.1-0.1-0.2q0-0.2 0.1-0.3q0.1 0 0.2 0h104.9q0.1 0 0.2 0q0.1 0.1 0.1 0.3q0 0.1-0.1 0.2q-0.1 0.1-0.2 0.1z"/><path class="A" d="m408.4 287.4h-104.9q-0.1 0-0.2 0q-0.1-0.1-0.1-0.2q0-0.2 0.1-0.3q0.1 0 0.2 0h104.9q0.1 0 0.2 0q0.1 0.1 0.1 0.3q0 0.1-0.1 0.2q-0.1 0-0.2 0z"/><path class="A" d="m408.4 294.6h-104.9q-0.1 0-0.2 0q-0.1-0.1-0.1-0.3q0-0.1 0.1-0.2q0.1-0.1 0.2-0.1h104.9q0.1 0 0.2 0.1q0.1 0.1 0.1 0.2q0 0.2-0.1 0.3q-0.1 0-0.2 0z"/><path class="A" d="m408.4 301.8h-104.9q-0.1 0-0.2-0.1q-0.1 0-0.1-0.2q0-0.1 0.1-0.2q0.1-0.1 0.2-0.1h104.9q0.1 0 0.2 0.1q0.1 0.1 0.1 0.2q0 0.2-0.1 0.2q-0.1 0.1-0.2 0.1z"/><path class="C" d="m390 230.2v39h-97.6c-5.2 0.2-10.2-1.7-14-5.2c-3.7-3.6-6-8.5-6.1-13.6c-0.2-5.2 1.7-10.2 5.2-14c3.5-3.8 8.4-6 13.6-6.2q0.6 0 1.3 0z"/><path class="D" d="m392.4 268.9q0 0.3-0.1 0.6q-0.1 0.2-0.3 0.4q-0.2 0.3-0.5 0.4q-0.3 0.1-0.6 0.1h-100.2c-5.5 0-10.7-2.2-14.5-6c-3.9-3.9-6.1-9.1-6.1-14.5c0-5.5 2.2-10.7 6.1-14.6c3.8-3.8 9-6 14.5-6h100.2c0.4 0 0.8 0.2 1.1 0.5c0.2 0.2 0.4 0.6 0.4 1c0 0.4-0.2 0.8-0.4 1.1c-0.3 0.3-0.7 0.4-1.1 0.4h-100.2c-4.7 0-9.1 1.9-12.4 5.2c-3.3 3.2-5.2 7.7-5.2 12.4c0 4.6 1.9 9.1 5.2 12.4c3.3 3.2 7.7 5.1 12.4 5.1h100.2q0.3 0 0.6 0.1q0.3 0.1 0.5 0.3q0.2 0.2 0.3 0.5q0.1 0.3 0.1 0.6z"/><path class="A" d="m390 239.2h-104.9q-0.1 0-0.2-0.1q-0.1-0.1-0.1-0.2q0-0.1 0.1-0.2q0.1-0.1 0.2-0.1h104.9q0.1 0 0.2 0.1q0.1 0.1 0.1 0.2q0 0.1-0.1 0.2q-0.1 0.1-0.2 0.1z"/><path class="A" d="m390 246.4h-104.9q-0.1 0-0.2-0.1q-0.1-0.1-0.1-0.2q0-0.1 0.1-0.2q0.1-0.1 0.2-0.1h104.9q0.1 0 0.2 0.1q0.1 0.1 0.1 0.2q0 0.1-0.1 0.2q-0.1 0.1-0.2 0.1z"/><path class="A" d="m390 253.6h-104.9q-0.1 0-0.2-0.1q-0.1-0.1-0.1-0.2q0-0.1 0.1-0.2q0.1-0.1 0.2-0.1h104.9q0.1 0 0.2 0.1q0.1 0.1 0.1 0.2q0 0.1-0.1 0.2q-0.1 0.1-0.2 0.1z"/><path class="A" d="m390 260.8h-104.9q-0.1 0-0.2-0.1q-0.1-0.1-0.1-0.2q0-0.1 0.1-0.2q0.1-0.1 0.2-0.1h104.9q0.1 0 0.2 0.1q0.1 0.1 0.1 0.2q0 0.1-0.1 0.2q-0.1 0.1-0.2 0.1z"/><path class="A" d="m363.4 450.1v-34q0-1.1 0.5-2.1q0.4-1.1 1.2-1.9q0.8-0.8 1.8-1.2q1.1-0.4 2.2-0.4h128.8q1.1 0 2.1 0.4q1.1 0.4 1.9 1.2q0.8 0.8 1.2 1.9q0.4 1 0.4 2.1v34z"/><path class="A" d="m363.4 462.8h140.1v43.9h-140.1z"/><path class="A" d="m503.5 519.4v34q0 1.1-0.4 2.2q-0.4 1-1.2 1.8q-0.8 0.8-1.9 1.2q-1 0.5-2.1 0.5h-128.8q-1.1 0-2.2-0.5q-1-0.4-1.8-1.2q-0.8-0.8-1.2-1.8q-0.5-1.1-0.5-2.2v-34z"/><circle class="E" cx="432.8" cy="431.7" r="4.2"/><circle class="E" cx="432.8" cy="488.3" r="4.2"/><circle class="E" cx="433" cy="543.7" r="4.2"/><path class="C" d="m487.7 371.7v39h-97.6c-5.2 0.2-10.2-1.7-14-5.2c-3.8-3.6-6-8.4-6.2-13.6c-0.2-5.2 1.7-10.2 5.2-14c3.6-3.7 8.4-6 13.6-6.2q0.7 0 1.4 0z"/><path class="D" d="m490 410.4q0 0.3-0.1 0.6q-0.1 0.3-0.3 0.5q-0.2 0.2-0.5 0.3q-0.3 0.1-0.5 0.1h-100.3c-5.4 0-10.6-2.2-14.5-6c-3.8-3.9-6-9.1-6-14.5c0-5.5 2.1-10.7 6-14.5c3.8-3.9 9.1-6 14.5-6.1h100.3c0.3 0 0.7 0.2 1 0.5c0.3 0.3 0.5 0.7 0.5 1c0 0.4-0.2 0.8-0.5 1.1c-0.3 0.3-0.7 0.4-1 0.4h-100.3c-4.6 0.1-9.1 1.9-12.4 5.2c-3.2 3.3-5.1 7.7-5.1 12.4c0 4.6 1.9 9.1 5.1 12.4c3.3 3.2 7.8 5.1 12.4 5.1h100.3q0.2 0 0.5 0.1q0.3 0.1 0.5 0.3q0.2 0.3 0.3 0.5q0.1 0.3 0.1 0.6z"/><path class="A" d="m487.7 380.7h-104.9q-0.1 0-0.2 0q-0.1-0.1-0.1-0.3q0-0.1 0.1-0.2q0-0.1 0.2-0.1h104.9q0.1 0 0.2 0.1q0 0.1 0 0.2q0 0.2 0 0.2q-0.1 0.1-0.2 0.1z"/><path class="A" d="m487.7 387.9h-104.9q-0.1 0-0.2-0.1q-0.1 0-0.1-0.2q0-0.1 0.1-0.2q0-0.1 0.2-0.1h104.9q0.1 0 0.2 0.1q0 0.1 0 0.2q0 0.2 0 0.2q-0.1 0.1-0.2 0.1z"/><path class="A" d="m487.7 395.1h-104.9q-0.1 0-0.2-0.1q-0.1-0.1-0.1-0.2q0-0.1 0.1-0.2q0-0.1 0.2-0.1h104.9q0.1 0 0.2 0.1q0 0.1 0 0.2q0 0.1 0 0.2q-0.1 0.1-0.2 0.1z"/><path class="A" d="m487.7 402.3h-104.9q-0.1 0-0.2-0.1q-0.1-0.1-0.1-0.2q0-0.1 0.1-0.2q0-0.1 0.2-0.1h104.9q0.1 0 0.2 0.1q0 0.1 0 0.2q0 0.1 0 0.2q-0.1 0.1-0.2 0.1z"/><path class="D" d="m373.9 217.4q0.5 0.1 0.8 0.4q0.4 0.3 0.6 0.7q0.2 0.4 0.2 0.9v11.2q0 0.5-0.2 0.9q-0.2 0.4-0.6 0.7q-0.3 0.3-0.8 0.5q-0.4 0.1-0.9 0.1h-44.4q-0.2 0-0.3 0q-0.2 0-0.4-0.1q-0.1 0-0.3-0.1q-0.1 0-0.3-0.1l-11.2-5.6q-0.5-0.2-0.9-0.8q-0.3-0.5-0.3-1.1q0-0.6 0.3-1.1q0.4-0.5 0.9-0.8l11.2-5.6q0.2-0.1 0.3-0.1q0.2-0.1 0.3-0.1q0.2 0 0.4 0q0.1-0.1 0.3-0.1h44.4q0.5 0 0.9 0.2z"/><path class="B" d="m375.5 219.4v11.2q0 0.5-0.2 0.9q-0.2 0.4-0.6 0.7q-0.3 0.3-0.8 0.5q-0.4 0.1-0.9 0.1h-8.8v-15.6h8.8q0.5 0 0.9 0.2q0.5 0.1 0.8 0.4q0.4 0.3 0.6 0.7q0.2 0.4 0.2 0.9z"/><path class="F" d="m104.6 436.5c-7.5-14.7-3.4-33.1 6-46.7c9.4-13.5 23.3-23.2 36.9-32.5l18.8-13q-4.5 22.6-9 45.2c-3 15.3-6.8 31.9-18.7 41.9c-2.4 1.9-4.9 3.5-7.7 4.8c-2.7 1.2-5.6 2.2-8.6 2.7c-3 0.5-6 0.6-9 0.4c-3-0.3-6-0.9-8.9-1.9"/><path class="B" d="m190.2 172.8h7.7v12.4h-7.7z"/><path class="B" d="m188.7 259.3h10.8v1.5h-10.8z"/><path class="B" d="m176.3 296.3h10.8v1.5h-10.8z"/><path class="B" d="m190.2 117.3h7.7v12.3h-7.7z"/><path class="B" d="m190.2 154.3h7.7v12.4h-7.7z"/><path class="B" d="m190.2 135.8h7.7v12.3h-7.7v-3h3.1v-6.2h-3.1v-3.1z"/><path class="B" d="m176.3 137.3h7.7v12.4h-7.7z"/><path class="B" d="m176.3 117.3h7.7v12.3h-7.7v-3.1h3.1v-6.1h-3.1v-3.1z"/><path class="B" d="m176.3 177.5h7.7v12.3h-7.7z"/><path class="B" d="m176.3 157.4h7.7v12.4h-7.7v-3.1h3.1v-6.2h-3.1v-3.1z"/><path class="B" d="m176.3 217.6h7.7v12.3h-7.7z"/><path class="B" d="m190.2 214.5h7.7v12.4h-7.7z"/><path class="B" d="m176.3 197.5h7.7v12.4h-7.7v-3.1h3.1v-6.2h-3.1v-3.1z"/><path class="B" d="m176.3 257.7h7.7v12.4h-7.7z"/><path class="B" d="m190.2 234.6h7.7v12.3h-7.7z"/><path class="B" d="m176.3 310.2h7.7v12.3h-7.7z"/><path class="B" d="m190.2 273.1h7.7v12.4h-7.7z"/><path class="B" d="m176.3 237.7h7.7v12.3h-7.7v-3.1h3.1v-6.2h-3.1v-3z"/><path class="B" d="m190.2 77.2h7.7v12.3h-7.7z"/><path class="B" d="m205.6 97.2h7.8v12.4h-7.8z"/><path class="B" d="m190.2 172.8h7.7v12.4h-7.7z"/><path class="B" d="m176.3 97.2h7.7v12.4h-7.7z"/><path class="B" d="m188.7 63.3h10.8v1.5h-10.8z"/><path class="B" d="m188.7 259.3h10.8v1.5h-10.8z"/><path class="B" d="m205.6 57.1h7.8v12.3h-7.8v-3h3.1v-6.2h-3.1v-3.1z"/><path class="B" d="m205.6 117.3h7.8v12.3h-7.8v-3.1h3.1v-6.1h-3.1v-3.1z"/><path class="B" d="m205.6 137.3h7.8v12.4h-7.8v-3.1h3.1v-6.2h-3.1v-3.1z"/><path class="B" d="m205.6 75.6h7.8v12.4h-7.8v-3.1h3.1v-6.2h-3.1v-3.1z"/><path class="B" d="m190.2 117.3h7.7v12.3h-7.7z"/><path class="B" d="m190.2 154.3h7.7v12.4h-7.7z"/><path class="B" d="m190.2 135.8h7.7v12.3h-7.7v-3h3.1v-6.2h-3.1v-3.1z"/><path class="B" d="m176.3 57.1h7.7v12.3h-7.7v-3h3.1v-6.2h-3.1v-3.1z"/><path class="B" d="m176.3 77.2h7.7v12.3h-7.7v-3.1h3.1v-6.2h-3.1v-3z"/><path class="B" d="m176.3 137.3h7.7v12.4h-7.7z"/><path class="B" d="m176.3 117.3h7.7v12.3h-7.7v-3.1h3.1v-6.1h-3.1v-3.1z"/><path class="B" d="m176.3 177.5h7.7v12.3h-7.7z"/><path class="B" d="m176.3 157.4h7.7v12.4h-7.7v-3.1h3.1v-6.2h-3.1v-3.1z"/><path class="B" d="m176.3 217.6h7.7v12.3h-7.7z"/><path class="B" d="m190.2 214.5h7.7v12.4h-7.7z"/><path class="B" d="m176.3 197.5h7.7v12.4h-7.7v-3.1h3.1v-6.2h-3.1v-3.1z"/><path class="B" d="m205.6 197.5h7.8v12.4h-7.8v-3.1h3.1v-6.2h-3.1v-3.1z"/><path class="B" d="m176.3 257.7h7.7v12.4h-7.7z"/><path class="B" d="m190.2 234.6h7.7v12.3h-7.7z"/><path class="B" d="m190.2 273.1h7.7v12.4h-7.7z"/><path class="B" d="m176.3 237.7h7.7v12.3h-7.7v-3.1h3.1v-6.2h-3.1v-3z"/><path class="B" d="m190.2 172.8h7.7v12.4h-7.7z"/><path class="B" d="m188.7 259.3h10.8v1.5h-10.8z"/><path class="B" d="m190.2 117.3h7.7v12.3h-7.7z"/><path class="B" d="m190.2 154.3h7.7v12.4h-7.7z"/><path class="B" d="m190.2 135.8h7.7v12.3h-7.7v-3h3.1v-6.2h-3.1v-3.1z"/><path class="B" d="m176.3 137.3h7.7v12.4h-7.7z"/><path class="B" d="m176.3 117.3h7.7v12.3h-7.7v-3.1h3.1v-6.1h-3.1v-3.1z"/><path class="B" d="m176.3 177.5h7.7v12.3h-7.7z"/><path class="B" d="m176.3 157.4h7.7v12.4h-7.7v-3.1h3.1v-6.2h-3.1v-3.1z"/><path class="B" d="m176.3 217.6h7.7v12.3h-7.7z"/><path class="B" d="m190.2 214.5h7.7v12.4h-7.7z"/><path class="B" d="m176.3 197.5h7.7v12.4h-7.7v-3.1h3.1v-6.2h-3.1v-3.1z"/><path class="B" d="m176.3 257.7h7.7v12.4h-7.7z"/><path class="B" d="m190.2 234.6h7.7v12.3h-7.7z"/><path class="B" d="m190.2 273.1h7.7v12.4h-7.7z"/><path class="B" d="m176.3 237.7h7.7v12.3h-7.7v-3.1h3.1v-6.2h-3.1v-3z"/><path class="B" d="m176.3 331.8h7.7v12.3h-7.7v-3.1h3.1v-6.1h-3.1v-3.1z"/><path class="B" d="m190.2 310.2h7.7v12.3h-7.7v-3.1h3.1v-6.1h-3.1v-3.1z"/><path class="B" d="m190.2 330.2h7.7v12.4h-7.7v-3.1h3.1v-6.2h-3.1v-3.1z"/><path class="F" d="m104.6 436.5c-7.5-14.7-3.4-33.1 6-46.7c9.4-13.5 23.3-23.2 36.9-32.5l18.8-13q-4.5 22.6-9 45.2c-3 15.3-6.8 31.9-18.7 41.9c-2.4 1.9-4.9 3.5-7.7 4.8c-2.7 1.2-5.6 2.2-8.6 2.7c-3 0.5-6 0.6-9 0.4c-3-0.3-6-0.9-8.9-1.9"/><path class="C" d="m108.1 492.2c-2-13.9-3.9-28-2.6-42.1c1.2-12.5 5-24.7 12.8-34.7q1.5-2 3.2-3.8q1.7-1.9 3.6-3.5q1.9-1.7 3.9-3.2q2-1.6 4.1-2.9c1.5-0.9 2.8 1.4 1.4 2.3q-3.7 2.4-6.9 5.2q-3.3 2.9-6.1 6.2q-2.7 3.3-4.9 7.1q-2.2 3.7-3.8 7.7c-4.8 12.1-5.5 25.2-4.7 37.9c0.5 7.8 1.5 15.4 2.6 23.1q0 0.3 0 0.5q0 0.3-0.2 0.5q-0.1 0.2-0.3 0.4q-0.2 0.2-0.5 0.3q-0.2 0-0.5 0q-0.3 0-0.5-0.2q-0.2-0.1-0.4-0.3q-0.2-0.2-0.2-0.5z"/><path class="F" d="m127 467.1c2.1-11.9 12.7-20.9 24.3-24.7c11.5-3.7 24-3.1 36.1-2.6l16.9 0.8l-25.5 22.5c-8.6 7.6-18.2 15.6-29.7 16.2q-3.3 0.1-6.6-0.6q-3.3-0.8-6.2-2.3q-3-1.5-5.5-3.8q-2.5-2.2-4.3-5"/><path class="C" d="m102.7 500.2c9.2-16.3 19.8-34.3 38.9-40.1q2-0.6 4-1q2-0.4 4.1-0.7q2.1-0.2 4.1-0.2q2.1 0 4.2 0.2c1.7 0.1 1.3 2.8-0.5 2.7q-3.4-0.3-6.8 0q-3.5 0.3-6.8 1.2q-3.4 0.8-6.5 2.3q-3.1 1.4-6 3.4c-7.4 5-13.1 12-18 19.4c-2.9 4.5-5.6 9.2-8.3 13.9c-0.8 1.5-3.3 0.4-2.4-1.1z"/><path class="C" d="m87.9 517.3q0.3-2.6 1.2-5.2q1-2.5 2.5-4.7q1.6-2.2 3.8-3.8q2.1-1.7 4.6-2.7v-9.5h15.8v9.7q2.3 1.1 4.4 2.8q2 1.7 3.5 3.8q1.5 2.1 2.4 4.6q0.9 2.4 1.1 5.1l3.7 43.1h-46.7z"/><path class="F" d="m625.1 311.8q0.2 0.3 0.1 0.7q0 0.3-0.3 0.6q-0.3 0.2-0.7 0.2h-57.6q-0.4 0-0.6-0.2q-0.3-0.2-0.4-0.6q-0.1-0.3 0.1-0.6q0.1-0.3 0.4-0.5l4.2-2.1l3.5-23.4h42.9l3.2 23.5l4.7 2q0.4 0.1 0.5 0.4z"/><path class="A" d="m700.9 289h-210.7q-0.9 0-1.6-0.3q-0.8-0.3-1.4-0.9q-0.6-0.6-0.9-1.4q-0.3-0.8-0.3-1.6v-29.7h219v29.7q0 0.8-0.3 1.6q-0.3 0.8-0.9 1.4q-0.6 0.6-1.4 0.9q-0.7 0.3-1.5 0.3z"/><path class="D" d="m705.2 269.2h-219.4v-127.2q0-1 0.4-1.9q0.4-0.9 1.1-1.6q0.7-0.7 1.6-1.1q0.9-0.4 1.9-0.4h209.4q1 0 1.9 0.4q1 0.4 1.7 1.1q0.7 0.7 1.1 1.6q0.3 0.9 0.3 1.9z"/><path class="E" d="m692.1 259.9h-193.2q-0.8 0-1.5-0.3q-0.7-0.3-1.2-0.8q-0.6-0.6-0.9-1.3q-0.3-0.7-0.3-1.5v-105.9q0-0.8 0.3-1.5q0.3-0.7 0.9-1.2q0.5-0.6 1.2-0.9q0.7-0.3 1.5-0.3h193.2q0.8 0 1.5 0.3q0.7 0.3 1.3 0.9q0.5 0.5 0.8 1.2q0.3 0.7 0.3 1.5v105.9q0 0.8-0.3 1.5q-0.3 0.7-0.8 1.3q-0.6 0.5-1.3 0.8q-0.7 0.3-1.5 0.3z"/><path class="G" d="m641.2 297.3c1.3-1.1 2.8-2 4.4-2.5c1.6-0.5 3.3-0.7 5-0.5c1.7 0.2 3.3 0.8 4.7 1.7c1.5 0.9 2.7 2.1 3.6 3.6l26.1-4.7l6.7 15.2l-37 6.1c-2.5 1.3-5.4 1.8-8.2 1.1c-2.8-0.6-5.2-2.2-6.9-4.6c-1.6-2.3-2.4-5.1-2.1-8c0.3-2.8 1.6-5.5 3.7-7.4z"/><path class="B" d="m670.9 291.1l21.3-5.1l3.5-0.8l34.3-8.3c0 0 10.9-24.8 29.7-37.3q3.7 3.2 6.7 7q3.1 3.8 5.4 8.1q2.4 4.3 3.9 9q1.5 4.6 2.2 9.5l1.8 13.3c-13.1 14.8-28.1 29.1-28.1 29.1l-55.5 0.7l-3.4 0.1l-27.3 0.3z"/><path class="H" d="m812.5 399.9c2.4 1 4.5 2.4 6.4 4.3c1.8 1.8 3.2 4 4.2 6.4c1 2.4 1.5 4.9 1.6 7.5v3.2c-0.1 2.6-0.6 5.1-1.6 7.5c-0.9 2.4-2.4 4.6-4.2 6.4c-1.9 1.9-4 3.3-6.4 4.3c-2.4 1-5 1.5-7.6 1.5h-94.6c-2.6 0-5.2-0.5-7.6-1.5c-2.4-1-4.5-2.4-6.4-4.3c-1.8-1.8-3.3-4-4.2-6.4c-1-2.4-1.5-4.9-1.5-7.5v-3.2q-0.1-1.7 0.2-3.4q0.3-1.7 0.9-3.3q0.6-1.6 1.5-3.1q0.8-1.5 1.9-2.8q0.4-0.5 0.8-0.9q0.4-0.4 0.8-0.8q0.4-0.4 0.9-0.8q0.4-0.3 0.9-0.7c0 0 55.6-1.7 55.6-3.9h50.8c2.6 0 5.2 0.5 7.6 1.5z"/><path class="H" d="m747.4 440.2h20.5v118.5h-20.5z"/><path class="H" d="m758.5 538.2c38.3 0 69.4 17.6 69.4 19.8c0 2.2-31.1 0.9-69.4 0.9c-38.4 0-69.5 1.3-69.5-0.9c0-2.2 31.1-19.8 69.5-19.8z"/><path class="G" d="m675.2 544.5h-15.3l-7.3-59h22.6v59z"/><path class="I" d="m679.1 559.3h-49.3v-0.7c0-2.5 0.5-5 1.5-7.3c0.9-2.3 2.4-4.4 4.1-6.2c1.8-1.8 3.9-3.2 6.3-4.2c2.3-0.9 4.8-1.4 7.3-1.4h30.1z"/><path class="G" d="m630 544.5h-15.2l-7.3-59h22.5v59z"/><path class="I" d="m633.9 559.3h-49.2v-0.7c0-2.5 0.5-5 1.4-7.3c1-2.3 2.4-4.4 4.2-6.2c1.8-1.8 3.9-3.2 6.2-4.2c2.3-0.9 4.8-1.4 7.3-1.4h30.1z"/><circle class="G" cx="766.9" cy="178.6" r="26.6"/><path class="I" d="m809.9 360.6c0 0 8.9 47.2-25 53.2c-33.9 6-82.9 10.2-82.9 10.2l-22 102.6l-29.5-2.7c0 0 3.9-123.4 13.6-133.1c9.6-9.7 70.7-38.6 70.7-38.6z"/><path class="I" d="m758.9 377.9l-58.6 32l-51.5 11.7l-12.6 92.3l-32.2 2.4c0 0 7.4-81.2 13.6-118.5c4.1-24.8 111.2-42 111.2-42l14.8-14.9z"/><path class="I" d="m793.6 165.4q0.4 1.4 0.7 2.8q0.3 1.4 0.4 2.8q0.1 1.4 0 2.9q-0.1 1.4-0.2 2.8q-0.2 1.4-0.5 2.8q-0.2 1.4-0.5 2.8q-0.4 1.4-0.8 2.8c-0.7-1.4-2.1 0.5-2.1 0.5c0 0-2.6-10-3.9-12.6q-0.3-0.8-0.7-1.6q-0.4-0.7-0.9-1.4q-0.5-0.7-1.1-1.4q-0.5-0.6-1.2-1.2c-2.6-2.1-6.2-2.4-9.6-2.5l-14.1-0.5c-2.9-0.1-6-0.2-8.6 1.3h-0.1q-1.6 1-3.1 2.2q-1.4 1.3-2.5 2.8q-1.1 1.6-1.9 3.3q-0.8 1.7-1.2 3.6q-0.1 0.4-0.2 0.9q-0.2 0.5-0.3 1q-0.2 0.5-0.3 1q-0.2 0.4-0.4 0.9l-1.5-1.5q-0.4-1.6-0.7-3.3q-0.2-1.7-0.3-3.4q-0.1-1.7 0-3.4q0.1-1.7 0.3-3.4c0.6-4.7 4.3-15.8 8-18.8c4.4-3.4 10.3-4 15.9-4l-3.1 2.5l6.1-2.4q1.4 0.1 2.8 0.2l-4.9 3.8l9-3.5q1.2 0.1 2.3 0.3q1.2 0.2 2.3 0.4q1.2 0.3 2.3 0.6q1.1 0.3 2.2 0.6c5.3 1.9 8.6 11.7 11.2 16.7q0.7 1.3 1.2 2.6z"/><path class="G" d="m893.3 192.7c2.3 1.7 3.8 4.2 4.4 7c0.5 2.8 0 5.8-1.5 8.2c-1.4 2.5-3.7 4.3-6.5 5.2l-29.8 22.7l-6.4-15.4l21.3-15.7c-0.4-1.7-0.4-3.4-0.1-5.1c0.4-1.6 1-3.2 2-4.6c1-1.3 2.3-2.5 3.8-3.3c1.5-0.8 3.2-1.3 4.9-1.4c2.8-0.2 5.6 0.6 7.9 2.4z"/><path class="B" d="m881.9 222.5l-53.5 59.4c0 0-25.6-8.2-45.4-17l-8.9-27.4q-0.8-2.3-1.4-4.8q-0.5-2.4-0.8-4.9q-0.4-2.5-0.5-4.9q-0.1-2.5 0.1-5c27.4-7.3 59.3 19.8 59.3 19.8l40.1-31.4z"/><path class="B" d="m757 365c-9.6-3.3-19.5-6.7-30.1-8h-0.5l0.1-0.5c11.1-38.7 8.3-63.5 2.9-100.7c-0.6-4-0.5-8 0.2-12c0.7-4 2.1-7.8 4-11.3c2-3.5 4.4-6.8 7.4-9.5c2.9-2.7 6.3-5 10-6.7l30.5-1.9l22.2 6.5c1.5 0.4 3 1.2 4.4 2.1c1.3 1 2.5 2.1 3.5 3.4c1 1.4 1.7 2.9 2.2 4.4c0.5 1.6 0.8 3.2 0.7 4.9c-0.2 12.2 0.3 25.9 0.8 40.4c1.2 32.4 2.5 66-4.6 87.8v0.1h-0.1q-2.4 2-5.2 3.5q-2.7 1.6-5.7 2.6q-2.9 1-6 1.6q-3.1 0.5-6.2 0.5c-9.9 0-20.1-3.6-30.5-7.2z"/><path class="A" d="m977.9 561.8h-976.5c-0.4 0-0.7-0.1-1-0.4c-0.3-0.2-0.4-0.6-0.4-1c0-0.4 0.1-0.7 0.4-1c0.3-0.2 0.6-0.4 1-0.4h976.5c0.4 0 0.7 0.2 1 0.4c0.3 0.3 0.4 0.6 0.4 1c0 0.4-0.1 0.8-0.4 1c-0.3 0.3-0.6 0.4-1 0.4z"/><path class="A" d="m542.5 167.3h-37.4c-0.6 0-1.1-0.3-1.5-0.6c-0.4-0.4-0.6-1-0.6-1.5c0-0.6 0.2-1.1 0.6-1.5c0.4-0.4 0.9-0.6 1.5-0.6h37.4c0.5 0 1.1 0.2 1.5 0.6c0.3 0.4 0.6 0.9 0.6 1.5c0 0.5-0.3 1.1-0.6 1.5c-0.4 0.3-1 0.6-1.5 0.6z"/><path class="A" d="m588.9 167.3h-37.4c-0.5 0-1.1-0.3-1.5-0.6c-0.3-0.4-0.6-1-0.6-1.5c0-0.6 0.3-1.1 0.6-1.5c0.4-0.4 1-0.6 1.5-0.6h37.4c0.6 0 1.1 0.2 1.5 0.6c0.4 0.4 0.6 0.9 0.6 1.5c0 0.5-0.2 1.1-0.6 1.5c-0.4 0.3-0.9 0.6-1.5 0.6z"/><path class="A" d="m588.9 175.2h-65c-0.6 0-1.1-0.2-1.5-0.6c-0.4-0.4-0.6-0.9-0.6-1.5c0-0.5 0.2-1.1 0.6-1.5c0.4-0.3 0.9-0.6 1.5-0.6h65c0.6 0 1.1 0.3 1.5 0.6c0.4 0.4 0.6 1 0.6 1.5c0 0.6-0.2 1.1-0.6 1.5c-0.4 0.4-0.9 0.6-1.5 0.6z"/><path class="A" d="m542.5 159.2h-37.4c-0.6 0-1.1-0.2-1.5-0.6c-0.4-0.4-0.6-0.9-0.6-1.5c0-0.6 0.2-1.1 0.6-1.5c0.4-0.4 0.9-0.6 1.5-0.6h37.4c0.5 0 1.1 0.2 1.5 0.6c0.3 0.4 0.6 0.9 0.6 1.5c0 0.6-0.3 1.1-0.6 1.5c-0.4 0.4-1 0.6-1.5 0.6z"/><path class="A" d="m563 159.3h-10.6c-0.5 0-1.1-0.2-1.5-0.6c-0.4-0.4-0.6-0.9-0.6-1.5c0-0.5 0.2-1.1 0.6-1.5c0.4-0.4 1-0.6 1.5-0.6h10.6c0.6 0 1.1 0.2 1.5 0.6c0.4 0.4 0.6 1 0.6 1.5c0 0.6-0.2 1.1-0.6 1.5c-0.4 0.4-0.9 0.6-1.5 0.6z"/><path class="A" d="m515.7 175.2h-10.6c-0.6 0-1.1-0.2-1.5-0.6c-0.4-0.4-0.6-0.9-0.6-1.5c0-0.5 0.2-1.1 0.6-1.5c0.4-0.3 0.9-0.6 1.5-0.6h10.6c0.6 0 1.1 0.2 1.5 0.6c0.4 0.4 0.6 1 0.6 1.5c0 0.6-0.2 1.1-0.6 1.5c-0.4 0.4-0.9 0.6-1.5 0.6z"/><path class="A" d="m636.5 244.8h-37.4c-0.6 0-1.1-0.2-1.5-0.6c-0.4-0.4-0.6-0.9-0.6-1.5c0-0.6 0.2-1.1 0.6-1.5c0.4-0.4 0.9-0.6 1.5-0.6h37.4c0.5 0 1.1 0.2 1.5 0.6c0.3 0.4 0.6 0.9 0.6 1.5c0 0.6-0.3 1.1-0.6 1.5c-0.4 0.4-1 0.6-1.5 0.6z"/><path class="A" d="m682.9 244.8h-37.4c-0.5 0-1.1-0.2-1.5-0.6c-0.3-0.4-0.6-0.9-0.6-1.5c0-0.6 0.3-1.1 0.6-1.5c0.4-0.4 1-0.6 1.5-0.6h37.4c0.6 0 1.1 0.2 1.5 0.6c0.4 0.4 0.6 0.9 0.6 1.5c0 0.6-0.2 1.1-0.6 1.5c-0.4 0.4-0.9 0.6-1.5 0.6z"/><path class="A" d="m682.9 252.8h-65c-0.6 0-1.1-0.3-1.5-0.7c-0.4-0.3-0.6-0.9-0.6-1.4c0-0.6 0.2-1.1 0.6-1.5c0.4-0.4 0.9-0.6 1.5-0.6h65c0.6 0 1.1 0.2 1.5 0.6c0.4 0.4 0.6 0.9 0.6 1.5c0 0.5-0.2 1.1-0.6 1.5c-0.4 0.3-0.9 0.6-1.5 0.6z"/><path class="A" d="m636.5 236.7h-37.4c-0.6 0-1.1-0.2-1.5-0.6c-0.4-0.4-0.6-0.9-0.6-1.5c0-0.5 0.2-1.1 0.6-1.5c0.4-0.3 0.9-0.6 1.5-0.6h37.4c0.5 0 1.1 0.3 1.5 0.6c0.3 0.4 0.6 1 0.6 1.5c0 0.6-0.3 1.1-0.6 1.5c-0.4 0.4-1 0.6-1.5 0.6z"/><path class="A" d="m657 236.8h-10.6c-0.5 0-1.1-0.2-1.5-0.6c-0.4-0.4-0.6-0.9-0.6-1.5c0-0.5 0.2-1 0.6-1.4c0.4-0.4 1-0.7 1.5-0.7h10.6c0.6 0 1.1 0.3 1.5 0.7c0.4 0.4 0.6 0.9 0.6 1.4c0 0.6-0.2 1.1-0.6 1.5c-0.4 0.4-0.9 0.6-1.5 0.6z"/><path class="A" d="m609.7 252.8h-10.6c-0.6 0-1.1-0.3-1.5-0.7c-0.4-0.3-0.6-0.9-0.6-1.4c0-0.6 0.2-1.1 0.6-1.5c0.4-0.4 0.9-0.6 1.5-0.6h10.6c0.6 0 1.1 0.2 1.5 0.6c0.4 0.4 0.6 0.9 0.6 1.5c0 0.5-0.2 1.1-0.6 1.5c-0.4 0.3-0.9 0.6-1.5 0.6z"/><path class="B" d="m556.7 219.3q-0.3 0-0.6-0.1q-0.3-0.1-0.5-0.2q-0.3-0.1-0.6-0.2q-0.2-0.2-0.4-0.4l-14.1-13.9q-0.4-0.4-0.6-0.9q-0.2-0.6-0.2-1.2q0-0.6 0.2-1.1q0.2-0.5 0.6-0.9l14-13.9q0.5-0.4 1-0.6q0.6-0.3 1.2-0.3q0.6 0.1 1.2 0.3q0.6 0.2 1 0.7q0.4 0.4 0.7 1q0.2 0.5 0.2 1.1q0 0.7-0.2 1.2q-0.3 0.6-0.7 1l-10.4 10.4q-0.2 0.3-0.4 0.6q-0.1 0.3-0.1 0.6q0 0.4 0.1 0.7q0.2 0.3 0.4 0.6l10.3 10.3c0.5 0.4 0.7 1 0.9 1.6c0.1 0.5 0 1.1-0.2 1.7c-0.2 0.5-0.6 1-1.1 1.3c-0.5 0.4-1.1 0.6-1.7 0.6z"/><path class="B" d="m624.1 220.3c-0.6 0-1.2-0.2-1.7-0.6c-0.5-0.3-0.9-0.8-1.1-1.3c-0.2-0.6-0.3-1.2-0.2-1.7c0.1-0.6 0.4-1.2 0.9-1.6l10.3-10.3q0.2-0.3 0.4-0.6q0.1-0.3 0.1-0.7q0-0.3-0.1-0.6q-0.2-0.3-0.4-0.6l-10.4-10.4q-0.4-0.4-0.7-1q-0.2-0.5-0.2-1.2q0-0.6 0.2-1.1q0.3-0.6 0.7-1q0.4-0.5 1-0.7q0.6-0.2 1.2-0.3q0.6 0 1.2 0.3q0.5 0.2 1 0.6l14 13.9q0.4 0.4 0.6 0.9q0.2 0.5 0.2 1.1q0 0.6-0.2 1.2q-0.2 0.5-0.6 0.9l-14.1 13.9q-0.2 0.2-0.4 0.4q-0.3 0.1-0.6 0.2q-0.2 0.1-0.5 0.2q-0.3 0.1-0.6 0.1z"/></svg>